<?xml version="1.0" standalone="no"?>
<!DOCTYPE svg PUBLIC "-//W3C//DTD SVG 1.1//EN" "http://www.w3.org/Graphics/SVG/1.1/DTD/svg11.dtd" >
<svg xmlns="http://www.w3.org/2000/svg" xmlns:xlink="http://www.w3.org/1999/xlink" version="1.1">
<metadata>
Created by FontForge 20170910 at Sun Oct 16 17:37:24 2016
 By Jimmy Wärting
Copyright \(c\) 2016 by Typedepot. All rights reserved.
</metadata>
<defs>
<font id="Neumann" horiz-adv-x="0" >
  <font-face 
    font-family="Neumann"
    font-weight="400"
    font-stretch="normal"
    units-per-em="1000"
    panose-1="2 7 3 3 8 0 0 2 0 4"
    ascent="800"
    descent="-200"
    x-height="500"
    cap-height="860"
    bbox="-533 -434 1298 1160.07"
    underline-thickness="50"
    underline-position="-100"
    stemh="25"
    stemv="73"
    unicode-range="U+000D-FB04"
  />
<missing-glyph horiz-adv-x="610" 
d="M55 750h500v-750h-500v750zM98 721l211 -326l210 326h-421zM294 373l-211 328v-656zM323 373l204 -317v634zM309 351l-208 -322h415z" />
    <glyph glyph-name="f_b" unicode="fb" horiz-adv-x="844" 
d="M774 365c5 -26 11 -74 11 -121c0 -34 -3 -74 -10 -108c-17 -81 -53 -143 -182 -143c-50 0 -129 9 -151 113l-4 -106h-60v726c0 66 -7 122 -98 122c-52 0 -98 -19 -98 -158v-190h109v-25h-109l1 -450h92v-25h-247v25h81v450h-80v25h80l1 203c1 139 81 168 170 168
c100 0 171 -41 171 -143l-1 -318c24 85 100 95 150 95c113 0 157 -51 174 -140zM702 128c6 40 8 92 8 121c0 20 -1 73 -8 121c-12 84 -40 112 -109 112c-109 0 -128 -73 -137 -136c-2 -14 -5 -52 -5 -97s3 -84 5 -98c9 -65 31 -135 137 -135c70 0 97 29 109 112z" />
    <glyph glyph-name="f_f" unicode="ff" horiz-adv-x="641" 
d="M624 713h-63c1 8 3 33 3 45c0 80 -32 89 -59 89c-61 0 -65 -57 -65 -136v-211h132v-25h-132v-450h97v-25h-250v25h80v450h-69v-1h-117v-474h-153v26h80v448h-80v26h80v193c0 155 92 178 181 178c43 -1 80 -14 112 -36c22 23 55 35 103 35c70 0 123 -21 123 -116
c0 -12 -2 -34 -3 -41zM367 500l-1 208c0 43 5 77 18 103l-1 1c-33 29 -59 35 -88 36c-32 0 -114 -1 -114 -158v-190h186z" />
    <glyph glyph-name="f_f_i" unicode="ffi" horiz-adv-x="809" 
d="M718 25h63v-25h-207v25h71v449h-196l1 -473l-144 -1v26h70v448h-195v-474h-153v26h80v448h-80v26h80v193c0 155 92 178 181 178c49 -1 91 -18 125 -46c31 36 80 46 132 46c90 0 172 -37 172 -139v-52h-73v46c0 66 -18 122 -99 122c-52 0 -97 -19 -97 -158v-190h269v-475z
M376 500l1 203c0 46 6 73 21 98c-35 40 -71 46 -103 47c-32 0 -114 -1 -114 -158v-190h195z" />
    <glyph glyph-name="f_f_l" unicode="ffl" horiz-adv-x="819" 
d="M762 25h25v-25h-87c-31 0 -55 4 -55 44l1 682c0 66 -7 122 -98 122c-52 0 -97 -19 -98 -158l-1 -190h109v-25h-109l1 -449h92v-26h-237v26h71v449l-195 -1v-474h-153v26h80v448h-80v26h80v193c0 155 92 180 181 178c49 -1 91 -18 125 -46c32 36 81 46 133 46
c100 0 171 -41 171 -143v-657c0 -32 8 -46 44 -46zM376 500l1 203c0 46 3 72 18 97c-36 39 -67 48 -99 48s-113 -1 -114 -158l-1 -190h195z" />
    <glyph glyph-name="f_i" unicode="fi" horiz-adv-x="541" 
d="M450 25h63v-25h-227v25h91v450h-196l1 -474l-154 -1v26h80v449h-80v25h80l1 203c1 139 85 168 173 168c100 0 168 -37 168 -139v-52h-73v46c0 66 -4 122 -95 122c-52 0 -101 -19 -101 -158v-190h269v-475z" />
    <glyph glyph-name="f_j" unicode="fj" horiz-adv-x="530" 
d="M450 500l1 -667c0 -97 -37 -122 -137 -122c-24 0 -43 2 -56 4l1 25c13 -2 26 -4 43 -4c83 0 76 47 76 109l-1 630h-196l1 -474l-154 -1v26h80v449h-80v25h80l1 203c1 139 85 168 173 168c100 0 168 -37 168 -139v-52h-73v46c0 66 -4 122 -95 122
c-52 0 -101 -19 -101 -158v-190h269z" />
    <glyph glyph-name="f_l" unicode="fl" horiz-adv-x="552" 
d="M495 25h25v-25h-87c-31 0 -55 4 -55 44v682c0 66 -7 122 -98 122c-52 0 -98 -19 -98 -158v-190h109v-25h-109l1 -449h92v-26h-247v26h81v449h-80v25h80l1 203c1 139 81 168 170 168c100 0 171 -41 171 -143v-647c0 -32 8 -56 44 -56z" />
    <glyph glyph-name="f_t" unicode="ft" horiz-adv-x="668" 
d="M571 141h52v-42c0 -89 -52 -109 -116 -109c-119 0 -129 40 -129 146v339h-196l1 -449h92v-26h-247v26h81v449h-80v25h80l1 203c1 139 81 168 170 168c100 0 171 -41 171 -143v-228h132v-25h-132v-332c0 -72 -4 -130 62 -130c41 0 58 37 58 104v24zM182 500h196v226
c0 66 -7 122 -98 122c-52 0 -98 -19 -98 -158v-190z" />
    <glyph glyph-name=".notdef" horiz-adv-x="610" 
d="M55 750h500v-750h-500v750zM98 721l211 -326l210 326h-421zM294 373l-211 328v-656zM323 373l204 -317v634zM309 351l-208 -322h415z" />
    <glyph glyph-name="Aacute" unicode="&#xc1;" horiz-adv-x="635" 
d="M413 1047c-51 -29 -103 -59 -153 -94l-12 13c58 52 111 109 165 166c19 20 37 29 49 28c24 -2 37 -17 37 -37c0 -27 -28 -43 -86 -76zM567 25h63v-25h-255v25h105l-61 267h-247l-67 -267h90v-25h-190v25h62l209 838h91zM180 322h232l-110 479h-3z" />
    <glyph glyph-name="Abreve" unicode="&#x102;" horiz-adv-x="635" 
d="M340 943c-139 0 -154 104 -154 170h27c0 -77 65 -107 127 -107c63 0 128 30 128 107h26c0 -66 -15 -170 -154 -170zM567 25h63v-25h-255v25h105l-61 267h-247l-67 -267h90v-25h-190v25h62l209 838h91zM180 322h232l-110 479h-3z" />
    <glyph glyph-name="Acircumflex" unicode="&#xc2;" horiz-adv-x="635" 
d="M341 1045c-50 -31 -99 -63 -149 -101l-14 13c45 45 78 82 123 135c11 13 20 21 40 21s29 -8 40 -21c45 -53 78 -90 123 -135l-14 -13c-50 38 -99 70 -149 101zM567 25h63v-25h-255v25h105l-61 267h-247l-67 -267h90v-25h-190v25h62l209 838h91zM180 322h232l-110 479h-3z
" />
    <glyph glyph-name="Adieresis" unicode="&#xc4;" horiz-adv-x="635" 
d="M269 946c-29 0 -43 14 -43 43s14 43 43 43s43 -14 43 -43s-14 -43 -43 -43zM418 946c-29 0 -43 14 -43 43s14 43 43 43s43 -14 43 -43s-14 -43 -43 -43zM567 25h63v-25h-255v25h105l-61 267h-247l-67 -267h90v-25h-190v25h62l209 838h91zM180 322h232l-110 479h-3z" />
    <glyph glyph-name="Agrave" unicode="&#xc0;" horiz-adv-x="635" 
d="M298 1046c-58 33 -86 50 -86 77c0 20 13 37 37 37c12 1 30 -8 49 -28c53 -58 107 -114 165 -166l-12 -13c-50 35 -102 64 -153 93zM567 25h63v-25h-255v25h105l-61 267h-247l-67 -267h90v-25h-190v25h62l209 838h91zM180 322h232l-110 479h-3z" />
    <glyph glyph-name="Amacron" unicode="&#x100;" horiz-adv-x="635" 
d="M479 982v-23h-278v23h278zM567 25h63v-25h-255v25h105l-61 267h-247l-67 -267h90v-25h-190v25h62l209 838h91zM180 322h232l-110 479h-3z" />
    <glyph glyph-name="Aogonek" unicode="&#x104;" horiz-adv-x="635" 
d="M630 0h-93c-43 -33 -59 -71 -59 -103c0 -41 26 -58 64 -58c35 0 52 14 69 28l7 -9c-34 -30 -62 -48 -102 -48c-57 0 -87 28 -87 74c0 53 38 91 79 116h-133v25h105l-61 267h-247l-67 -267h90v-25h-190v25h62l209 838h91l200 -838h63v-25zM180 322h232l-110 479h-3z" />
    <glyph glyph-name="Aring" unicode="&#xc5;" horiz-adv-x="635" 
d="M341 947c-81 0 -114 38 -115 96c0 61 36 97 115 97s113 -39 113 -97c-1 -59 -37 -96 -113 -96zM341 1121c-59 0 -77 -29 -78 -78c0 -48 20 -77 79 -77c55 0 74 31 74 78c1 48 -22 77 -75 77zM567 25h63v-25h-255v25h105l-61 267h-247l-67 -267h90v-25h-190v25h62l209 838
h91zM180 322h232l-110 479h-3z" />
    <glyph glyph-name="Atilde" unicode="&#xc3;" horiz-adv-x="635" 
d="M242 1018c-39 0 -55 -27 -55 -59h-21c1 65 37 102 103 102c80 0 108 -65 170 -65c39 0 55 27 55 59h21c-1 -65 -37 -102 -103 -102c-80 0 -108 65 -170 65zM567 25h63v-25h-255v25h105l-61 267h-247l-67 -267h90v-25h-190v25h62l209 838h91zM180 322h232l-110 479h-3z
" />
    <glyph glyph-name="AE" unicode="&#xc6;" horiz-adv-x="983" 
d="M837 239h65v-239h-501v25h79v273h-240l-132 -273h82v-25h-185v25h59l395 809h-58v25h497v-210h-65v185h-276v-373h209v94h43v-224h-43v104h-209v-410h280v214zM256 332h224l1 464z" />
    <glyph glyph-name="B" unicode="B" horiz-adv-x="636" 
d="M51 860h287c195 0 214 -71 214 -210c0 -85 -20 -169 -131 -184c122 -16 144 -66 144 -216c0 -158 -13 -250 -217 -250h-297v25h78v810h-78v25zM212 472h113c117 0 141 56 141 178c0 111 0 185 -148 185h-106v-363zM212 25h126c128 0 140 65 140 225
c0 141 -14 197 -153 197h-113v-422z" />
    <glyph glyph-name="C" unicode="C" horiz-adv-x="617" 
d="M565 240v-40c0 -88 -30 -210 -214 -210c-110 0 -197 5 -241 173c-17 66 -25 160 -25 255c0 102 9 205 24 272c31 138 93 179 227 179c92 0 141 -33 158 -92l6 88h56v-223h-65c-4 146 -39 197 -156 197c-100 0 -130 -35 -148 -156c-8 -57 -15 -173 -15 -287
c0 -90 4 -178 15 -235c26 -131 69 -141 164 -141c126 0 134 57 134 180v40h80z" />
    <glyph glyph-name="Cacute" unicode="&#x106;" horiz-adv-x="617" 
d="M565 240v-40c0 -88 -30 -210 -214 -210c-110 0 -197 5 -241 173c-17 66 -25 160 -25 255c0 102 9 205 24 272c31 138 93 179 227 179c92 0 141 -33 158 -92l6 88h56v-223h-65c-4 146 -39 197 -156 197c-100 0 -130 -35 -148 -156c-8 -57 -15 -173 -15 -287
c0 -90 4 -178 15 -235c26 -131 69 -141 164 -141c126 0 134 57 134 180v40h80zM431 1160c24 -2 37 -17 37 -37c0 -27 -28 -43 -86 -76c-51 -29 -103 -59 -153 -94l-12 13c58 52 111 109 165 166c19 20 37 29 49 28z" />
    <glyph glyph-name="Ccaron" unicode="&#x10c;" horiz-adv-x="617" 
d="M565 240v-40c0 -88 -30 -210 -214 -210c-110 0 -197 5 -241 173c-17 66 -25 160 -25 255c0 102 9 205 24 272c31 138 93 179 227 179c92 0 141 -33 158 -92l6 88h56v-223h-65c-4 146 -39 197 -156 197c-100 0 -130 -35 -148 -156c-8 -57 -15 -173 -15 -287
c0 -90 4 -178 15 -235c26 -131 69 -141 164 -141c126 0 134 57 134 180v40h80zM360 964c-11 -13 -20 -21 -40 -21c-18 0 -29 9 -40 21c-47 51 -76 92 -122 135l14 13c48 -39 97 -77 148 -106c51 29 100 67 149 106l12 -13c-45 -45 -76 -82 -121 -135z" />
    <glyph glyph-name="Ccedilla" unicode="&#xc7;" horiz-adv-x="617" 
d="M485 240h80v-40c0 -87 -29 -207 -208 -210l-19 -38c9 1 24 2 32 2c40 0 73 -17 73 -63c0 -71 -77 -81 -114 -81c-29 0 -52 6 -80 18l10 30c22 -11 44 -17 66 -17c29 0 50 16 50 43c0 35 -39 39 -80 37l35 69c-100 1 -179 16 -220 173c-17 66 -25 160 -25 255
c0 102 9 205 24 272c31 138 93 179 227 179c93 0 141 -33 159 -92l5 88h56v-223h-65c-4 146 -39 197 -156 197c-100 0 -130 -35 -148 -156c-8 -57 -15 -173 -15 -287c0 -90 4 -178 15 -235c26 -131 69 -141 164 -141c126 0 134 57 134 180v40z" />
    <glyph glyph-name="D" unicode="D" horiz-adv-x="698" 
d="M51 860h310c134 0 198 -25 229 -164c15 -68 23 -169 23 -270c0 -100 -8 -199 -24 -263c-42 -165 -127 -163 -227 -163h-311v25h78v810h-78v25zM212 25h107c87 0 172 2 191 138c10 70 16 178 16 285c0 91 -4 182 -16 249c-23 134 -122 138 -191 138h-107v-810z" />
    <glyph glyph-name="Eth" unicode="&#xd0;" horiz-adv-x="610" 
d="M590 696c15 -68 23 -169 23 -270c0 -100 -8 -199 -24 -263c-42 -165 -127 -163 -227 -163h-311v25h78v345h-74v21h74v444h-78v25h310c134 0 198 -25 229 -164zM510 163c10 70 16 178 16 285c0 91 -4 182 -16 249c-23 134 -122 138 -191 138h-107v-444h221v-21h-221v-345
h107c87 0 172 2 191 138z" />
    <glyph glyph-name="Dcaron" unicode="&#x10e;" horiz-adv-x="698" 
d="M51 860h310c134 0 198 -25 229 -164c15 -68 23 -169 23 -270c0 -100 -8 -199 -24 -263c-42 -165 -127 -163 -227 -163h-311v25h78v810h-78v25zM212 25h107c87 0 172 2 191 138c10 70 16 178 16 285c0 91 -4 182 -16 249c-23 134 -122 138 -191 138h-107v-810zM389 964
c-11 -13 -20 -21 -40 -21c-18 0 -29 9 -40 21c-47 51 -76 92 -122 135l14 13c48 -39 97 -77 148 -106c51 29 100 67 149 106l12 -13c-45 -45 -76 -82 -121 -135z" />
    <glyph glyph-name="Dcroat" unicode="&#x110;" horiz-adv-x="698" 
d="M51 860h310c134 0 198 -25 229 -164c15 -68 23 -169 23 -270c0 -100 -8 -199 -24 -263c-42 -165 -127 -163 -227 -163h-311v25h78v345h-74v21h74v444h-78v25zM212 25h107c87 0 172 2 191 138c10 70 16 178 16 285c0 91 -4 182 -16 249c-23 134 -122 138 -191 138h-107
v-444h221v-21h-221v-345z" />
    <glyph glyph-name="E" unicode="E" horiz-adv-x="638" 
d="M421 433h-209v-408h280v174h65v-199h-506v25h78v810h-78v25h502v-196h-65v171h-276v-372h209v92h43v-224h-43v102z" />
    <glyph glyph-name="Eacute" unicode="&#xc9;" horiz-adv-x="638" 
d="M447 1160c24 -2 37 -17 37 -37c0 -27 -28 -43 -86 -76c-51 -29 -103 -59 -153 -94l-12 13c58 52 111 109 165 166c19 20 37 29 49 28zM421 433h-209v-408h280v174h65v-199h-506v25h78v810h-78v25h502v-196h-65v171h-276v-372h209v92h43v-224h-43v102z" />
    <glyph glyph-name="Ecaron" unicode="&#x11a;" horiz-adv-x="638" 
d="M365 964c-11 -13 -20 -21 -40 -21c-18 0 -29 9 -40 21c-47 51 -76 92 -122 135l14 13c48 -39 97 -77 148 -106c51 29 100 67 149 106l12 -13c-45 -45 -76 -82 -121 -135zM421 433h-209v-408h280v174h65v-199h-506v25h78v810h-78v25h502v-196h-65v171h-276v-372h209v92h43
v-224h-43v102z" />
    <glyph glyph-name="Ecircumflex" unicode="&#xca;" horiz-adv-x="638" 
d="M366 1092c45 -53 78 -90 123 -135l-14 -13c-50 38 -99 70 -149 101c-50 -31 -99 -63 -149 -101l-14 13c45 45 78 82 123 135c11 13 20 21 40 21s29 -8 40 -21zM421 433h-209v-408h280v174h65v-199h-506v25h78v810h-78v25h502v-196h-65v171h-276v-372h209v92h43v-224h-43
v102z" />
    <glyph glyph-name="Edieresis" unicode="&#xcb;" horiz-adv-x="638" 
d="M254 946c-29 0 -43 14 -43 43s14 43 43 43s43 -14 43 -43s-14 -43 -43 -43zM403 946c-29 0 -43 14 -43 43s14 43 43 43s43 -14 43 -43s-14 -43 -43 -43zM421 433h-209v-408h280v174h65v-199h-506v25h78v810h-78v25h502v-196h-65v171h-276v-372h209v92h43v-224h-43v102z
" />
    <glyph glyph-name="Edotaccent" unicode="&#x116;" horiz-adv-x="638" 
d="M321 946c-29 0 -43 14 -43 43s14 43 43 43s43 -14 43 -43s-14 -43 -43 -43zM421 433h-209v-408h280v174h65v-199h-506v25h78v810h-78v25h502v-196h-65v171h-276v-372h209v92h43v-224h-43v102z" />
    <glyph glyph-name="Egrave" unicode="&#xc8;" horiz-adv-x="638" 
d="M234 1160c12 1 30 -8 49 -28c53 -58 107 -114 165 -166l-12 -13c-50 35 -102 64 -153 93c-58 33 -86 50 -86 77c0 20 13 37 37 37zM421 433h-209v-408h280v174h65v-199h-506v25h78v810h-78v25h502v-196h-65v171h-276v-372h209v92h43v-224h-43v102z" />
    <glyph glyph-name="Emacron" unicode="&#x112;" horiz-adv-x="638" 
d="M464 982v-23h-278v23h278zM492 199h65v-199h-506v25h78v810h-78v25h502v-196h-65v171h-276v-372h209v92h43v-224h-43v102h-209v-408h280v174z" />
    <glyph glyph-name="Eogonek" unicode="&#x118;" horiz-adv-x="638" 
d="M552 -133l7 -9c-34 -30 -62 -48 -102 -48c-57 0 -87 28 -87 74c0 53 38 91 79 116h-398v25h78v810h-78v25h502v-196h-65v171h-276v-372h209v92h43v-224h-43v102h-209v-408h280v174h65v-199h-79c-43 -33 -59 -71 -59 -103c0 -41 26 -58 64 -58c35 0 52 14 69 28z" />
    <glyph glyph-name="F" unicode="F" horiz-adv-x="579" 
d="M51 25h78v810h-78v25h498l1 -197h-65v172h-273v-379h210v99h43v-224h-43v100h-210v-406h120v-25h-281v25z" />
    <glyph glyph-name="G" unicode="G" horiz-adv-x="679" 
d="M393 391h236v-25h-62v-366h-58l-3 131c-18 -106 -84 -141 -177 -141c-86 0 -172 7 -218 174c-18 67 -26 165 -26 263c0 103 9 205 25 271c34 137 95 171 229 171c96 0 146 -33 165 -90l5 86h56v-223h-66l-3 44c-7 109 -49 153 -157 153c-91 0 -128 -17 -148 -146
c-11 -71 -18 -171 -18 -268c0 -101 6 -200 18 -261c21 -103 51 -144 137 -144c107 0 160 56 160 167v179h-95v25z" />
    <glyph glyph-name="Gcommaaccent" unicode="&#x122;" horiz-adv-x="679" 
d="M629 366h-62v-366h-58l-3 131c-18 -106 -84 -141 -177 -141c-86 0 -172 7 -218 174c-18 67 -26 165 -26 263c0 103 9 205 25 271c34 137 95 171 229 171c95 0 146 -33 164 -91l6 87h56v-223h-66l-3 44c-7 109 -49 153 -157 153c-91 0 -128 -17 -148 -146
c-11 -71 -18 -171 -18 -268c0 -101 6 -200 18 -261c21 -103 51 -144 137 -144c107 0 160 56 160 167v179h-95v25h236v-25zM299 -276c75 10 89 60 86 103c-6 -15 -18 -22 -37 -22c-22 0 -49 7 -50 46c-1 38 22 53 56 53c49 0 61 -34 61 -73c0 -55 -26 -108 -112 -120z" />
    <glyph glyph-name="H" unicode="H" horiz-adv-x="741" 
d="M690 835h-78v-810h78v-25h-239v25h78v401h-317v-401h78v-25h-239v25h78v810h-78v25h239v-25h-78v-375h317v375h-78v25h239v-25z" />
    <glyph glyph-name="I" unicode="I" horiz-adv-x="341" 
d="M290 0h-239v25h78v810h-78v25h239v-25h-78v-810h78v-25z" />
    <glyph glyph-name="Iacute" unicode="&#xcd;" horiz-adv-x="341" 
d="M293 1160c24 -2 37 -17 37 -37c0 -27 -28 -43 -86 -76c-51 -29 -103 -59 -153 -94l-12 13c58 52 111 109 165 166c19 20 37 29 49 28zM290 0h-239v25h78v810h-78v25h239v-25h-78v-810h78v-25z" />
    <glyph glyph-name="Icircumflex" unicode="&#xce;" horiz-adv-x="341" 
d="M212 1092c45 -53 78 -90 123 -135l-14 -13c-50 38 -99 70 -149 101c-50 -31 -99 -63 -149 -101l-14 13c45 45 78 82 123 135c11 13 20 21 40 21s29 -8 40 -21zM290 0h-239v25h78v810h-78v25h239v-25h-78v-810h78v-25z" />
    <glyph glyph-name="Idieresis" unicode="&#xcf;" horiz-adv-x="341" 
d="M100 946c-29 0 -43 14 -43 43s14 43 43 43s43 -14 43 -43s-14 -43 -43 -43zM249 946c-29 0 -43 14 -43 43s14 43 43 43s43 -14 43 -43s-14 -43 -43 -43zM290 0h-239v25h78v810h-78v25h239v-25h-78v-810h78v-25z" />
    <glyph glyph-name="Igrave" unicode="&#xcc;" horiz-adv-x="341" 
d="M80 1160c12 1 30 -8 49 -28c53 -58 107 -114 165 -166l-12 -13c-50 35 -102 64 -153 93c-58 33 -86 50 -86 77c0 20 13 37 37 37zM290 0h-239v25h78v810h-78v25h239v-25h-78v-810h78v-25z" />
    <glyph glyph-name="Imacron" unicode="&#x12a;" horiz-adv-x="341" 
d="M32 982h278v-23h-278v23zM51 835v25h239v-25h-78v-810h78v-25h-239v25h78v810h-78z" />
    <glyph glyph-name="Iogonek" unicode="&#x12e;" horiz-adv-x="341" 
d="M290 835h-78v-810h78v-25h-93c-43 -33 -59 -71 -59 -103c0 -41 26 -58 64 -58c35 0 52 14 69 28l7 -9c-34 -30 -62 -48 -102 -48c-57 0 -87 28 -87 74c0 53 38 91 79 116h-117v25h78v810h-78v25h239v-25z" />
    <glyph glyph-name="J" unicode="J" horiz-adv-x="486" 
d="M173 860h292v-25h-79v-692c0 -113 -89 -152 -186 -152c-67 0 -179 16 -179 123l-1 54l71 1l1 -59c1 -74 60 -89 107 -89c35 0 104 10 104 104v710h-130v25z" />
    <glyph glyph-name="K" unicode="K" horiz-adv-x="678" 
d="M638 25h35v-25h-61c-109 0 -135 -10 -146 141l-12 170c-6 81 -45 122 -164 122h-78v-408h108v-25h-269v25h78v810h-78v25h255v-25h-94v-372h76c123 0 138 58 158 231l16 141h-68v25h230v-25h-86l-19 -149c-20 -174 -51 -222 -146 -237c65 -5 158 -29 168 -158l13 -154
c7 -84 15 -112 84 -112z" />
    <glyph glyph-name="Kcommaaccent" unicode="&#x136;" horiz-adv-x="678" 
d="M638 25h35v-25h-61c-109 0 -135 -10 -146 141l-12 170c-6 81 -45 122 -164 122h-78v-408h108v-25h-269v25h78v810h-78v25h255v-25h-94v-372h76c123 0 138 58 158 231l16 141h-68v25h230v-25h-86l-19 -149c-20 -174 -51 -222 -146 -237c65 -5 158 -29 168 -158l13 -154
c7 -84 15 -112 84 -112zM380 -97c49 0 61 -34 61 -73c0 -55 -26 -108 -112 -120l-4 13c75 10 90 59 87 102c-7 -14 -18 -21 -38 -21c-22 0 -49 7 -50 46c-1 38 22 53 56 53z" />
    <glyph glyph-name="L" unicode="L" horiz-adv-x="563" 
d="M547 0h-496v25h78v810h-78v25h239v-25h-78v-810h271v177l65 -1z" />
    <glyph glyph-name="Lacute" unicode="&#x139;" horiz-adv-x="563" 
d="M420 1160c24 -2 37 -17 37 -37c0 -27 -28 -43 -86 -76c-51 -29 -103 -59 -153 -94l-12 13c58 52 111 109 165 166c19 20 37 29 49 28zM547 0h-496v25h78v810h-78v25h239v-25h-78v-810h271v177l65 -1z" />
    <glyph glyph-name="Lcaron" unicode="&#x13d;" horiz-adv-x="563" 
d="M338 964c-11 -13 -20 -21 -40 -21c-18 0 -29 9 -40 21c-47 51 -76 92 -122 135l14 13c48 -39 97 -77 148 -106c51 29 100 67 149 106l12 -13c-45 -45 -76 -82 -121 -135zM547 0h-496v25h78v810h-78v25h239v-25h-78v-810h271v177l65 -1z" />
    <glyph glyph-name="Lcommaaccent" unicode="&#x13b;" horiz-adv-x="563" 
d="M483 202l65 -1l-1 -201h-496v25h78v810h-78v25h239v-25h-78v-810h271v177zM326 -97c49 0 61 -34 61 -73c0 -55 -26 -108 -112 -120l-4 13c75 10 90 59 87 102c-7 -14 -18 -21 -38 -21c-22 0 -49 7 -50 46c-1 38 22 53 56 53z" />
    <glyph glyph-name="Lslash" unicode="&#x141;" horiz-adv-x="610" 
d="M483 202l65 -1l-1 -201h-496v25h78v368l-70 -26l-8 25l78 29v414h-78v25h239v-25h-78v-383l167 62l8 -25l-175 -65v-399h271v177z" />
    <glyph glyph-name="M" unicode="M" horiz-adv-x="902" 
d="M773 25h78v-25h-239v25h78v801h-4l-220 -826h-79l-214 826h-6v-801h88v-25h-204v25h78v810h-78v25h196l200 -776h3l205 776h196v-25h-78v-810z" />
    <glyph glyph-name="N" unicode="N" horiz-adv-x="698" 
d="M585 835v-835l-85 -1l-345 825h-4v-799h78v-25h-194v25h78v810h-78v25h192l318 -767h2v742h-78v25h194v-25h-78z" />
    <glyph glyph-name="Nacute" unicode="&#x143;" horiz-adv-x="698" 
d="M471 1160c24 -2 37 -17 37 -37c0 -27 -28 -43 -86 -76c-51 -29 -103 -59 -153 -94l-12 13c58 52 111 109 165 166c19 20 37 29 49 28zM585 835v-835l-85 -1l-345 825h-4v-799h78v-25h-194v25h78v810h-78v25h192l318 -767h2v742h-78v25h194v-25h-78z" />
    <glyph glyph-name="Ncaron" unicode="&#x147;" horiz-adv-x="698" 
d="M389 964c-11 -13 -20 -21 -40 -21c-18 0 -29 9 -40 21c-47 51 -76 92 -122 135l14 13c48 -39 97 -77 148 -106c51 29 100 67 149 106l12 -13c-45 -45 -76 -82 -121 -135zM585 835v-835l-85 -1l-345 825h-4v-799h78v-25h-194v25h78v810h-78v25h192l318 -767h2v742h-78v25
h194v-25h-78z" />
    <glyph glyph-name="Ncommaaccent" unicode="&#x145;" horiz-adv-x="688" 
d="M469 860h194v-25h-78v-835l-85 -1l-345 825h-4v-799h78v-25h-194v25h78v810h-78v25h192l318 -767h2v742h-78v25zM361 -97c49 0 61 -34 61 -73c0 -55 -26 -108 -112 -120l-4 13c75 10 90 59 87 102c-7 -14 -18 -21 -38 -21c-22 0 -49 7 -50 46c-1 38 22 53 56 53z" />
    <glyph glyph-name="Eng" unicode="&#x14a;" horiz-adv-x="698" 
d="M469 860h194v-25h-78v-962c0 -97 -37 -122 -147 -122c-24 0 -45 2 -58 4l1 25c13 -2 26 -4 43 -4c83 0 76 47 76 109v114l-345 825h-4v-799h78v-25h-194v25h78v810h-78v25h192l318 -767h2v742h-78v25z" />
    <glyph glyph-name="Ntilde" unicode="&#xd1;" horiz-adv-x="698" 
d="M503 1055h21c-1 -65 -37 -102 -103 -102c-80 0 -108 65 -170 65c-39 0 -55 -27 -55 -59h-21c1 65 37 102 103 102c80 0 108 -65 170 -65c39 0 55 27 55 59zM585 835v-835l-85 -1l-345 825h-4v-799h78v-25h-194v25h78v810h-78v25h192l318 -767h2v742h-78v25h194v-25h-78z
" />
    <glyph glyph-name="O" unicode="O" horiz-adv-x="692" 
d="M346 -11c-134 0 -204 36 -237 173c-17 70 -26 166 -25 268c-1 102 8 197 25 267c34 137 103 173 237 173s203 -36 237 -173c15 -71 24 -165 24 -267s-7 -198 -24 -268c-33 -137 -103 -173 -237 -173zM346 16c93 0 137 22 157 152c11 70 15 167 15 262s-4 191 -15 261
c-20 130 -64 152 -157 152s-137 -22 -157 -152c-11 -70 -15 -166 -15 -261s4 -192 15 -262c20 -130 64 -152 157 -152z" />
    <glyph glyph-name="Oacute" unicode="&#xd3;" horiz-adv-x="692" 
d="M468 1160c24 -2 37 -17 37 -37c0 -27 -28 -43 -86 -76c-51 -29 -103 -59 -153 -94l-12 13c58 52 111 109 165 166c19 20 37 29 49 28zM346 -11c-134 0 -204 36 -237 173c-17 70 -26 166 -25 268c-1 102 8 197 25 267c34 137 103 173 237 173s203 -36 237 -173
c15 -71 24 -165 24 -267s-7 -198 -24 -268c-33 -137 -103 -173 -237 -173zM346 16c93 0 137 22 157 152c11 70 15 167 15 262s-4 191 -15 261c-20 130 -64 152 -157 152s-137 -22 -157 -152c-11 -70 -15 -166 -15 -261s4 -192 15 -262c20 -130 64 -152 157 -152z" />
    <glyph glyph-name="Ocircumflex" unicode="&#xd4;" horiz-adv-x="692" 
d="M387 1092c45 -53 78 -90 123 -135l-14 -13c-50 38 -99 70 -149 101c-50 -31 -99 -63 -149 -101l-14 13c45 45 78 82 123 135c11 13 20 21 40 21s29 -8 40 -21zM346 -11c-134 0 -204 36 -237 173c-17 70 -26 166 -25 268c-1 102 8 197 25 267c34 137 103 173 237 173
s203 -36 237 -173c15 -71 24 -165 24 -267s-7 -198 -24 -268c-33 -137 -103 -173 -237 -173zM346 16c93 0 137 22 157 152c11 70 15 167 15 262s-4 191 -15 261c-20 130 -64 152 -157 152s-137 -22 -157 -152c-11 -70 -15 -166 -15 -261s4 -192 15 -262
c20 -130 64 -152 157 -152z" />
    <glyph glyph-name="Odieresis" unicode="&#xd6;" horiz-adv-x="692" 
d="M275 946c-29 0 -43 14 -43 43s14 43 43 43s43 -14 43 -43s-14 -43 -43 -43zM424 946c-29 0 -43 14 -43 43s14 43 43 43s43 -14 43 -43s-14 -43 -43 -43zM346 -11c-134 0 -204 36 -237 173c-17 70 -26 166 -25 268c-1 102 8 197 25 267c34 137 103 173 237 173
s203 -36 237 -173c15 -71 24 -165 24 -267s-7 -198 -24 -268c-33 -137 -103 -173 -237 -173zM346 16c93 0 137 22 157 152c11 70 15 167 15 262s-4 191 -15 261c-20 130 -64 152 -157 152s-137 -22 -157 -152c-11 -70 -15 -166 -15 -261s4 -192 15 -262
c20 -130 64 -152 157 -152z" />
    <glyph glyph-name="Ograve" unicode="&#xd2;" horiz-adv-x="692" 
d="M255 1160c12 1 30 -8 49 -28c53 -58 107 -114 165 -166l-12 -13c-50 35 -102 64 -153 93c-58 33 -86 50 -86 77c0 20 13 37 37 37zM346 -11c-134 0 -204 36 -237 173c-17 70 -26 166 -25 268c-1 102 8 197 25 267c34 137 103 173 237 173s203 -36 237 -173
c15 -71 24 -165 24 -267s-7 -198 -24 -268c-33 -137 -103 -173 -237 -173zM346 16c93 0 137 22 157 152c11 70 15 167 15 262s-4 191 -15 261c-20 130 -64 152 -157 152s-137 -22 -157 -152c-11 -70 -15 -166 -15 -261s4 -192 15 -262c20 -130 64 -152 157 -152z" />
    <glyph glyph-name="Ohungarumlaut" unicode="&#x150;" horiz-adv-x="692" 
d="M346 -11c-134 0 -204 36 -237 173c-17 70 -26 166 -25 268c-1 102 8 197 25 267c34 137 103 173 237 173s203 -36 237 -173c15 -71 24 -165 24 -267s-7 -198 -24 -268c-33 -137 -103 -173 -237 -173zM346 16c93 0 137 22 157 152c11 70 15 167 15 262s-4 191 -15 261
c-20 130 -64 152 -157 152s-137 -22 -157 -152c-11 -70 -15 -166 -15 -261s4 -192 15 -262c20 -130 64 -152 157 -152zM375 1160c24 -2 37 -17 37 -37c0 -27 -28 -44 -86 -77c-51 -29 -103 -58 -153 -93l-12 13c58 52 111 109 165 166c19 20 37 29 49 28zM591 1160
c24 -2 37 -17 37 -37c0 -27 -28 -44 -86 -77c-51 -29 -103 -58 -153 -93l-12 13c58 52 111 109 165 166c19 20 37 29 49 28z" />
    <glyph glyph-name="Omacron" unicode="&#x14c;" horiz-adv-x="692" 
d="M346 -11c-134 0 -204 36 -237 173c-17 70 -26 166 -25 268c-1 102 8 197 25 267c34 137 103 173 237 173s203 -36 237 -173c15 -71 24 -165 24 -267s-7 -198 -24 -268c-33 -137 -103 -173 -237 -173zM346 16c93 0 137 22 157 152c11 70 15 167 15 262s-4 191 -15 261
c-20 130 -64 152 -157 152s-137 -22 -157 -152c-11 -70 -15 -166 -15 -261s4 -192 15 -262c20 -130 64 -152 157 -152zM207 982h278v-23h-278v23z" />
    <glyph glyph-name="Oslash" unicode="&#xd8;" horiz-adv-x="710" 
d="M707 847l-117 -143c1 -3 1 -5 2 -7c15 -71 24 -165 24 -267s-7 -198 -24 -268c-33 -137 -103 -173 -237 -173c-124 0 -193 31 -229 144l-112 -138l-24 15l127 156c-16 69 -25 164 -24 264c-1 102 8 197 25 267c34 137 103 173 237 173c121 0 189 -29 226 -135l103 126z
M183 430c0 -60 2 -122 6 -176l328 402c-2 12 -3 24 -5 35c-20 130 -64 152 -157 152s-137 -22 -157 -152c-11 -70 -15 -166 -15 -261zM512 168c11 70 15 167 15 262c0 65 -2 130 -7 188l-328 -404l6 -46c20 -130 64 -152 157 -152s137 22 157 152z" />
    <glyph glyph-name="Otilde" unicode="&#xd5;" horiz-adv-x="692" 
d="M500 1055h21c-1 -65 -37 -102 -103 -102c-80 0 -108 65 -170 65c-39 0 -55 -27 -55 -59h-21c1 65 37 102 103 102c80 0 108 -65 170 -65c39 0 55 27 55 59zM346 -11c-134 0 -204 36 -237 173c-17 70 -26 166 -25 268c-1 102 8 197 25 267c34 137 103 173 237 173
s203 -36 237 -173c15 -71 24 -165 24 -267s-7 -198 -24 -268c-33 -137 -103 -173 -237 -173zM346 16c93 0 137 22 157 152c11 70 15 167 15 262s-4 191 -15 261c-20 130 -64 152 -157 152s-137 -22 -157 -152c-11 -70 -15 -166 -15 -261s4 -192 15 -262
c20 -130 64 -152 157 -152z" />
    <glyph glyph-name="OE" unicode="&#x152;" horiz-adv-x="937" 
d="M856 239v-239h-407c-19 -9 -74 -11 -101 -11c-100 0 -190 7 -236 174c-19 66 -27 164 -27 263c0 103 9 205 26 271c34 137 103 173 237 173c57 0 74 -6 99 -10l405 -1v-210h-65v185h-262v-374h195v95h43v-224h-43v104h-195v-410h266v214h65zM348 19c35 0 81 4 101 24v774
c-26 17 -55 23 -101 23c-93 0 -134 -20 -157 -144c-13 -68 -17 -160 -17 -252c0 -106 6 -212 17 -282c19 -124 66 -143 157 -143z" />
    <glyph glyph-name="P" unicode="P" horiz-adv-x="634" 
d="M51 860h244c166 0 264 23 264 -220c0 -204 -13 -263 -217 -262h-130v-353h120v-25h-281v25h78v810h-78v25zM212 403h120c128 0 140 45 140 237c0 168 -21 195 -153 195h-108z" />
    <glyph glyph-name="Thorn" unicode="&#xde;" horiz-adv-x="610" 
d="M212 699h83c166 0 264 26 264 -208c0 -210 -13 -275 -217 -274h-130v-192h120v-25h-281v25h78v810h-78v25h281v-25h-120v-136zM212 242h120c128 0 140 55 140 237c0 158 -21 195 -153 195h-107v-432z" />
    <glyph glyph-name="Q" unicode="Q" horiz-adv-x="692" 
d="M583 162c-32 -132 -98 -170 -223 -173c55 1 99 -27 105 -97c5 -57 16 -71 63 -71h18v-17h-98c-43 0 -52 20 -57 93c-6 73 -34 82 -103 95c-97 11 -151 54 -179 170c-17 70 -26 166 -25 268c-1 102 8 197 25 267c34 137 103 173 237 173s203 -36 237 -173
c15 -71 24 -165 24 -267s-7 -198 -24 -268zM503 168c11 70 15 167 15 262s-4 191 -15 261c-20 130 -64 152 -157 152s-137 -22 -157 -152c-11 -70 -15 -166 -15 -261s4 -192 15 -262c20 -130 64 -152 157 -152s137 22 157 152z" />
    <glyph glyph-name="R" unicode="R" horiz-adv-x="705" 
d="M660 25h35v-25h-60c-110 0 -141 -10 -147 140l-7 169c-5 126 -113 130 -182 130h-86l-1 -414h108v-25h-269v25h78v810h-78v25h319c193 0 203 -100 203 -210c0 -117 -46 -183 -159 -199c43 -3 149 -24 155 -162l7 -153c4 -85 15 -111 84 -111zM213 464h107
c138 0 167 38 167 186c0 166 -23 185 -153 185h-121v-371z" />
    <glyph glyph-name="Racute" unicode="&#x154;" horiz-adv-x="705" 
d="M477 1160c24 -2 37 -17 37 -37c0 -27 -28 -43 -86 -76c-51 -29 -103 -59 -153 -94l-12 13c58 52 111 109 165 166c19 20 37 29 49 28zM660 25h35v-25h-60c-110 0 -141 -10 -147 140l-7 169c-5 126 -113 130 -182 130h-86l-1 -414h108v-25h-269v25h78v810h-78v25h319
c193 0 203 -100 203 -210c0 -117 -46 -183 -159 -199c43 -3 149 -24 155 -162l7 -153c4 -85 15 -111 84 -111zM213 464h107c138 0 167 38 167 186c0 166 -23 185 -153 185h-121v-371z" />
    <glyph glyph-name="Rcaron" unicode="&#x158;" horiz-adv-x="705" 
d="M395 964c-11 -13 -20 -21 -40 -21c-18 0 -29 9 -40 21c-47 51 -76 92 -122 135l14 13c48 -39 97 -77 148 -106c51 29 100 67 149 106l12 -13c-45 -45 -76 -82 -121 -135zM660 25h35v-25h-60c-110 0 -141 -10 -147 140l-7 169c-5 126 -113 130 -182 130h-86l-1 -414h108
v-25h-269v25h78v810h-78v25h319c193 0 203 -100 203 -210c0 -117 -46 -183 -159 -199c43 -3 149 -24 155 -162l7 -153c4 -85 15 -111 84 -111zM213 464h107c138 0 167 38 167 186c0 166 -23 185 -153 185h-121v-371z" />
    <glyph glyph-name="Rcommaaccent" unicode="&#x156;" horiz-adv-x="705" 
d="M660 25h35v-25h-60c-110 0 -141 -10 -147 140l-7 169c-5 126 -113 130 -182 130h-86l-1 -414h108v-25h-269v25h78v810h-78v25h319c193 0 203 -100 203 -210c0 -117 -46 -183 -159 -199c43 -3 149 -24 155 -162l7 -153c4 -85 15 -111 84 -111zM213 464h107
c138 0 167 38 167 186c0 166 -23 185 -153 185h-121v-371zM391 -97c49 0 61 -34 61 -73c0 -55 -26 -108 -112 -120l-4 13c75 10 90 59 87 102c-7 -14 -18 -21 -38 -21c-22 0 -49 7 -50 46c-1 38 22 53 56 53z" />
    <glyph glyph-name="S" unicode="S" horiz-adv-x="604" 
d="M543 214c1 -165 -76 -225 -263 -225c-201 0 -219 122 -219 210v40h80v-40c0 -100 13 -176 139 -180c144 -5 177 67 177 180c0 154 -39 170 -181 241c-78 39 -198 80 -198 227c0 156 94 202 228 202c95 0 140 -39 152 -108l6 104h56v-223h-65c-6 134 -38 197 -150 197
c-100 0 -153 -25 -153 -146s87 -152 173 -196c80 -41 217 -93 218 -283z" />
    <glyph glyph-name="Sacute" unicode="&#x15a;" horiz-adv-x="604" 
d="M430 1160c24 -2 37 -17 37 -37c0 -27 -28 -43 -86 -76c-51 -29 -103 -59 -153 -94l-12 13c58 52 111 109 165 166c19 20 37 29 49 28zM543 214c1 -165 -76 -225 -263 -225c-201 0 -219 122 -219 210v40h80v-40c0 -100 13 -176 139 -180c144 -5 177 67 177 180
c0 154 -39 170 -181 241c-78 39 -198 80 -198 227c0 156 94 202 228 202c95 0 140 -39 152 -108l6 104h56v-223h-65c-6 134 -38 197 -150 197c-100 0 -153 -25 -153 -146s87 -152 173 -196c80 -41 217 -93 218 -283z" />
    <glyph glyph-name="Scaron" unicode="&#x160;" horiz-adv-x="604" 
d="M348 964c-11 -13 -20 -21 -40 -21c-18 0 -29 9 -40 21c-47 51 -76 92 -122 135l14 13c48 -39 97 -77 148 -106c51 29 100 67 149 106l12 -13c-45 -45 -76 -82 -121 -135zM543 214c1 -165 -76 -225 -263 -225c-201 0 -219 122 -219 210v40h80v-40c0 -100 13 -176 139 -180
c144 -5 177 67 177 180c0 154 -39 170 -181 241c-78 39 -198 80 -198 227c0 156 94 202 228 202c95 0 140 -39 152 -108l6 104h56v-223h-65c-6 134 -38 197 -150 197c-100 0 -153 -25 -153 -146s87 -152 173 -196c80 -41 217 -93 218 -283z" />
    <glyph glyph-name="Scedilla" unicode="&#x15e;" horiz-adv-x="604" 
d="M543 214c1 -152 -64 -215 -221 -224l-19 -38c9 1 24 2 32 2c40 0 73 -17 73 -63c0 -71 -77 -81 -114 -81c-29 0 -52 6 -80 18l10 30c22 -11 44 -17 66 -17c29 0 50 16 50 43c0 35 -39 39 -80 37l35 68h-15c-201 0 -219 122 -219 210v40h80v-40c0 -100 13 -176 139 -180
c144 -5 177 67 177 180c0 154 -39 170 -181 241c-78 39 -198 80 -198 227c0 156 94 202 228 202c95 0 140 -39 152 -108l6 104h56v-223h-65c-6 134 -38 197 -150 197c-100 0 -153 -25 -153 -146s87 -152 173 -196c80 -41 217 -93 218 -283z" />
    <glyph glyph-name="T" unicode="T" horiz-adv-x="591" 
d="M511 662v173h-174v-810h142v-25h-367v25h142v810h-174v-173h-65v198h561v-198h-65z" />
    <glyph glyph-name="Tbar" unicode="&#x166;" horiz-adv-x="610" 
d="M15 860h561v-198h-65v173h-174v-330h135v-25h-135v-455h142v-25h-367v25h142v455h-136v25h136v330h-174v-173h-65v198z" />
    <glyph glyph-name="Tcaron" unicode="&#x164;" horiz-adv-x="591" 
d="M336 964c-11 -13 -20 -21 -40 -21c-18 0 -29 9 -40 21c-47 51 -76 92 -122 135l14 13c48 -39 97 -77 148 -106c51 29 100 67 149 106l12 -13c-45 -45 -76 -82 -121 -135zM511 662v173h-174v-810h142v-25h-367v25h142v810h-174v-173h-65v198h561v-198h-65z" />
    <glyph glyph-name="uni0162" unicode="&#x162;" horiz-adv-x="591" 
d="M15 860h561v-198h-65v173h-174v-810h142v-25h-164l-24 -48c9 1 24 2 32 2c40 0 73 -17 73 -63c0 -71 -77 -81 -114 -81c-29 0 -52 6 -80 18l10 30c22 -11 44 -17 66 -17c29 0 50 16 50 43c0 35 -39 39 -80 37l40 79h-176v25h142v810h-174v-173h-65v198z" />
    <glyph glyph-name="U" unicode="U" horiz-adv-x="700" 
d="M680 835h-86v-630c0 -141 -74 -215 -229 -215c-164 0 -262 65 -262 198v647h-78v25h239v-25h-78v-640c0 -119 63 -175 180 -175c126 0 185 68 185 183v632h-107v25h236v-25z" />
    <glyph glyph-name="Uacute" unicode="&#xda;" horiz-adv-x="700" 
d="M487 1160c24 -2 37 -17 37 -37c0 -27 -28 -43 -86 -76c-51 -29 -103 -59 -153 -94l-12 13c58 52 111 109 165 166c19 20 37 29 49 28zM680 835h-86v-630c0 -141 -74 -215 -229 -215c-164 0 -262 65 -262 198v647h-78v25h239v-25h-78v-640c0 -119 63 -175 180 -175
c126 0 185 68 185 183v632h-107v25h236v-25z" />
    <glyph glyph-name="Ucircumflex" unicode="&#xdb;" horiz-adv-x="700" 
d="M406 1092c45 -53 78 -90 123 -135l-14 -13c-50 38 -99 70 -149 101c-50 -31 -99 -63 -149 -101l-14 13c45 45 78 82 123 135c11 13 20 21 40 21s29 -8 40 -21zM680 835h-86v-630c0 -141 -74 -215 -229 -215c-164 0 -262 65 -262 198v647h-78v25h239v-25h-78v-640
c0 -119 63 -175 180 -175c126 0 185 68 185 183v632h-107v25h236v-25z" />
    <glyph glyph-name="Udieresis" unicode="&#xdc;" horiz-adv-x="700" 
d="M294 946c-29 0 -43 14 -43 43s14 43 43 43s43 -14 43 -43s-14 -43 -43 -43zM443 946c-29 0 -43 14 -43 43s14 43 43 43s43 -14 43 -43s-14 -43 -43 -43zM680 835h-86v-630c0 -141 -74 -215 -229 -215c-164 0 -262 65 -262 198v647h-78v25h239v-25h-78v-640
c0 -119 63 -175 180 -175c126 0 185 68 185 183v632h-107v25h236v-25z" />
    <glyph glyph-name="Ugrave" unicode="&#xd9;" horiz-adv-x="700" 
d="M274 1160c12 1 30 -8 49 -28c53 -58 107 -114 165 -166l-12 -13c-50 35 -102 64 -153 93c-58 33 -86 50 -86 77c0 20 13 37 37 37zM680 835h-86v-630c0 -141 -74 -215 -229 -215c-164 0 -262 65 -262 198v647h-78v25h239v-25h-78v-640c0 -119 63 -175 180 -175
c126 0 185 68 185 183v632h-107v25h236v-25z" />
    <glyph glyph-name="Uhungarumlaut" unicode="&#x170;" horiz-adv-x="700" 
d="M394 1160c24 -2 37 -17 37 -37c0 -27 -28 -44 -86 -77c-51 -29 -103 -58 -153 -93l-12 13c58 52 111 109 165 166c19 20 37 29 49 28zM610 1160c24 -2 37 -17 37 -37c0 -27 -28 -44 -86 -77c-51 -29 -103 -58 -153 -93l-12 13c58 52 111 109 165 166c19 20 37 29 49 28z
M680 835h-86v-630c0 -141 -74 -215 -229 -215c-164 0 -262 65 -262 198v647h-78v25h239v-25h-78v-640c0 -119 63 -175 180 -175c126 0 185 68 185 183v632h-107v25h236v-25z" />
    <glyph glyph-name="Umacron" unicode="&#x16a;" horiz-adv-x="700" 
d="M504 982v-23h-278v23h278zM444 860h236v-25h-86v-630c0 -141 -74 -215 -229 -215c-164 0 -262 65 -262 198v647h-78v25h239v-25h-78v-640c0 -119 63 -175 180 -175c126 0 185 68 185 183v632h-107v25z" />
    <glyph glyph-name="Uogonek" unicode="&#x172;" horiz-adv-x="700" 
d="M444 860h236v-25h-86v-630c0 -98 -36 -164 -111 -195c-53 -35 -73 -78 -73 -113c0 -41 26 -58 64 -58c35 0 52 14 69 28l7 -9c-34 -30 -62 -48 -102 -48c-57 0 -87 28 -87 74c0 50 34 87 72 112c-21 -4 -43 -6 -68 -6c-164 0 -262 65 -262 198v647h-78v25h239v-25h-78
v-640c0 -119 63 -175 180 -175c126 0 185 68 185 183v632h-107v25z" />
    <glyph glyph-name="Uring" unicode="&#x16e;" horiz-adv-x="700" 
d="M366 947c-81 0 -114 38 -115 96c0 61 36 97 115 97s113 -39 113 -97c-1 -59 -37 -96 -113 -96zM367 966c55 0 74 31 74 78c1 48 -22 77 -75 77c-59 0 -77 -29 -78 -78c0 -48 20 -77 79 -77zM680 835h-86v-630c0 -141 -74 -215 -229 -215c-164 0 -262 65 -262 198v647h-78
v25h239v-25h-78v-640c0 -119 63 -175 180 -175c126 0 185 68 185 183v632h-107v25h236v-25z" />
    <glyph glyph-name="V" unicode="V" horiz-adv-x="693" 
d="M688 860v-25h-89l-230 -835h-78l-223 835h-63v25h254v-25h-105l200 -755l1 1l210 754h-93v25h216z" />
    <glyph glyph-name="W" unicode="W" horiz-adv-x="1004" 
d="M999 860v-25h-71l-207 -835h-89l-137 537l-152 -537h-86l-190 835h-62v25h261v-25h-114l174 -767h3l150 533l-60 234h-52v25h252v-25h-106l189 -767h2l190 767h-119v25h224z" />
    <glyph glyph-name="Wacute" unicode="&#x1e82;" horiz-adv-x="1004" 
d="M550 1047c-51 -29 -103 -59 -153 -94l-12 13c58 52 111 109 165 166c19 20 37 29 49 28c24 -2 37 -17 37 -37c0 -27 -28 -43 -86 -76zM999 860v-25h-71l-207 -835h-89l-137 537l-152 -537h-86l-190 835h-62v25h261v-25h-114l174 -767h3l150 533l-60 234h-52v25h252v-25
h-106l189 -767h2l190 767h-119v25h224z" />
    <glyph glyph-name="Wcircumflex" unicode="&#x174;" horiz-adv-x="1004" 
d="M478 1045c-50 -31 -99 -63 -149 -101l-14 13c45 45 78 82 123 135c11 13 20 21 40 21s29 -8 40 -21c45 -53 78 -90 123 -135l-14 -13c-50 38 -99 70 -149 101zM999 860v-25h-71l-207 -835h-89l-137 537l-152 -537h-86l-190 835h-62v25h261v-25h-114l174 -767h3l150 533
l-60 234h-52v25h252v-25h-106l189 -767h2l190 767h-119v25h224z" />
    <glyph glyph-name="Wdieresis" unicode="&#x1e84;" horiz-adv-x="1004" 
d="M406 946c-29 0 -43 14 -43 43s14 43 43 43s43 -14 43 -43s-14 -43 -43 -43zM555 946c-29 0 -43 14 -43 43s14 43 43 43s43 -14 43 -43s-14 -43 -43 -43zM999 860v-25h-71l-207 -835h-89l-137 537l-152 -537h-86l-190 835h-62v25h261v-25h-114l174 -767h3l150 533l-60 234
h-52v25h252v-25h-106l189 -767h2l190 767h-119v25h224z" />
    <glyph glyph-name="Wgrave" unicode="&#x1e80;" horiz-adv-x="1004" 
d="M435 1046c-58 33 -86 50 -86 77c0 20 13 37 37 37c12 1 30 -8 49 -28c53 -58 107 -114 165 -166l-12 -13c-50 35 -102 64 -153 93zM999 860v-25h-71l-207 -835h-89l-137 537l-152 -537h-86l-190 835h-62v25h261v-25h-114l174 -767h3l150 533l-60 234h-52v25h252v-25h-106
l189 -767h2l190 767h-119v25h224z" />
    <glyph glyph-name="X" unicode="X" horiz-adv-x="671" 
d="M581 25h85v-25h-274v25h99l-182 369l-189 -369h96v-25h-211v25h73l211 410l-198 400h-79v25h291v-25h-122l159 -323l165 323h-80v25h203v-25h-82l-186 -363z" />
    <glyph glyph-name="Y" unicode="Y" horiz-adv-x="700" 
d="M618 835l-213 -485v-325h142v-25h-367v25h142v325l-211 485h-106v25h309v-25h-115l192 -435l191 435h-105v25h218v-25h-77z" />
    <glyph glyph-name="Yacute" unicode="&#xdd;" horiz-adv-x="700" 
d="M458 1047c-51 -29 -103 -59 -153 -94l-12 13c58 52 111 109 165 166c19 20 37 29 49 28c24 -2 37 -17 37 -37c0 -27 -28 -43 -86 -76zM618 835l-213 -485v-325h142v-25h-367v25h142v325l-211 485h-106v25h309v-25h-115l192 -435l191 435h-105v25h218v-25h-77z" />
    <glyph glyph-name="Ycircumflex" unicode="&#x176;" horiz-adv-x="700" 
d="M386 1045c-50 -31 -99 -63 -149 -101l-14 13c45 45 78 82 123 135c11 13 20 21 40 21s29 -8 40 -21c45 -53 78 -90 123 -135l-14 -13c-50 38 -99 70 -149 101zM618 835l-213 -485v-325h142v-25h-367v25h142v325l-211 485h-106v25h309v-25h-115l192 -435l191 435h-105v25
h218v-25h-77z" />
    <glyph glyph-name="Ydieresis" unicode="&#x178;" horiz-adv-x="700" 
d="M314 946c-29 0 -43 14 -43 43s14 43 43 43s43 -14 43 -43s-14 -43 -43 -43zM463 946c-29 0 -43 14 -43 43s14 43 43 43s43 -14 43 -43s-14 -43 -43 -43zM618 835l-213 -485v-325h142v-25h-367v25h142v325l-211 485h-106v25h309v-25h-115l192 -435l191 435h-105v25h218
v-25h-77z" />
    <glyph glyph-name="Ygrave" unicode="&#x1ef2;" horiz-adv-x="700" 
d="M343 1046c-58 33 -86 50 -86 77c0 20 13 37 37 37c12 1 30 -8 49 -28c53 -58 107 -114 165 -166l-12 -13c-50 35 -102 64 -153 93zM618 835l-213 -485v-325h142v-25h-367v25h142v325l-211 485h-106v25h309v-25h-115l192 -435l191 435h-105v25h218v-25h-77z" />
    <glyph glyph-name="Z" unicode="Z" horiz-adv-x="587" 
d="M544 835l-404 -810h336l-1 207h65l-1 -232h-496v25l410 810h-335v-207h-65l1 232h490v-25z" />
    <glyph glyph-name="Zacute" unicode="&#x179;" horiz-adv-x="587" 
d="M416 1160c24 -2 37 -17 37 -37c0 -27 -28 -43 -86 -76c-51 -29 -103 -59 -153 -94l-12 13c58 52 111 109 165 166c19 20 37 29 49 28zM544 835l-404 -810h336l-1 207h65l-1 -232h-496v25l410 810h-335v-207h-65l1 232h490v-25z" />
    <glyph glyph-name="Zcaron" unicode="&#x17d;" horiz-adv-x="587" 
d="M334 964c-11 -13 -20 -21 -40 -21c-18 0 -29 9 -40 21c-47 51 -76 92 -122 135l14 13c48 -39 97 -77 148 -106c51 29 100 67 149 106l12 -13c-45 -45 -76 -82 -121 -135zM544 835l-404 -810h336l-1 207h65l-1 -232h-496v25l410 810h-335v-207h-65l1 232h490v-25z" />
    <glyph glyph-name="Zdotaccent" unicode="&#x17b;" horiz-adv-x="587" 
d="M290 946c-29 0 -43 14 -43 43s14 43 43 43s43 -14 43 -43s-14 -43 -43 -43zM544 835l-404 -810h336l-1 207h65l-1 -232h-496v25l410 810h-335v-207h-65l1 232h490v-25z" />
    <glyph glyph-name="a" unicode="a" horiz-adv-x="509" 
d="M456 25h30v-25h-74c-62 0 -72 10 -71 65c-19 -47 -62 -71 -135 -71c-138 0 -154 72 -154 141c0 87 29 122 147 139c31 5 61 6 91 6c16 0 33 0 49 -1v104c0 71 -34 102 -90 102c-98 0 -100 -64 -99 -93l1 -28h-72l-1 23c-4 100 73 121 168 121c97 0 166 -22 166 -132v-304
c0 -34 11 -47 44 -47zM339 154v101c-18 2 -36 3 -54 3s-36 -1 -54 -4c-97 -16 -104 -66 -104 -123c0 -44 6 -112 102 -112c71 0 110 54 110 135z" />
    <glyph glyph-name="aacute" unicode="&#xe1;" horiz-adv-x="509" 
d="M288 714c-40 -42 -55 -68 -79 -100l-17 11c42 64 51 80 83 146c7 15 16 30 34 27c13 -2 20 -13 20 -24c0 -15 -14 -31 -41 -60zM456 25h30v-25h-74c-62 0 -72 10 -71 65c-19 -47 -62 -71 -135 -71c-138 0 -154 72 -154 141c0 87 29 122 147 139c31 5 61 6 91 6
c16 0 33 0 49 -1v104c0 71 -34 102 -90 102c-98 0 -100 -64 -99 -93l1 -28h-72l-1 23c-4 100 73 121 168 121c97 0 166 -22 166 -132v-304c0 -34 11 -47 44 -47zM339 154v101c-18 2 -36 3 -54 3s-36 -1 -54 -4c-97 -16 -104 -66 -104 -123c0 -44 6 -112 102 -112
c71 0 110 54 110 135z" />
    <glyph glyph-name="abreve" unicode="&#x103;" horiz-adv-x="509" 
d="M262 604c-113 0 -129 59 -139 130l17 3c10 -68 67 -88 122 -88c54 0 113 18 123 88l15 -3c-10 -73 -25 -130 -138 -130zM456 25h30v-25h-74c-62 0 -72 10 -71 65c-19 -47 -62 -71 -135 -71c-138 0 -154 72 -154 141c0 87 29 122 147 139c31 5 61 6 91 6c16 0 33 0 49 -1
v104c0 71 -34 102 -90 102c-98 0 -100 -64 -99 -93l1 -28h-72l-1 23c-4 100 73 121 168 121c97 0 166 -22 166 -132v-304c0 -34 11 -47 44 -47zM339 154v101c-18 2 -36 3 -54 3s-36 -1 -54 -4c-97 -16 -104 -66 -104 -123c0 -44 6 -112 102 -112c71 0 110 54 110 135z" />
    <glyph glyph-name="acircumflex" unicode="&#xe2;" horiz-adv-x="509" 
d="M251 729c-23 -15 -92 -82 -118 -109l-13 9c53 65 69 88 101 139c6 10 15 22 30 22c17 0 25 -15 30 -22c32 -51 48 -74 101 -139l-13 -9c-25 27 -94 94 -118 109zM456 25h30v-25h-74c-62 0 -72 10 -71 65c-19 -47 -62 -71 -135 -71c-138 0 -154 72 -154 141
c0 87 29 122 147 139c31 5 61 6 91 6c16 0 33 0 49 -1v104c0 71 -34 102 -90 102c-98 0 -100 -64 -99 -93l1 -28h-72l-1 23c-4 100 73 121 168 121c97 0 166 -22 166 -132v-304c0 -34 11 -47 44 -47zM339 154v101c-18 2 -36 3 -54 3s-36 -1 -54 -4
c-97 -16 -104 -66 -104 -123c0 -44 6 -112 102 -112c71 0 110 54 110 135z" />
    <glyph glyph-name="adieresis" unicode="&#xe4;" horiz-adv-x="509" 
d="M168 601c-34 0 -51 16 -51 54s17 55 51 55c33 0 50 -17 50 -55s-17 -54 -50 -54zM328 601c-34 0 -51 16 -51 54s17 55 51 55c33 0 50 -17 50 -55s-17 -54 -50 -54zM456 25h30v-25h-74c-62 0 -72 10 -71 65c-19 -47 -62 -71 -135 -71c-138 0 -154 72 -154 141
c0 87 29 122 147 139c31 5 61 6 91 6c16 0 33 0 49 -1v104c0 71 -34 102 -90 102c-98 0 -100 -64 -99 -93l1 -28h-72l-1 23c-4 100 73 121 168 121c97 0 166 -22 166 -132v-304c0 -34 11 -47 44 -47zM339 154v101c-18 2 -36 3 -54 3s-36 -1 -54 -4
c-97 -16 -104 -66 -104 -123c0 -44 6 -112 102 -112c71 0 110 54 110 135z" />
    <glyph glyph-name="agrave" unicode="&#xe0;" horiz-adv-x="509" 
d="M318 623l-13 -7c-24 32 -41 56 -81 98c-27 29 -41 45 -41 60c0 11 7 22 20 24c18 3 26 -12 34 -27c33 -66 39 -78 81 -148zM456 25h30v-25h-74c-62 0 -72 10 -71 65c-19 -47 -62 -71 -135 -71c-138 0 -154 72 -154 141c0 87 29 122 147 139c31 5 61 6 91 6
c16 0 33 0 49 -1v104c0 71 -34 102 -90 102c-98 0 -100 -64 -99 -93l1 -28h-72l-1 23c-4 100 73 121 168 121c97 0 166 -22 166 -132v-304c0 -34 11 -47 44 -47zM339 154v101c-18 2 -36 3 -54 3s-36 -1 -54 -4c-97 -16 -104 -66 -104 -123c0 -44 6 -112 102 -112
c71 0 110 54 110 135z" />
    <glyph glyph-name="amacron" unicode="&#x101;" horiz-adv-x="509" 
d="M390 646v-23h-278v23h278zM456 25h30v-25h-74c-62 0 -72 10 -71 65c-19 -47 -62 -71 -135 -71c-138 0 -154 72 -154 141c0 87 29 122 147 139c31 5 61 6 91 6c16 0 33 0 49 -1v104c0 71 -34 102 -90 102c-98 0 -100 -64 -99 -93l1 -28h-72l-1 23c-4 100 73 121 168 121
c97 0 166 -22 166 -132v-304c0 -34 11 -47 44 -47zM339 154v101c-18 2 -36 3 -54 3s-36 -1 -54 -4c-97 -16 -104 -66 -104 -123c0 -44 6 -112 102 -112c71 0 110 54 110 135z" />
    <glyph glyph-name="aogonek" unicode="&#x105;" horiz-adv-x="512" 
d="M490 -133l7 -9c-34 -30 -62 -48 -102 -48c-57 0 -87 28 -87 74c0 56 43 93 87 116c-47 2 -55 15 -54 65c-19 -47 -62 -71 -135 -71c-138 0 -154 72 -154 141c0 87 29 122 147 139c31 5 61 6 91 6c16 0 33 0 49 -1v104c0 71 -34 102 -90 102c-98 0 -100 -64 -99 -93l1 -28
h-72l-1 23c-4 100 73 121 168 121c97 0 166 -22 166 -132v-304c0 -34 11 -47 44 -47h30v-25h-70c-43 -33 -59 -71 -59 -103c0 -41 26 -58 64 -58c35 0 52 14 69 28zM339 154v101c-18 2 -36 3 -54 3s-36 -1 -54 -4c-97 -16 -104 -66 -104 -123c0 -44 6 -112 102 -112
c71 0 110 54 110 135z" />
    <glyph glyph-name="aring" unicode="&#xe5;" horiz-adv-x="509" 
d="M251 609c-73 0 -104 35 -104 88c-1 56 33 89 105 89s103 -36 103 -89c-1 -54 -34 -88 -104 -88zM181 697c-1 -44 18 -71 72 -71c50 0 67 29 68 72c0 44 -21 70 -69 70c-54 0 -71 -27 -71 -71zM456 25h30v-25h-74c-62 0 -72 10 -71 65c-19 -47 -62 -71 -135 -71
c-138 0 -154 72 -154 141c0 87 29 122 147 139c31 5 61 6 91 6c16 0 33 0 49 -1v104c0 71 -34 102 -90 102c-98 0 -100 -64 -99 -93l1 -28h-72l-1 23c-4 100 73 121 168 121c97 0 166 -22 166 -132v-304c0 -34 11 -47 44 -47zM339 154v101c-18 2 -36 3 -54 3s-36 -1 -54 -4
c-97 -16 -104 -66 -104 -123c0 -44 6 -112 102 -112c71 0 110 54 110 135z" />
    <glyph glyph-name="atilde" unicode="&#xe3;" horiz-adv-x="509" 
d="M183 659c-22 1 -43 -15 -45 -38h-16c1 60 44 80 82 80c54 1 80 -46 124 -46c35 0 48 25 52 41h15c0 -31 -25 -80 -91 -79c-61 0 -76 41 -121 42zM456 25h30v-25h-74c-62 0 -72 10 -71 65c-19 -47 -62 -71 -135 -71c-138 0 -154 72 -154 141c0 87 29 122 147 139
c31 5 61 6 91 6c16 0 33 0 49 -1v104c0 71 -34 102 -90 102c-98 0 -100 -64 -99 -93l1 -28h-72l-1 23c-4 100 73 121 168 121c97 0 166 -22 166 -132v-304c0 -34 11 -47 44 -47zM339 154v101c-18 2 -36 3 -54 3s-36 -1 -54 -4c-97 -16 -104 -66 -104 -123
c0 -44 6 -112 102 -112c71 0 110 54 110 135z" />
    <glyph glyph-name="ae" unicode="&#xe6;" horiz-adv-x="760" 
d="M702 246h-301c0 -157 11 -230 125 -230c76 0 111 24 111 115v26h59v-23c0 -72 -30 -141 -170 -141c-90 0 -152 20 -176 103c-15 -76 -68 -101 -144 -101c-138 0 -154 71 -154 140c0 93 29 126 147 143c46 7 92 7 138 5v100c0 69 -32 100 -88 100c-98 0 -100 -52 -99 -91
l1 -28h-72l-1 23c-4 100 73 119 168 119c63 0 110 -8 135 -45c32 36 81 46 141 46c90 0 172 -29 180 -163c2 -31 0 -67 0 -98zM522 484c-101 0 -121 -72 -121 -213h236c0 32 0 50 -1 76c-2 43 -7 137 -114 137zM229 19c71 0 108 57 108 132v107c-35 4 -71 5 -106 -1
c-97 -15 -104 -63 -104 -121c0 -41 6 -117 102 -117z" />
    <glyph glyph-name="b" unicode="b" horiz-adv-x="556" 
d="M486 365c5 -26 11 -74 11 -121c0 -34 -3 -74 -10 -108c-17 -81 -53 -143 -182 -143c-50 0 -129 9 -151 113l-4 -106h-60v835h-70v25c48 0 95 4 143 10v-79l-1 -381c24 85 100 95 150 95c113 0 157 -51 174 -140zM414 128c6 40 8 92 8 121c0 20 -1 73 -8 121
c-12 84 -40 112 -109 112c-109 0 -128 -73 -137 -136c-2 -14 -5 -52 -5 -97s3 -84 5 -98c9 -65 31 -135 137 -135c70 0 97 29 109 112z" />
    <glyph glyph-name="c" unicode="c" horiz-adv-x="477" 
d="M358 158h64v-23c0 -69 -22 -141 -171 -141c-145 0 -170 55 -184 143c-5 34 -8 74 -8 113c0 40 3 79 8 113c14 87 41 143 176 143c93 0 116 -44 126 -86l4 80h45v-151h-60c0 72 -17 134 -115 134c-99 0 -96 -55 -103 -118c-5 -41 -6 -81 -6 -118c0 -35 1 -73 6 -112
c7 -58 6 -118 111 -118c84 0 107 30 107 115v26z" />
    <glyph glyph-name="cacute" unicode="&#x107;" horiz-adv-x="477" 
d="M276 714c-40 -42 -55 -68 -79 -100l-17 11c42 64 51 80 83 146c7 15 16 30 34 27c13 -2 20 -13 20 -24c0 -15 -14 -31 -41 -60zM358 158h64v-23c0 -69 -22 -141 -171 -141c-145 0 -170 55 -184 143c-5 34 -8 74 -8 113c0 40 3 79 8 113c14 87 41 143 176 143
c93 0 116 -44 126 -86l4 80h45v-151h-60c0 72 -17 134 -115 134c-99 0 -96 -55 -103 -118c-5 -41 -6 -81 -6 -118c0 -35 1 -73 6 -112c7 -58 6 -118 111 -118c84 0 107 30 107 115v26z" />
    <glyph glyph-name="ccaron" unicode="&#x10d;" horiz-adv-x="477" 
d="M236 606c-14 0 -27 12 -37 27c-39 58 -64 90 -111 146l12 9c53 -56 76 -79 136 -127c60 48 84 71 136 127l12 -9c-47 -56 -73 -88 -111 -146c-10 -15 -23 -27 -37 -27zM358 158h64v-23c0 -69 -22 -141 -171 -141c-145 0 -170 55 -184 143c-5 34 -8 74 -8 113
c0 40 3 79 8 113c14 87 41 143 176 143c93 0 116 -44 126 -86l4 80h45v-151h-60c0 72 -17 134 -115 134c-99 0 -96 -55 -103 -118c-5 -41 -6 -81 -6 -118c0 -35 1 -73 6 -112c7 -58 6 -118 111 -118c84 0 107 30 107 115v26z" />
    <glyph glyph-name="ccedilla" unicode="&#xe7;" horiz-adv-x="477" 
d="M358 158h64v-23c0 -66 -20 -135 -153 -141l-22 -43c14 1 26 2 41 2c26 0 58 -20 58 -61c0 -67 -74 -81 -104 -81c-33 0 -58 9 -82 18l15 19c24 -11 41 -15 67 -15c17 0 59 12 59 55c0 37 -48 44 -99 37l35 69c-133 4 -156 58 -170 143c-5 34 -8 74 -8 113
c0 40 3 79 8 113c14 87 41 143 176 143c93 0 116 -44 126 -86l4 80h45v-151h-60c0 72 -17 134 -115 134c-99 0 -96 -55 -103 -118c-5 -41 -6 -81 -6 -118c0 -35 1 -73 6 -112c7 -58 6 -118 111 -118c84 0 107 30 107 115v26z" />
    <glyph glyph-name="d" unicode="d" horiz-adv-x="564" 
d="M511 25h30v-25h-74c-66 0 -64 14 -64 105c-18 -83 -72 -112 -152 -112c-124 0 -164 59 -181 140c-7 34 -10 74 -10 108c0 47 5 95 10 121c17 89 61 143 174 143c57 0 127 -12 151 -95l-2 382v44h-70v25c48 0 95 4 143 10v-59l1 -731c0 -32 8 -56 44 -56zM388 144
c2 14 6 54 6 99s-3 85 -5 99c-9 69 -29 140 -138 140c-72 0 -97 -34 -109 -118c-7 -48 -7 -101 -7 -121c0 -29 2 -81 8 -121c12 -75 38 -106 108 -106c106 0 128 68 137 128z" />
    <glyph glyph-name="eth" unicode="&#xf0;" horiz-adv-x="549" 
d="M464 276c0 -217 -48 -282 -203 -282c-138 0 -180 55 -194 143c-5 34 -8 70 -8 106c0 35 3 71 8 105c14 88 58 144 194 144c39 0 70 -9 96 -23c-28 99 -73 183 -123 246l-131 -62l-10 21l126 60c-36 42 -74 74 -109 94l46 32c23 -14 67 -49 114 -102l131 63l10 -22
l-125 -59c117 -135 178 -331 178 -464zM381 136c5 40 7 74 7 107c0 63 -7 113 -21 177c-14 33 -72 49 -106 49c-97 0 -113 -63 -120 -119c-5 -40 -6 -75 -6 -107c0 -33 1 -67 6 -107c7 -57 23 -119 120 -119s113 62 120 119z" />
    <glyph glyph-name="dcaron" unicode="&#x10f;" horiz-adv-x="613" 
d="M466 812l1 -731c0 -32 8 -56 44 -56h30v-25h-74c-66 0 -64 14 -64 105c-18 -83 -72 -112 -152 -112c-124 0 -164 59 -181 140c-7 34 -10 74 -10 108c0 47 5 95 10 121c17 89 61 143 174 143c57 0 127 -12 151 -95l-2 382v44h-70v25c48 0 95 4 143 10v-59zM601 866
c49 0 61 -34 61 -73c0 -55 -26 -108 -112 -120l-4 13c75 10 90 59 87 102c-7 -14 -18 -21 -38 -21c-22 0 -49 7 -50 46c-1 38 22 53 56 53zM388 144c2 14 6 54 6 99s-3 85 -5 99c-9 69 -29 140 -138 140c-72 0 -97 -34 -109 -118c-7 -48 -7 -101 -7 -121c0 -29 2 -81 8 -121
c12 -75 38 -106 108 -106c106 0 128 68 137 128z" />
    <glyph glyph-name="dcroat" unicode="&#x111;" horiz-adv-x="564" 
d="M566 705v-25h-100l1 -599c0 -32 8 -56 44 -56h30v-25h-74c-66 0 -64 14 -64 105c-18 -83 -72 -112 -152 -112c-124 0 -164 59 -181 140c-7 34 -10 74 -10 108c0 47 5 95 10 121c17 89 61 143 174 143c57 0 127 -12 151 -95l-1 270h-175v25h175l-1 87v44h-70v25
c48 0 95 4 143 10v-166h100zM388 144c2 14 6 54 6 99s-3 85 -5 99c-9 69 -29 140 -138 140c-72 0 -97 -34 -109 -118c-7 -48 -7 -101 -7 -121c0 -29 2 -81 8 -121c12 -75 38 -106 108 -106c106 0 128 68 137 128z" />
    <glyph glyph-name="e" unicode="e" horiz-adv-x="493" 
d="M370 157h64c0 -111 -44 -164 -169 -164c-109 0 -194 29 -203 163c-2 31 -3 61 -3 94s1 63 3 94c9 134 92 163 193 163c90 0 172 -29 180 -163c2 -31 0 -67 0 -98h-301c0 -34 1 -60 3 -96c6 -90 36 -134 128 -134c88 0 105 45 105 141zM137 350c-2 -27 -3 -50 -3 -79h236
c0 32 0 50 -1 76c-2 49 -7 137 -114 137c-83 0 -112 -44 -118 -134z" />
    <glyph glyph-name="eacute" unicode="&#xe9;" horiz-adv-x="493" 
d="M269 771c7 15 16 30 34 27c13 -2 20 -13 20 -24c0 -15 -14 -31 -41 -60c-40 -42 -55 -68 -79 -100l-17 11c42 64 51 80 83 146zM370 157h64c0 -111 -44 -164 -169 -164c-109 0 -194 29 -203 163c-2 31 -3 61 -3 94s1 63 3 94c9 134 92 163 193 163c90 0 172 -29 180 -163
c2 -31 0 -67 0 -98h-301c0 -34 1 -60 3 -96c6 -90 36 -134 128 -134c88 0 105 45 105 141zM137 350c-2 -27 -3 -50 -3 -79h236c0 32 0 50 -1 76c-2 49 -7 137 -114 137c-83 0 -112 -44 -118 -134z" />
    <glyph glyph-name="ecaron" unicode="&#x11b;" horiz-adv-x="493" 
d="M378 788l12 -9c-47 -56 -73 -88 -111 -146c-10 -15 -23 -27 -37 -27s-27 12 -37 27c-39 58 -64 90 -111 146l12 9c53 -56 76 -79 136 -127c60 48 84 71 136 127zM370 157h64c0 -111 -44 -164 -169 -164c-109 0 -194 29 -203 163c-2 31 -3 61 -3 94s1 63 3 94
c9 134 92 163 193 163c90 0 172 -29 180 -163c2 -31 0 -67 0 -98h-301c0 -34 1 -60 3 -96c6 -90 36 -134 128 -134c88 0 105 45 105 141zM137 350c-2 -27 -3 -50 -3 -79h236c0 32 0 50 -1 76c-2 49 -7 137 -114 137c-83 0 -112 -44 -118 -134z" />
    <glyph glyph-name="ecircumflex" unicode="&#xea;" horiz-adv-x="493" 
d="M275 768c32 -51 48 -74 101 -139l-13 -9c-25 27 -94 94 -118 109c-23 -15 -92 -82 -118 -109l-13 9c53 65 69 88 101 139c6 10 15 22 30 22c17 0 25 -15 30 -22zM370 157h64c0 -111 -44 -164 -169 -164c-109 0 -194 29 -203 163c-2 31 -3 61 -3 94s1 63 3 94
c9 134 92 163 193 163c90 0 172 -29 180 -163c2 -31 0 -67 0 -98h-301c0 -34 1 -60 3 -96c6 -90 36 -134 128 -134c88 0 105 45 105 141zM137 350c-2 -27 -3 -50 -3 -79h236c0 32 0 50 -1 76c-2 49 -7 137 -114 137c-83 0 -112 -44 -118 -134z" />
    <glyph glyph-name="edieresis" unicode="&#xeb;" horiz-adv-x="493" 
d="M162 601c-34 0 -51 16 -51 54s17 55 51 55c33 0 50 -17 50 -55s-17 -54 -50 -54zM322 601c-34 0 -51 16 -51 54s17 55 51 55c33 0 50 -17 50 -55s-17 -54 -50 -54zM370 157h64c0 -111 -44 -164 -169 -164c-109 0 -194 29 -203 163c-2 31 -3 61 -3 94s1 63 3 94
c9 134 92 163 193 163c90 0 172 -29 180 -163c2 -31 0 -67 0 -98h-301c0 -34 1 -60 3 -96c6 -90 36 -134 128 -134c88 0 105 45 105 141zM137 350c-2 -27 -3 -50 -3 -79h236c0 32 0 50 -1 76c-2 49 -7 137 -114 137c-83 0 -112 -44 -118 -134z" />
    <glyph glyph-name="edotaccent" unicode="&#x117;" horiz-adv-x="493" 
d="M245 601c-38 0 -55 16 -55 54s17 55 55 55c37 0 54 -17 54 -55s-17 -54 -54 -54zM370 157h64c0 -111 -44 -164 -169 -164c-109 0 -194 29 -203 163c-2 31 -3 61 -3 94s1 63 3 94c9 134 92 163 193 163c90 0 172 -29 180 -163c2 -31 0 -67 0 -98h-301c0 -34 1 -60 3 -96
c6 -90 36 -134 128 -134c88 0 105 45 105 141zM137 350c-2 -27 -3 -50 -3 -79h236c0 32 0 50 -1 76c-2 49 -7 137 -114 137c-83 0 -112 -44 -118 -134z" />
    <glyph glyph-name="egrave" unicode="&#xe8;" horiz-adv-x="493" 
d="M197 798c18 3 26 -12 34 -27c33 -66 39 -78 81 -148l-13 -7c-24 32 -41 56 -81 98c-27 29 -41 45 -41 60c0 11 7 22 20 24zM370 157h64c0 -111 -44 -164 -169 -164c-109 0 -194 29 -203 163c-2 31 -3 61 -3 94s1 63 3 94c9 134 92 163 193 163c90 0 172 -29 180 -163
c2 -31 0 -67 0 -98h-301c0 -34 1 -60 3 -96c6 -90 36 -134 128 -134c88 0 105 45 105 141zM137 350c-2 -27 -3 -50 -3 -79h236c0 32 0 50 -1 76c-2 49 -7 137 -114 137c-83 0 -112 -44 -118 -134z" />
    <glyph glyph-name="emacron" unicode="&#x113;" horiz-adv-x="493" 
d="M384 646v-23h-278v23h278zM435 344c2 -31 0 -67 0 -98h-301c0 -34 1 -60 3 -96c6 -90 36 -134 128 -134c88 0 105 45 105 141h64c0 -111 -44 -164 -169 -164c-109 0 -194 29 -203 163c-2 31 -3 61 -3 94s1 63 3 94c9 134 92 163 193 163c90 0 172 -29 180 -163zM134 271
h236c0 32 0 50 -1 76c-2 49 -7 137 -114 137c-83 0 -112 -44 -118 -134c-2 -27 -3 -50 -3 -79z" />
    <glyph glyph-name="eogonek" unicode="&#x119;" horiz-adv-x="493" 
d="M435 344c2 -31 0 -67 0 -98h-301c0 -34 1 -60 3 -96c6 -90 36 -134 128 -134c88 0 105 45 105 141h64c0 -73 -19 -121 -69 -146c-55 -35 -75 -79 -75 -114c0 -41 26 -58 64 -58c35 0 52 14 69 28l7 -9c-34 -30 -62 -48 -102 -48c-57 0 -87 28 -87 74c0 54 40 90 83 114
c-17 -3 -37 -5 -59 -5c-109 0 -194 29 -203 163c-2 31 -3 61 -3 94s1 63 3 94c9 134 92 163 193 163c90 0 172 -29 180 -163zM134 271h236c0 32 0 50 -1 76c-2 49 -7 137 -114 137c-83 0 -112 -44 -118 -134c-2 -27 -3 -50 -3 -79z" />
    <glyph glyph-name="f" unicode="f" horiz-adv-x="382" 
d="M246 847c-61 0 -65 -57 -65 -136v-211h132v-25h-132v-450h97v-25h-250v25h80v450h-80v25h80l-1 208c0 108 36 162 138 162c70 0 123 -21 123 -116c0 -12 -2 -34 -3 -41h-63c1 8 3 33 3 45c0 80 -32 89 -59 89z" />
    <glyph glyph-name="g" unicode="g" horiz-adv-x="506" 
d="M244 63c182 0 227 -34 227 -170c0 -130 -45 -163 -224 -163c-150 0 -206 38 -206 146c0 28 2 54 8 84l75 -9c-6 -27 -8 -48 -8 -75c0 -62 5 -123 132 -123c118 0 148 29 148 140c0 93 -30 116 -149 116c-148 -1 -160 47 -160 85c0 40 30 70 66 76c-73 20 -94 74 -94 164
c1 119 38 173 186 173c48 0 96 -11 115 -11c24 1 43 17 43 38c1 29 -24 64 -24 64l70 6c10 -13 21 -31 20 -56c-1 -44 -35 -68 -93 -68c42 -27 55 -74 56 -144c-1 -119 -36 -174 -182 -176c-62 0 -122 -8 -122 -47c0 -33 32 -50 116 -50zM130 335c-1 -118 34 -152 115 -152
c90 0 117 36 116 152c-1 115 -26 150 -116 149c-89 0 -114 -34 -115 -149z" />
    <glyph glyph-name="gcommaaccent" unicode="&#x123;" horiz-adv-x="507" 
d="M251 612c-49 0 -61 34 -61 73c0 55 26 108 112 120l4 -13c-75 -10 -90 -59 -87 -102c7 14 18 21 38 21c22 0 49 -7 50 -46c1 -38 -22 -53 -56 -53zM244 63c182 0 227 -34 227 -170c0 -130 -45 -163 -224 -163c-150 0 -206 38 -206 146c0 28 2 54 8 84l75 -9
c-6 -27 -8 -48 -8 -75c0 -62 5 -123 132 -123c118 0 148 29 148 140c0 93 -30 116 -149 116c-148 -1 -160 47 -160 85c0 40 30 70 66 76c-73 20 -94 74 -94 164c1 119 38 173 186 173c48 0 96 -11 115 -11c24 1 43 17 43 38c1 29 -24 64 -24 64l70 6c10 -13 21 -31 20 -56
c-1 -44 -35 -68 -93 -68c42 -27 55 -74 56 -144c-1 -119 -36 -174 -182 -176c-62 0 -122 -8 -122 -47c0 -33 32 -50 116 -50zM130 335c-1 -118 34 -152 115 -152c90 0 117 36 116 152c-1 115 -26 150 -116 149c-89 0 -114 -34 -115 -149z" />
    <glyph glyph-name="h" unicode="h" horiz-adv-x="568" 
d="M515 25h30v-25h-92c-31 0 -55 4 -55 44v318c0 51 -3 119 -104 119c-67 0 -126 -52 -126 -153v-303h79v-25h-222v25h70v810h-65v25c48 0 89 1 138 7v-454c22 59 79 93 153 93c114 0 150 -56 150 -137v-288c0 -32 8 -56 44 -56z" />
    <glyph glyph-name="i" unicode="i" horiz-adv-x="258" 
d="M131 645c-38 0 -54 16 -54 54s16 55 54 55s55 -17 55 -55s-17 -54 -55 -54zM171 25h59v-25h-202v25h70v450h-70v25c48 0 95 4 143 10v-485z" />
    <glyph glyph-name="dotlessi" unicode="&#x131;" horiz-adv-x="269" 
d="M171 25h70v-25h-213v25h70v450h-66v25c48 0 91 1 139 7v-482z" />
    <glyph glyph-name="iacute" unicode="&#xed;" horiz-adv-x="269" 
d="M154 714c-40 -42 -55 -68 -79 -100l-17 11c42 64 51 80 83 146c7 15 16 30 34 27c13 -2 20 -13 20 -24c0 -15 -14 -31 -41 -60zM171 25h70v-25h-213v25h70v450h-66v25c48 0 91 1 139 7v-482z" />
    <glyph glyph-name="icircumflex" unicode="&#xee;" horiz-adv-x="269" 
d="M248 629l-13 -9c-25 27 -94 94 -118 109c-23 -15 -92 -82 -118 -109l-13 9c53 65 69 88 101 139c6 10 15 22 30 22c17 0 25 -15 30 -22c32 -51 48 -74 101 -139zM171 25h70v-25h-213v25h70v450h-66v25c48 0 91 1 139 7v-482z" />
    <glyph glyph-name="idieresis" unicode="&#xef;" horiz-adv-x="269" 
d="M171 25h70v-25h-213v25h70v450h-66v25c48 0 91 1 139 7v-482z" />
    <glyph glyph-name="igrave" unicode="&#xec;" horiz-adv-x="269" 
d="M184 623l-13 -7c-24 32 -41 56 -81 98c-27 29 -41 45 -41 60c0 11 7 22 20 24c18 3 26 -12 34 -27c33 -66 39 -78 81 -148zM171 25h70v-25h-213v25h70v450h-66v25c48 0 91 1 139 7v-482z" />
    <glyph glyph-name="imacron" unicode="&#x12b;" horiz-adv-x="269" 
d="M-22 646h278v-23h-278v23zM171 25h70v-25h-213v25h70v450h-66v25c48 0 91 1 139 7v-482z" />
    <glyph glyph-name="iogonek" unicode="&#x12f;" horiz-adv-x="269" 
d="M117 601c-38 0 -55 16 -55 54s17 55 55 55c37 0 54 -17 54 -55s-17 -54 -54 -54zM241 0h-83c-43 -33 -59 -71 -59 -103c0 -41 26 -58 64 -58c35 0 52 14 69 28l7 -9c-34 -30 -62 -48 -102 -48c-57 0 -87 28 -87 74c0 55 43 92 87 116h-109v25h70v450h-66v25
c48 0 91 1 139 7v-482h70v-25z" />
    <glyph glyph-name="j" unicode="j" horiz-adv-x="267" 
d="M134 754c39 0 54 -27 54 -55c0 -38 -17 -54 -54 -54c-38 0 -55 15 -55 53s17 56 55 56zM173 510v-52l1 -585c0 -97 -37 -122 -137 -122c-24 0 -43 2 -56 4l1 25c13 -2 26 -4 43 -4c83 0 76 47 76 109l-1 563v27h-70v25c48 0 95 4 143 10z" />
    <glyph glyph-name="k" unicode="k" horiz-adv-x="535" 
d="M479 25h21v-25h-54c-70 0 -84 -7 -91 82l-7 94c-4 55 -20 69 -125 69h-55v-220h79v-25h-222v25h70v810h-64v25c48 0 89 1 137 7v-597h53c110 0 115 32 128 135l9 70h-55v25h185v-25h-70l-11 -75c-15 -102 -28 -130 -95 -138l-1 -1c38 -3 105 -17 112 -92l7 -80
c4 -49 9 -64 49 -64z" />
    <glyph glyph-name="kcommaaccent" unicode="&#x137;" horiz-adv-x="535" 
d="M479 25h21v-25h-54c-70 0 -84 -7 -91 82l-7 94c-4 55 -20 69 -125 69h-55v-220h79v-25h-222v25h70v810h-64v25c48 0 89 1 137 7v-597h53c110 0 115 32 128 135l9 70h-55v25h185v-25h-70l-11 -75c-15 -102 -28 -130 -95 -138l-1 -1c38 -3 105 -17 112 -92l7 -80
c4 -49 9 -64 49 -64zM282 -97c49 0 61 -34 61 -73c0 -55 -26 -108 -112 -120l-4 13c75 10 90 59 87 102c-7 -14 -18 -21 -38 -21c-22 0 -49 7 -50 46c-1 38 22 53 56 53z" />
    <glyph glyph-name="l" unicode="l" horiz-adv-x="264" 
d="M207 24h25v-25h-87c-31 0 -55 4 -55 44v792h-70v25c48 0 95 1 143 7v-787c0 -32 8 -56 44 -56z" />
    <glyph glyph-name="lacute" unicode="&#x13a;" horiz-adv-x="264" 
d="M207 24h25v-25h-87c-31 0 -55 4 -55 44v792h-70v25c48 0 95 1 143 7v-787c0 -32 8 -56 44 -56z" />
    <glyph glyph-name="lcaron" unicode="&#x13e;" horiz-adv-x="264" 
d="M163 867v-787c0 -32 8 -56 44 -56h25v-25h-87c-31 0 -55 4 -55 44v792h-70v25c48 0 95 1 143 7zM302 866c49 0 61 -34 61 -73c0 -55 -26 -108 -112 -120l-4 13c75 10 90 59 87 102c-7 -14 -18 -21 -38 -21c-22 0 -49 7 -50 46c-1 38 22 53 56 53z" />
    <glyph glyph-name="lcommaaccent" unicode="&#x13c;" horiz-adv-x="264" 
d="M207 24h25v-25h-87c-31 0 -55 4 -55 44v792h-70v25c48 0 95 1 143 7v-787c0 -32 8 -56 44 -56zM146 -97c49 0 61 -34 61 -73c0 -55 -26 -108 -112 -120l-4 13c75 10 90 59 87 102c-7 -14 -18 -21 -38 -21c-22 0 -49 7 -50 46c-1 38 22 53 56 53z" />
    <glyph glyph-name="lslash" unicode="&#x142;" horiz-adv-x="263" 
d="M245 490l-82 -30v-379c0 -32 8 -56 44 -56h25v-25h-87c-31 0 -55 4 -55 44v389l-78 -28v25l78 28v378h-70v25c48 0 95 1 143 7v-383l82 30v-25z" />
    <glyph glyph-name="m" unicode="m" horiz-adv-x="862" 
d="M809 25h30v-25h-92c-31 0 -55 4 -55 44v319c0 51 -1 119 -86 119c-64 0 -138 -52 -138 -153v-304h90v-25h-233v25h70v338c0 51 -3 119 -95 119c-55 0 -129 -52 -129 -153v-304h70v-25h-213v25h70v450h-70v25c48 0 88 1 136 7l1 -76l1 -20c23 65 99 95 161 95
c87 0 127 -40 138 -95c26 64 101 95 160 95c116 0 140 -56 140 -137v-289c0 -32 8 -55 44 -55z" />
    <glyph glyph-name="n" unicode="n" horiz-adv-x="571" 
d="M518 25h30v-25h-92c-31 0 -55 4 -55 44v319c0 51 -3 119 -104 119c-67 0 -126 -52 -126 -153v-304h79v-25h-222v25h70v450h-70v25c48 0 89 1 137 7l1 -76v-19c23 60 83 94 158 94c114 0 150 -56 150 -137v-288c0 -32 8 -56 44 -56z" />
    <glyph glyph-name="nacute" unicode="&#x144;" horiz-adv-x="571" 
d="M320 714c-40 -42 -55 -68 -79 -100l-17 11c42 64 51 80 83 146c7 15 16 30 34 27c13 -2 20 -13 20 -24c0 -15 -14 -31 -41 -60zM518 25h30v-25h-92c-31 0 -55 4 -55 44v319c0 51 -3 119 -104 119c-67 0 -126 -52 -126 -153v-304h79v-25h-222v25h70v450h-70v25
c48 0 89 1 137 7l1 -76v-19c23 60 83 94 158 94c114 0 150 -56 150 -137v-288c0 -32 8 -56 44 -56z" />
    <glyph glyph-name="ncaron" unicode="&#x148;" horiz-adv-x="571" 
d="M280 606c-14 0 -27 12 -37 27c-39 58 -64 90 -111 146l12 9c53 -56 76 -79 136 -127c60 48 84 71 136 127l12 -9c-47 -56 -73 -88 -111 -146c-10 -15 -23 -27 -37 -27zM518 25h30v-25h-92c-31 0 -55 4 -55 44v319c0 51 -3 119 -104 119c-67 0 -126 -52 -126 -153v-304h79
v-25h-222v25h70v450h-70v25c48 0 89 1 137 7l1 -76v-19c23 60 83 94 158 94c114 0 150 -56 150 -137v-288c0 -32 8 -56 44 -56z" />
    <glyph glyph-name="ncommaaccent" unicode="&#x146;" horiz-adv-x="571" 
d="M518 25h30v-25h-92c-31 0 -55 4 -55 44v319c0 51 -3 119 -104 119c-67 0 -126 -52 -126 -153v-304h79v-25h-222v25h70v450h-70v25c48 0 89 1 137 7l1 -76v-19c23 60 83 94 158 94c114 0 150 -56 150 -137v-288c0 -32 8 -56 44 -56zM306 -97c49 0 61 -34 61 -73
c0 -55 -26 -108 -112 -120l-4 13c75 10 90 59 87 102c-7 -14 -18 -21 -38 -21c-22 0 -49 7 -50 46c-1 38 22 53 56 53z" />
    <glyph glyph-name="eng" unicode="&#x14b;" horiz-adv-x="610" 
d="M324 506c114 0 150 -56 150 -137v-496c0 -97 -37 -122 -137 -122c-24 0 -43 2 -56 4l1 25c13 -2 26 -4 43 -4c83 0 76 47 76 109v478c0 51 -3 119 -104 119c-67 0 -126 -52 -126 -153v-304h79v-25h-222v25h70v450h-70v25c48 0 89 1 137 7l1 -76v-19c23 60 83 94 158 94z
" />
    <glyph glyph-name="ntilde" unicode="&#xf1;" horiz-adv-x="571" 
d="M215 659c-22 1 -43 -15 -45 -38h-16c1 60 44 80 82 80c54 1 80 -46 124 -46c35 0 48 25 52 41h15c0 -31 -25 -80 -91 -79c-61 0 -76 41 -121 42zM518 25h30v-25h-92c-31 0 -55 4 -55 44v319c0 51 -3 119 -104 119c-67 0 -126 -52 -126 -153v-304h79v-25h-222v25h70v450
h-70v25c48 0 89 1 137 7l1 -76v-19c23 60 83 94 158 94c114 0 150 -56 150 -137v-288c0 -32 8 -56 44 -56z" />
    <glyph glyph-name="o" unicode="o" horiz-adv-x="534" 
d="M466 363c6 -34 8 -73 8 -113c0 -39 -2 -79 -8 -113c-14 -88 -56 -143 -199 -143s-185 55 -199 143c-5 34 -8 74 -8 113c0 40 3 79 8 113c14 88 58 143 199 143c139 0 184 -54 199 -143zM392 135c5 40 7 79 7 115s-2 75 -7 115c-7 61 -23 118 -125 118s-118 -57 -125 -118
c-4 -40 -7 -79 -7 -115s3 -75 7 -115c7 -61 23 -118 125 -118s118 57 125 118z" />
    <glyph glyph-name="oacute" unicode="&#xf3;" horiz-adv-x="534" 
d="M466 363c6 -34 8 -73 8 -113c0 -39 -2 -79 -8 -113c-14 -88 -56 -143 -199 -143s-185 55 -199 143c-5 34 -8 74 -8 113c0 40 3 79 8 113c14 88 58 143 199 143c139 0 184 -54 199 -143zM392 135c5 40 7 79 7 115s-2 75 -7 115c-7 61 -23 118 -125 118s-118 -57 -125 -118
c-4 -40 -7 -79 -7 -115s3 -75 7 -115c7 -61 23 -118 125 -118s118 57 125 118zM283 771c7 15 16 30 34 27c13 -2 20 -13 20 -24c0 -15 -14 -31 -41 -60c-40 -42 -55 -68 -79 -100l-17 11c42 64 51 80 83 146z" />
    <glyph glyph-name="ocircumflex" unicode="&#xf4;" horiz-adv-x="534" 
d="M466 363c6 -34 8 -73 8 -113c0 -39 -2 -79 -8 -113c-14 -88 -56 -143 -199 -143s-185 55 -199 143c-5 34 -8 74 -8 113c0 40 3 79 8 113c14 88 58 143 199 143c139 0 184 -54 199 -143zM392 135c5 40 7 79 7 115s-2 75 -7 115c-7 61 -23 118 -125 118s-118 -57 -125 -118
c-4 -40 -7 -79 -7 -115s3 -75 7 -115c7 -61 23 -118 125 -118s118 57 125 118zM299 768c32 -51 48 -74 101 -139l-13 -9c-25 27 -94 94 -118 109c-23 -15 -92 -82 -118 -109l-13 9c53 65 69 88 101 139c6 10 15 22 30 22c17 0 25 -15 30 -22z" />
    <glyph glyph-name="odieresis" unicode="&#xf6;" horiz-adv-x="534" 
d="M466 363c6 -34 8 -73 8 -113c0 -39 -2 -79 -8 -113c-14 -88 -56 -143 -199 -143s-185 55 -199 143c-5 34 -8 74 -8 113c0 40 3 79 8 113c14 88 58 143 199 143c139 0 184 -54 199 -143zM392 135c5 40 7 79 7 115s-2 75 -7 115c-7 61 -23 118 -125 118s-118 -57 -125 -118
c-4 -40 -7 -79 -7 -115s3 -75 7 -115c7 -61 23 -118 125 -118s118 57 125 118zM186 601c-34 0 -51 16 -51 54s17 55 51 55c33 0 50 -17 50 -55s-17 -54 -50 -54zM346 601c-34 0 -51 16 -51 54s17 55 51 55c33 0 50 -17 50 -55s-17 -54 -50 -54z" />
    <glyph glyph-name="ograve" unicode="&#xf2;" horiz-adv-x="534" 
d="M466 363c6 -34 8 -73 8 -113c0 -39 -2 -79 -8 -113c-14 -88 -56 -143 -199 -143s-185 55 -199 143c-5 34 -8 74 -8 113c0 40 3 79 8 113c14 88 58 143 199 143c139 0 184 -54 199 -143zM392 135c5 40 7 79 7 115s-2 75 -7 115c-7 61 -23 118 -125 118s-118 -57 -125 -118
c-4 -40 -7 -79 -7 -115s3 -75 7 -115c7 -61 23 -118 125 -118s118 57 125 118zM221 798c18 3 26 -12 34 -27c33 -66 39 -78 81 -148l-13 -7c-24 32 -41 56 -81 98c-27 29 -41 45 -41 60c0 11 7 22 20 24z" />
    <glyph glyph-name="ohungarumlaut" unicode="&#x151;" horiz-adv-x="534" 
d="M253 771c8 15 16 30 34 27c13 -2 20 -13 20 -24c0 -15 -14 -31 -41 -60c-40 -42 -57 -66 -81 -98l-13 7c42 70 46 83 81 148zM392 771c8 15 16 30 34 27c13 -2 20 -13 20 -24c0 -15 -14 -31 -41 -60c-40 -42 -57 -66 -81 -98l-13 7c42 70 46 83 81 148zM466 363
c6 -34 8 -73 8 -113c0 -39 -2 -79 -8 -113c-14 -88 -56 -143 -199 -143s-185 55 -199 143c-5 34 -8 74 -8 113c0 40 3 79 8 113c14 88 58 143 199 143c139 0 184 -54 199 -143zM392 135c5 40 7 79 7 115s-2 75 -7 115c-7 61 -23 118 -125 118s-118 -57 -125 -118
c-4 -40 -7 -79 -7 -115s3 -75 7 -115c7 -61 23 -118 125 -118s118 57 125 118z" />
    <glyph glyph-name="omacron" unicode="&#x14d;" horiz-adv-x="534" 
d="M408 646v-23h-278v23h278zM466 363c6 -34 8 -73 8 -113c0 -39 -2 -79 -8 -113c-14 -88 -56 -143 -199 -143s-185 55 -199 143c-5 34 -8 74 -8 113c0 40 3 79 8 113c14 88 58 143 199 143c139 0 184 -54 199 -143zM392 135c5 40 7 79 7 115s-2 75 -7 115
c-7 61 -23 118 -125 118s-118 -57 -125 -118c-4 -40 -7 -79 -7 -115s3 -75 7 -115c7 -61 23 -118 125 -118s118 57 125 118z" />
    <glyph glyph-name="oslash" unicode="&#xf8;" horiz-adv-x="533" 
d="M94 -14l-12 14l28 40c-24 24 -36 57 -42 97c-5 34 -8 74 -8 113c0 40 3 79 8 113c14 88 58 143 199 143c67 0 113 -13 143 -36l29 41l12 -11l-29 -41c24 -24 37 -57 44 -96c6 -34 8 -73 8 -113c0 -39 -2 -79 -8 -113c-14 -88 -56 -143 -199 -143c-68 0 -113 12 -143 35z
M142 135c1 -14 3 -27 7 -40l229 329c-14 34 -44 59 -111 59c-102 0 -118 -57 -125 -118c-4 -40 -7 -79 -7 -115s3 -75 7 -115zM392 135c5 40 7 79 7 115s-2 75 -7 115c-2 13 -4 27 -7 40l-229 -330c14 -34 44 -58 111 -58c102 0 118 57 125 118z" />
    <glyph glyph-name="otilde" unicode="&#xf5;" horiz-adv-x="534" 
d="M466 363c6 -34 8 -73 8 -113c0 -39 -2 -79 -8 -113c-14 -88 -56 -143 -199 -143s-185 55 -199 143c-5 34 -8 74 -8 113c0 40 3 79 8 113c14 88 58 143 199 143c139 0 184 -54 199 -143zM392 135c5 40 7 79 7 115s-2 75 -7 115c-7 61 -23 118 -125 118s-118 -57 -125 -118
c-4 -40 -7 -79 -7 -115s3 -75 7 -115c7 -61 23 -118 125 -118s118 57 125 118zM222 701c54 1 80 -46 124 -46c35 0 48 25 52 41h15c0 -31 -25 -80 -91 -79c-61 0 -76 41 -121 42c-22 1 -43 -15 -45 -38h-16c1 60 44 80 82 80z" />
    <glyph glyph-name="oe" unicode="&#x153;" horiz-adv-x="822" 
d="M764 344c2 -31 0 -66 0 -97h-301c0 -43 1 -67 3 -97c6 -84 30 -134 122 -134c76 0 111 24 111 115v26h59v-23c0 -72 -31 -141 -170 -141c-73 0 -129 13 -160 62c-25 -39 -71 -61 -162 -61c-143 0 -185 55 -199 143c-5 34 -8 74 -8 113c0 40 3 79 8 113
c14 88 58 143 199 143c90 0 137 -23 162 -63c32 51 88 64 156 64c90 0 171 -29 180 -163zM463 272h236c0 32 0 49 -1 75c-2 43 -7 137 -114 137c-83 0 -111 -50 -118 -134c-2 -28 -3 -48 -3 -78zM391 135c5 40 8 78 8 115c0 38 -3 75 -8 115c-7 56 -23 118 -125 118
s-118 -62 -125 -118c-5 -40 -6 -79 -6 -115s1 -75 6 -115c7 -56 23 -118 125 -118s118 62 125 118z" />
    <glyph glyph-name="p" unicode="p" horiz-adv-x="563" 
d="M492 364c7 -34 11 -76 11 -110c0 -47 -5 -92 -10 -118c-17 -89 -63 -143 -176 -143c-66 0 -124 15 -150 88v-321h-72v713h-70v25c48 0 89 1 137 7l2 -111c21 107 114 111 148 111c125 0 163 -54 180 -141zM173 155c9 -63 28 -139 137 -139c76 0 98 33 110 117
c7 48 7 101 7 121c0 29 -2 81 -8 121c-12 78 -39 107 -109 107c-99 0 -126 -64 -135 -129c-2 -14 -6 -54 -6 -99s2 -85 4 -99z" />
    <glyph glyph-name="thorn" unicode="&#xfe;" horiz-adv-x="610" 
d="M481 365c6 -34 10 -75 10 -115s-4 -80 -12 -113c-19 -77 -40 -143 -187 -143c-48 0 -121 17 -136 87v-350h-83v1104h-70v25c48 0 95 1 143 7v-48l2 -435c11 98 98 123 152 123c129 0 166 -58 181 -142zM406 144c8 41 10 72 10 110c0 35 -1 64 -7 103
c-8 50 -26 127 -109 127c-102 0 -133 -65 -139 -120c-5 -43 -6 -74 -6 -113c0 -36 2 -66 7 -106c8 -66 29 -128 130 -128c91 0 101 58 114 127z" />
    <glyph glyph-name="q" unicode="q" horiz-adv-x="549" 
d="M407 500h60v-740h-73l2 321c-29 -75 -84 -87 -151 -87c-113 0 -157 52 -174 141c-5 26 -11 74 -11 121c0 34 4 74 11 108c16 81 52 141 181 141c42 0 125 -7 147 -111zM389 155c2 14 5 54 5 99s-3 83 -5 97c-8 59 -31 131 -137 131c-70 0 -96 -30 -108 -107
c-6 -40 -8 -92 -8 -121c0 -20 0 -73 7 -121c12 -88 40 -117 109 -117c109 0 129 72 137 139z" />
    <glyph glyph-name="r" unicode="r" horiz-adv-x="419" 
d="M275 506c88 0 119 -25 119 -104v-55l-60 1v47c0 51 -5 88 -59 88c-71 0 -104 -46 -104 -176v-282h106v-25h-249v25h70v450h-70v25c42 0 83 4 125 10l3 -110c15 72 60 106 119 106z" />
    <glyph glyph-name="racute" unicode="&#x155;" horiz-adv-x="419" 
d="M249 714c-40 -42 -55 -68 -79 -100l-17 11c42 64 51 80 83 146c7 15 16 30 34 27c13 -2 20 -13 20 -24c0 -15 -14 -31 -41 -60zM275 506c88 0 119 -25 119 -104v-55l-60 1v47c0 51 -5 88 -59 88c-71 0 -104 -46 -104 -176v-282h106v-25h-249v25h70v450h-70v25
c42 0 83 4 125 10l3 -110c15 72 60 106 119 106z" />
    <glyph glyph-name="rcaron" unicode="&#x159;" horiz-adv-x="419" 
d="M209 606c-14 0 -27 12 -37 27c-39 58 -64 90 -111 146l12 9c53 -56 76 -79 136 -127c60 48 84 71 136 127l12 -9c-47 -56 -73 -88 -111 -146c-10 -15 -23 -27 -37 -27zM275 506c88 0 119 -25 119 -104v-55l-60 1v47c0 51 -5 88 -59 88c-71 0 -104 -46 -104 -176v-282h106
v-25h-249v25h70v450h-70v25c42 0 83 4 125 10l3 -110c15 72 60 106 119 106z" />
    <glyph glyph-name="rcommaaccent" unicode="&#x157;" horiz-adv-x="419" 
d="M275 506c88 0 119 -25 119 -104v-55l-60 1v47c0 51 -5 88 -59 88c-71 0 -104 -46 -104 -176v-282h106v-25h-249v25h70v450h-70v25c42 0 83 4 125 10l3 -110c15 72 60 106 119 106zM135 -97c49 0 61 -34 61 -73c0 -55 -26 -108 -112 -120l-4 13c75 10 90 59 87 102
c-7 -14 -18 -21 -38 -21c-22 0 -49 7 -50 46c-1 38 22 53 56 53z" />
    <glyph glyph-name="s" unicode="s" horiz-adv-x="455" 
d="M266 300c103 -28 139 -69 139 -159c0 -80 -44 -147 -175 -147c-159 0 -181 68 -181 141v23h68v-21c0 -94 38 -120 113 -120c80 0 122 32 122 110c0 43 -12 78 -129 110c-104 28 -158 50 -158 149c0 46 22 122 147 122c75 0 103 -38 114 -77l2 71h48v-134h-62
c0 65 -29 117 -101 117c-69 0 -98 -23 -98 -77c0 -77 69 -85 151 -108z" />
    <glyph glyph-name="sacute" unicode="&#x15b;" horiz-adv-x="455" 
d="M201 714c-40 -42 -55 -68 -79 -100l-17 11c42 64 51 80 83 146c7 15 16 30 34 27c13 -2 20 -13 20 -24c0 -15 -14 -31 -41 -60zM266 300c103 -28 139 -69 139 -159c0 -80 -44 -147 -175 -147c-159 0 -181 68 -181 141v23h68v-21c0 -94 38 -120 113 -120
c80 0 122 32 122 110c0 43 -12 78 -129 110c-104 28 -158 50 -158 149c0 46 22 122 147 122c75 0 103 -38 114 -77l2 71h48v-134h-62c0 65 -29 117 -101 117c-69 0 -98 -23 -98 -77c0 -77 69 -85 151 -108z" />
    <glyph glyph-name="scaron" unicode="&#x161;" horiz-adv-x="455" 
d="M200 606c-14 0 -27 12 -37 27c-39 58 -64 90 -111 146l12 9c53 -56 76 -79 136 -127c60 48 84 71 136 127l12 -9c-47 -56 -73 -88 -111 -146c-10 -15 -23 -27 -37 -27zM266 300c103 -28 139 -69 139 -159c0 -80 -44 -147 -175 -147c-159 0 -181 68 -181 141v23h68v-21
c0 -94 38 -120 113 -120c80 0 122 32 122 110c0 43 -12 78 -129 110c-104 28 -158 50 -158 149c0 46 22 122 147 122c75 0 103 -38 114 -77l2 71h48v-134h-62c0 65 -29 117 -101 117c-69 0 -98 -23 -98 -77c0 -77 69 -85 151 -108z" />
    <glyph glyph-name="scedilla" unicode="&#x15f;" horiz-adv-x="455" 
d="M405 141c0 -76 -39 -140 -155 -146l-21 -43c14 1 26 2 41 2c26 0 58 -20 58 -61c0 -67 -74 -81 -104 -81c-33 0 -58 9 -82 18l15 19c24 -11 41 -15 67 -15c17 0 59 12 59 55c0 37 -48 44 -99 37l35 68c-149 3 -170 70 -170 141v23h68v-21c0 -94 38 -120 113 -120
c80 0 122 32 122 110c0 43 -12 78 -129 110c-104 28 -158 50 -158 149c0 46 22 122 147 122c75 0 103 -38 114 -77l2 71h48v-134h-62c0 65 -29 117 -101 117c-69 0 -98 -23 -98 -77c0 -77 69 -85 151 -108c103 -28 139 -69 139 -159z" />
    <glyph glyph-name="germandbls" unicode="&#xdf;" horiz-adv-x="543" 
d="M390 363c55 -37 125 -56 125 -209c0 -106 -37 -164 -156 -164c-88 0 -137 42 -137 133h60c0 -80 23 -110 77 -110c78 0 84 54 84 143c0 101 -41 129 -84 155c-47 29 -98 56 -98 170c0 103 109 107 109 245c0 80 -24 123 -102 122c-41 -1 -97 -21 -97 -130v-718h-143v25
h70v450h-70v25h70v211c0 119 67 159 170 159c111 0 139 -65 139 -147c0 -130 -84 -142 -84 -223c0 -82 30 -113 67 -137z" />
    <glyph glyph-name="t" unicode="t" horiz-adv-x="370" 
d="M273 141h52v-42c0 -89 -52 -109 -116 -109c-119 0 -129 40 -129 146v339h-70v25h70v187c24 0 49 1 73 7v-194h132v-25h-132v-332c0 -72 -4 -130 62 -130c41 0 58 37 58 104v24z" />
    <glyph glyph-name="tbar" unicode="&#x167;" horiz-adv-x="370" 
d="M273 141h52v-42c0 -89 -52 -109 -116 -109c-119 0 -129 40 -129 146v230h-100v25h100v84h-70v25h70v187c24 0 49 1 73 7v-194h132v-25h-132v-84h157v-25h-157v-223c0 -72 -4 -130 62 -130c41 0 58 37 58 104v24z" />
    <glyph glyph-name="tcaron" unicode="&#x165;" horiz-adv-x="386" 
d="M304 856c14 7 28 1 34 -11c8 -14 0 -31 -25 -76c-28 -53 -43 -79 -60 -116h-20l50 171c5 18 14 28 21 32zM273 141h52v-42c0 -89 -52 -109 -116 -109c-119 0 -129 40 -129 146v339h-70v25h70v187c24 0 49 1 73 7v-194h132v-25h-132v-332c0 -72 -4 -130 62 -130
c41 0 58 37 58 104v24z" />
    <glyph glyph-name="uni0163" unicode="&#x163;" horiz-adv-x="370" 
d="M273 141h52v-42c0 -89 -52 -109 -116 -109h-12l-22 -43c14 1 26 2 41 2c26 0 58 -20 58 -61c0 -67 -74 -81 -104 -81c-33 0 -58 9 -82 18l15 19c24 -11 41 -15 67 -15c17 0 59 12 59 55c0 37 -48 44 -99 37l36 71c-79 10 -86 52 -86 144v339h-70v25h70v187
c24 0 49 1 73 7v-194h132v-25h-132v-332c0 -72 -4 -130 62 -130c41 0 58 37 58 104v24z" />
    <glyph glyph-name="u" unicode="u" horiz-adv-x="575" 
d="M509 25h26v-25h-77c-63 0 -66 13 -64 86c-21 -58 -69 -92 -158 -92c-98 0 -143 42 -143 147v334h-70v25c48 0 95 1 143 7v-369c0 -51 8 -120 102 -120c69 0 124 63 124 167v290h-70v25c48 0 95 1 143 7v-436c0 -39 8 -46 44 -46z" />
    <glyph glyph-name="uacute" unicode="&#xfa;" horiz-adv-x="575" 
d="M312 714c-40 -42 -55 -68 -79 -100l-17 11c42 64 51 80 83 146c7 15 16 30 34 27c13 -2 20 -13 20 -24c0 -15 -14 -31 -41 -60zM509 25h26v-25h-77c-63 0 -66 13 -64 86c-21 -58 -69 -92 -158 -92c-98 0 -143 42 -143 147v334h-70v25c48 0 95 1 143 7v-369
c0 -51 8 -120 102 -120c69 0 124 63 124 167v290h-70v25c48 0 95 1 143 7v-436c0 -39 8 -46 44 -46z" />
    <glyph glyph-name="ucircumflex" unicode="&#xfb;" horiz-adv-x="575" 
d="M275 729c-23 -15 -92 -82 -118 -109l-13 9c53 65 69 88 101 139c6 10 15 22 30 22c17 0 25 -15 30 -22c32 -51 48 -74 101 -139l-13 -9c-25 27 -94 94 -118 109zM509 25h26v-25h-77c-63 0 -66 13 -64 86c-21 -58 -69 -92 -158 -92c-98 0 -143 42 -143 147v334h-70v25
c48 0 95 1 143 7v-369c0 -51 8 -120 102 -120c69 0 124 63 124 167v290h-70v25c48 0 95 1 143 7v-436c0 -39 8 -46 44 -46z" />
    <glyph glyph-name="udieresis" unicode="&#xfc;" horiz-adv-x="575" 
d="M192 601c-34 0 -51 16 -51 54s17 55 51 55c33 0 50 -17 50 -55s-17 -54 -50 -54zM352 601c-34 0 -51 16 -51 54s17 55 51 55c33 0 50 -17 50 -55s-17 -54 -50 -54zM509 25h26v-25h-77c-63 0 -66 13 -64 86c-21 -58 -69 -92 -158 -92c-98 0 -143 42 -143 147v334h-70v25
c48 0 95 1 143 7v-369c0 -51 8 -120 102 -120c69 0 124 63 124 167v290h-70v25c48 0 95 1 143 7v-436c0 -39 8 -46 44 -46z" />
    <glyph glyph-name="ugrave" unicode="&#xf9;" horiz-adv-x="575" 
d="M342 623l-13 -7c-24 32 -41 56 -81 98c-27 29 -41 45 -41 60c0 11 7 22 20 24c18 3 26 -12 34 -27c33 -66 39 -78 81 -148zM509 25h26v-25h-77c-63 0 -66 13 -64 86c-21 -58 -69 -92 -158 -92c-98 0 -143 42 -143 147v334h-70v25c48 0 95 1 143 7v-369
c0 -51 8 -120 102 -120c69 0 124 63 124 167v290h-70v25c48 0 95 1 143 7v-436c0 -39 8 -46 44 -46z" />
    <glyph glyph-name="uhungarumlaut" unicode="&#x171;" horiz-adv-x="575" 
d="M272 714c-40 -42 -57 -66 -81 -98l-13 7c42 70 46 83 81 148c8 15 16 30 34 27c13 -2 20 -13 20 -24c0 -15 -14 -31 -41 -60zM411 714c-40 -42 -57 -66 -81 -98l-13 7c42 70 46 83 81 148c8 15 16 30 34 27c13 -2 20 -13 20 -24c0 -15 -14 -31 -41 -60zM509 25h26v-25
h-77c-63 0 -66 13 -64 86c-21 -58 -69 -92 -158 -92c-98 0 -143 42 -143 147v334h-70v25c48 0 95 1 143 7v-369c0 -51 8 -120 102 -120c69 0 124 63 124 167v290h-70v25c48 0 95 1 143 7v-436c0 -39 8 -46 44 -46z" />
    <glyph glyph-name="umacron" unicode="&#x16b;" horiz-adv-x="575" 
d="M414 646v-23h-278v23h278zM509 25h26v-25h-77c-63 0 -66 13 -64 86c-21 -58 -69 -92 -158 -92c-98 0 -143 42 -143 147v334h-70v25c48 0 95 1 143 7v-369c0 -51 8 -120 102 -120c69 0 124 63 124 167v290h-70v25c48 0 95 1 143 7v-436c0 -39 8 -46 44 -46z" />
    <glyph glyph-name="uogonek" unicode="&#x173;" horiz-adv-x="558" 
d="M540 -133l7 -9c-34 -30 -62 -48 -102 -48c-57 0 -87 28 -87 74c0 56 43 93 87 116c-50 2 -53 18 -51 86c-21 -58 -69 -92 -158 -92c-98 0 -143 42 -143 147v334h-70v25c48 0 95 1 143 7v-369c0 -51 8 -120 102 -120c69 0 124 63 124 167v290h-70v25c48 0 95 1 143 7v-436
c0 -39 8 -46 44 -46h26v-25h-69c-43 -33 -59 -71 -59 -103c0 -41 26 -58 64 -58c35 0 52 14 69 28z" />
    <glyph glyph-name="uring" unicode="&#x16f;" horiz-adv-x="575" 
d="M275 609c-73 0 -104 35 -104 88c-1 56 33 89 105 89s103 -36 103 -89c-1 -54 -34 -88 -104 -88zM205 697c-1 -44 18 -71 72 -71c50 0 67 29 68 72c0 44 -21 70 -69 70c-54 0 -71 -27 -71 -71zM509 25h26v-25h-77c-63 0 -66 13 -64 86c-21 -58 -69 -92 -158 -92
c-98 0 -143 42 -143 147v334h-70v25c48 0 95 1 143 7v-369c0 -51 8 -120 102 -120c69 0 124 63 124 167v290h-70v25c48 0 95 1 143 7v-436c0 -39 8 -46 44 -46z" />
    <glyph glyph-name="v" unicode="v" horiz-adv-x="503" 
d="M488 500v-25h-61l-137 -475h-73l-142 475h-60v25h211v-25h-75l125 -426l121 426h-72v25h163z" />
    <glyph glyph-name="w" unicode="w" horiz-adv-x="698" 
d="M693 500v-25h-43l-128 -475h-77l-95 348l-94 -348h-75l-131 475h-45v25h201v-25h-84l117 -423l97 348l-20 75h-53v25h212v-25h-86l116 -424l116 424h-61v25h133z" />
    <glyph glyph-name="wacute" unicode="&#x1e83;" horiz-adv-x="698" 
d="M384 714c-40 -42 -55 -68 -79 -100l-17 11c42 64 51 80 83 146c7 15 16 30 34 27c13 -2 20 -13 20 -24c0 -15 -14 -31 -41 -60zM693 500v-25h-43l-128 -475h-77l-95 348l-94 -348h-75l-131 475h-45v25h201v-25h-84l117 -423l97 348l-20 75h-53v25h212v-25h-86l116 -424
l116 424h-61v25h133z" />
    <glyph glyph-name="wcircumflex" unicode="&#x175;" horiz-adv-x="698" 
d="M347 729c-23 -15 -92 -82 -118 -109l-13 9c53 65 69 88 101 139c6 10 15 22 30 22c17 0 25 -15 30 -22c32 -51 48 -74 101 -139l-13 -9c-25 27 -94 94 -118 109zM693 500v-25h-43l-128 -475h-77l-95 348l-94 -348h-75l-131 475h-45v25h201v-25h-84l117 -423l97 348
l-20 75h-53v25h212v-25h-86l116 -424l116 424h-61v25h133z" />
    <glyph glyph-name="wdieresis" unicode="&#x1e85;" horiz-adv-x="698" 
d="M264 601c-34 0 -51 16 -51 54s17 55 51 55c33 0 50 -17 50 -55s-17 -54 -50 -54zM424 601c-34 0 -51 16 -51 54s17 55 51 55c33 0 50 -17 50 -55s-17 -54 -50 -54zM693 500v-25h-43l-128 -475h-77l-95 348l-94 -348h-75l-131 475h-45v25h201v-25h-84l117 -423l97 348
l-20 75h-53v25h212v-25h-86l116 -424l116 424h-61v25h133z" />
    <glyph glyph-name="wgrave" unicode="&#x1e81;" horiz-adv-x="698" 
d="M414 623l-13 -7c-24 32 -41 56 -81 98c-27 29 -41 45 -41 60c0 11 7 22 20 24c18 3 26 -12 34 -27c33 -66 39 -78 81 -148zM693 500v-25h-43l-128 -475h-77l-95 348l-94 -348h-75l-131 475h-45v25h201v-25h-84l117 -423l97 348l-20 75h-53v25h212v-25h-86l116 -424
l116 424h-61v25h133z" />
    <glyph glyph-name="x" unicode="x" horiz-adv-x="515" 
d="M445 25h65v-25h-194v25h45l-130 209l-131 -209h74v-25h-169v25h62l147 236l-135 217h-66v22h217v-22h-65l105 -170l107 170h-54v22h170v-22h-83l-123 -197z" />
    <glyph glyph-name="y" unicode="y" horiz-adv-x="543" 
d="M323 475v25c48 0 90 1 138 7v-76l-1 -471c0 -155 -47 -210 -199 -210c-162 0 -185 68 -185 141v23h67v-16c0 -97 33 -125 117 -125c120 0 132 68 132 184v147c-24 -92 -112 -104 -156 -104c-121 0 -148 69 -148 145v330h-65v25c48 0 90 1 138 7v-365
c0 -52 10 -118 90 -118c98 0 136 78 136 206v245h-64z" />
    <glyph glyph-name="yacute" unicode="&#xfd;" horiz-adv-x="543" 
d="M306 714c-40 -42 -55 -68 -79 -100l-17 11c42 64 51 80 83 146c7 15 16 30 34 27c13 -2 20 -13 20 -24c0 -15 -14 -31 -41 -60zM323 475v25c48 0 90 1 138 7v-76l-1 -471c0 -155 -47 -210 -199 -210c-162 0 -185 68 -185 141v23h67v-16c0 -97 33 -125 117 -125
c120 0 132 68 132 184v147c-24 -92 -112 -104 -156 -104c-121 0 -148 69 -148 145v330h-65v25c48 0 90 1 138 7v-365c0 -52 10 -118 90 -118c98 0 136 78 136 206v245h-64z" />
    <glyph glyph-name="ycircumflex" unicode="&#x177;" horiz-adv-x="543" 
d="M269 729c-23 -15 -92 -82 -118 -109l-13 9c53 65 69 88 101 139c6 10 15 22 30 22c17 0 25 -15 30 -22c32 -51 48 -74 101 -139l-13 -9c-25 27 -94 94 -118 109zM323 475v25c48 0 90 1 138 7v-76l-1 -471c0 -155 -47 -210 -199 -210c-162 0 -185 68 -185 141v23h67v-16
c0 -97 33 -125 117 -125c120 0 132 68 132 184v147c-24 -92 -112 -104 -156 -104c-121 0 -148 69 -148 145v330h-65v25c48 0 90 1 138 7v-365c0 -52 10 -118 90 -118c98 0 136 78 136 206v245h-64z" />
    <glyph glyph-name="ydieresis" unicode="&#xff;" horiz-adv-x="543" 
d="M186 601c-34 0 -51 16 -51 54s17 55 51 55c33 0 50 -17 50 -55s-17 -54 -50 -54zM346 601c-34 0 -51 16 -51 54s17 55 51 55c33 0 50 -17 50 -55s-17 -54 -50 -54zM323 475v25c48 0 90 1 138 7v-76l-1 -471c0 -155 -47 -210 -199 -210c-162 0 -185 68 -185 141v23h67v-16
c0 -97 33 -125 117 -125c120 0 132 68 132 184v147c-24 -92 -112 -104 -156 -104c-121 0 -148 69 -148 145v330h-65v25c48 0 90 1 138 7v-365c0 -52 10 -118 90 -118c98 0 136 78 136 206v245h-64z" />
    <glyph glyph-name="ygrave" unicode="&#x1ef3;" horiz-adv-x="543" 
d="M336 623l-13 -7c-24 32 -41 56 -81 98c-27 29 -41 45 -41 60c0 11 7 22 20 24c18 3 26 -12 34 -27c33 -66 39 -78 81 -148zM323 475v25c48 0 90 1 138 7v-76l-1 -471c0 -155 -47 -210 -199 -210c-162 0 -185 68 -185 141v23h67v-16c0 -97 33 -125 117 -125
c120 0 132 68 132 184v147c-24 -92 -112 -104 -156 -104c-121 0 -148 69 -148 145v330h-65v25c48 0 90 1 138 7v-365c0 -52 10 -118 90 -118c98 0 136 78 136 206v245h-64z" />
    <glyph glyph-name="z" unicode="z" horiz-adv-x="469" 
d="M364 151h54v-151h-356v30l270 444h-217v-124h-54v150h351v-32l-270 -442h222v125z" />
    <glyph glyph-name="zacute" unicode="&#x17a;" horiz-adv-x="469" 
d="M275 714c-40 -42 -55 -68 -79 -100l-17 11c42 64 51 80 83 146c7 15 16 30 34 27c13 -2 20 -13 20 -24c0 -15 -14 -31 -41 -60zM364 151h54v-151h-356v30l270 444h-217v-124h-54v150h351v-32l-270 -442h222v125z" />
    <glyph glyph-name="zcaron" unicode="&#x17e;" horiz-adv-x="469" 
d="M235 606c-14 0 -27 12 -37 27c-39 58 -64 90 -111 146l12 9c53 -56 76 -79 136 -127c60 48 84 71 136 127l12 -9c-47 -56 -73 -88 -111 -146c-10 -15 -23 -27 -37 -27zM364 151h54v-151h-356v30l270 444h-217v-124h-54v150h351v-32l-270 -442h222v125z" />
    <glyph glyph-name="zdotaccent" unicode="&#x17c;" horiz-adv-x="469" 
d="M238 601c-38 0 -55 16 -55 54s17 55 55 55c37 0 54 -17 54 -55s-17 -54 -54 -54zM364 151h54v-151h-356v30l270 444h-217v-124h-54v150h351v-32l-270 -442h222v125z" />
    <glyph glyph-name="uni0410" unicode="&#x410;" horiz-adv-x="635" 
d="M567 25h63v-25h-255v25h105l-61 267h-247l-67 -267h90v-25h-190v25h62l209 838h91zM180 322h232l-110 479h-3z" />
    <glyph glyph-name="uni0411" unicode="&#x411;" horiz-adv-x="635" 
d="M212 511h131c204 1 217 -71 217 -286c0 -234 -98 -225 -264 -225h-245v25h78v810h-78v25h494l1 -231h-65v206h-269v-324zM212 25h108c132 0 153 44 153 212c0 197 -12 249 -140 249h-121v-461z" />
    <glyph glyph-name="uni0412" unicode="&#x412;" horiz-adv-x="636" 
d="M51 860h287c195 0 214 -71 214 -210c0 -85 -20 -169 -131 -184c122 -16 144 -66 144 -216c0 -158 -13 -250 -217 -250h-297v25h78v810h-78v25zM212 472h113c117 0 141 56 141 178c0 111 0 185 -148 185h-106v-363zM212 25h126c128 0 140 65 140 225
c0 141 -14 197 -153 197h-113v-422z" />
    <glyph glyph-name="uni0413" unicode="&#x413;" horiz-adv-x="563" 
d="M547 860l1 -231l-65 -1v207h-271v-810h88v-25h-249v25h78v810h-78v25h496z" />
    <glyph glyph-name="uni0403" unicode="&#x403;" horiz-adv-x="563" 
d="M456 1160c24 -2 37 -17 37 -37c0 -27 -28 -43 -86 -76c-51 -29 -103 -59 -153 -94l-12 13c58 52 111 109 165 166c19 20 37 29 49 28zM547 860l1 -231l-65 -1v207h-271v-810h88v-25h-249v25h78v810h-78v25h496z" />
    <glyph glyph-name="uni0490" unicode="&#x490;" horiz-adv-x="553" 
d="M547 835h-335v-810h88v-25h-249v25h78v810h-78v25h432v171l65 -1z" />
    <glyph glyph-name="uni0414" unicode="&#x414;" horiz-adv-x="712" 
d="M707 25v-226h-62l-5 201h-571l-4 -201h-60v226h96l226 835h84l187 -835h109zM511 25l-163 763h-2l-205 -763h370z" />
    <glyph glyph-name="uni0415" unicode="&#x415;" horiz-adv-x="638" 
d="M421 433h-209v-408h280v174h65v-199h-506v25h78v810h-78v25h502v-196h-65v171h-276v-372h209v92h43v-224h-43v102z" />
    <glyph glyph-name="uni0400" unicode="&#x400;" horiz-adv-x="638" 
d="M234 1160c12 1 30 -8 49 -28c53 -58 107 -114 165 -166l-12 -13c-50 35 -102 64 -153 93c-58 33 -86 50 -86 77c0 20 13 37 37 37zM421 433h-209v-408h280v174h65v-199h-506v25h78v810h-78v25h502v-196h-65v171h-276v-372h209v92h43v-224h-43v102z" />
    <glyph glyph-name="uni0401" unicode="&#x401;" horiz-adv-x="638" 
d="M242 961c-34 0 -51 16 -51 54s17 55 51 55c33 0 50 -17 50 -55s-17 -54 -50 -54zM402 961c-34 0 -51 16 -51 54s17 55 51 55c33 0 50 -17 50 -55s-17 -54 -50 -54zM421 433h-209v-408h280v174h65v-199h-506v25h78v810h-78v25h502v-196h-65v171h-276v-372h209v92h43v-224
h-43v102z" />
    <glyph glyph-name="uni0416" unicode="&#x416;" horiz-adv-x="982" 
d="M942 24h35v-24h-61c-110 0 -136 -10 -146 141l-13 169c-6 83 -44 125 -149 125h-79v-410h108v-25h-293v25h108v410h-78c-105 0 -143 -42 -149 -125l-13 -169c-12 -151 -36 -141 -146 -141h-61v24h35c69 0 79 38 85 113l12 154c10 128 104 152 169 157l-1 1
c-94 14 -122 63 -143 237l-20 149h-87v25h234v-25h-72l18 -141c22 -177 33 -234 142 -234h75v375h-100v25h277v-25h-100v-375h76c109 0 120 57 142 234l18 141h-72v25h234v-25h-87l-20 -149c-21 -174 -49 -223 -143 -237l-1 -1c65 -5 159 -29 169 -157l12 -154
c6 -75 16 -113 85 -113z" />
    <glyph glyph-name="uni0417" unicode="&#x417;" horiz-adv-x="580" 
d="M484 649c0 -119 -29 -189 -129 -207c124 -18 140 -93 140 -224c0 -168 -66 -228 -244 -227c-180 1 -197 121 -198 211v40h71v-39c0 -111 13 -189 128 -189c141 0 156 71 156 214c0 141 -20 204 -130 204h-77v25h77c104 0 120 82 120 201c0 127 -18 185 -121 185
c-100 0 -133 -64 -140 -199h-64v223h53l7 -96c21 96 120 99 142 99c164 0 209 -56 209 -221z" />
    <glyph glyph-name="uni0418" unicode="&#x418;" horiz-adv-x="744" 
d="M121 835h-70v25h232v-25h-79v-750h3l294 775h192v-25h-79v-810h79v-25h-240v25h78v803h-2l-314 -828h-94v835z" />
    <glyph glyph-name="uni0419" unicode="&#x419;" horiz-adv-x="744" 
d="M369 926c-51 -1 -107 29 -107 73c0 31 23 50 47 50c27 0 47 -17 47 -45c0 -25 -18 -42 -41 -45c15 -10 34 -17 55 -17c62 0 107 44 109 95h18c-2 -53 -47 -109 -128 -111zM693 835h-79v-810h79v-25h-240v25h78v803h-2l-314 -828h-94v835h-70v25h232v-25h-79v-750h3
l294 775h192v-25z" />
    <glyph glyph-name="uni040D" unicode="&#x40d;" horiz-adv-x="744" 
d="M280 1160c12 1 30 -8 49 -28c53 -58 107 -114 165 -166l-12 -13c-50 35 -102 64 -153 93c-58 33 -86 50 -86 77c0 20 13 37 37 37zM121 835h-70v25h232v-25h-79v-750h3l294 775h192v-25h-79v-810h79v-25h-240v25h78v803h-2l-314 -828h-94v835z" />
    <glyph glyph-name="uni041A" unicode="&#x41a;" horiz-adv-x="678" 
d="M638 25h35v-25h-61c-109 0 -135 -10 -146 141l-12 170c-6 81 -45 122 -164 122h-78v-408h108v-25h-269v25h78v810h-78v25h255v-25h-94v-372h76c123 0 138 58 158 231l16 141h-68v25h230v-25h-86l-19 -149c-20 -174 -51 -222 -146 -237c65 -5 158 -29 168 -158l13 -154
c7 -84 15 -112 84 -112z" />
    <glyph glyph-name="uni040C" unicode="&#x40c;" horiz-adv-x="678" 
d="M442 1160c24 -2 37 -17 37 -37c0 -27 -28 -43 -86 -76c-51 -29 -103 -59 -153 -94l-12 13c58 52 111 109 165 166c19 20 37 29 49 28zM638 25h35v-25h-61c-109 0 -135 -10 -146 141l-12 170c-6 81 -45 122 -164 122h-78v-408h108v-25h-269v25h78v810h-78v25h255v-25h-94
v-372h76c123 0 138 58 158 231l16 141h-68v25h230v-25h-86l-19 -149c-20 -174 -51 -222 -146 -237c65 -5 158 -29 168 -158l13 -154c7 -84 15 -112 84 -112z" />
    <glyph glyph-name="uni041B" unicode="&#x41b;" horiz-adv-x="621" 
d="M555 25h61v-25h-255v25h106l-168 763h-3l-195 -763h84v-25h-180v25h56l216 835h85z" />
    <glyph glyph-name="uni041C" unicode="&#x41c;" horiz-adv-x="902" 
d="M773 25h78v-25h-239v25h78v801h-4l-220 -826h-79l-214 826h-6v-801h88v-25h-204v25h78v810h-78v25h196l200 -776h3l205 776h196v-25h-78v-810z" />
    <glyph glyph-name="uni041D" unicode="&#x41d;" horiz-adv-x="741" 
d="M690 835h-78v-810h78v-25h-239v25h78v401h-317v-401h78v-25h-239v25h78v810h-78v25h239v-25h-78v-375h317v375h-78v25h239v-25z" />
    <glyph glyph-name="uni041E" unicode="&#x41e;" horiz-adv-x="692" 
d="M346 -11c-134 0 -204 36 -237 173c-17 70 -26 166 -25 268c-1 102 8 197 25 267c34 137 103 173 237 173s203 -36 237 -173c15 -71 24 -165 24 -267s-7 -198 -24 -268c-33 -137 -103 -173 -237 -173zM346 16c93 0 137 22 157 152c11 70 15 167 15 262s-4 191 -15 261
c-20 130 -64 152 -157 152s-137 -22 -157 -152c-11 -70 -15 -166 -15 -261s4 -192 15 -262c20 -130 64 -152 157 -152z" />
    <glyph glyph-name="uni041F" unicode="&#x41f;" horiz-adv-x="732" 
d="M602 835v-810h79v-25h-240v25h78v810h-307v-810h79v-25h-240v25h78v810h-78v25h630v-25h-79z" />
    <glyph glyph-name="uni0420" unicode="&#x420;" horiz-adv-x="634" 
d="M51 860h244c166 0 264 23 264 -220c0 -204 -13 -263 -217 -262h-130v-353h120v-25h-281v25h78v810h-78v25zM212 403h120c128 0 140 45 140 237c0 168 -21 195 -153 195h-108z" />
    <glyph glyph-name="uni0421" unicode="&#x421;" horiz-adv-x="617" 
d="M485 240h80v-40c0 -88 -30 -210 -214 -210c-110 0 -197 5 -241 173c-17 66 -25 160 -25 255c0 102 9 205 24 272c31 138 93 179 227 179c93 0 141 -33 159 -92l5 88h56v-223h-65c-4 146 -39 197 -156 197c-100 0 -130 -35 -148 -156c-8 -57 -15 -173 -15 -287
c0 -90 4 -178 15 -235c26 -131 69 -141 164 -141c126 0 134 57 134 180v40z" />
    <glyph glyph-name="uni0422" unicode="&#x422;" horiz-adv-x="591" 
d="M511 662v173h-174v-810h142v-25h-367v25h142v810h-174v-173h-65v198h561v-198h-65z" />
    <glyph glyph-name="uni0423" unicode="&#x423;" horiz-adv-x="640" 
d="M549 860l-1 -646c0 -162 -75 -221 -230 -221c-171 0 -204 90 -205 171v29h68v-27c0 -98 26 -146 138 -146c164 0 150 129 151 239l1 171h-1c-24 -82 -71 -115 -172 -115c-139 0 -186 78 -186 168v352h-77v25h160v-346c0 -58 7 -171 116 -171c117 0 155 78 155 204v288
h-81v25h164z" />
    <glyph glyph-name="uni0424" unicode="&#x424;" horiz-adv-x="911" 
d="M807 677c13 -57 19 -184 19 -270c-2 -90 -7 -179 -20 -222c-45 -152 -133 -181 -312 -184v-122h79v-25h-234v25h78v122c-188 4 -269 36 -312 184c-13 47 -19 149 -20 246c0 75 7 198 19 246c32 120 88 178 313 184v95h-78v25h234v-25h-79v-95c177 -4 279 -37 313 -184z
M184 187c17 -102 64 -152 233 -158v805c-178 -5 -211 -42 -233 -152c-11 -56 -15 -231 -15 -243c1 -95 5 -190 15 -252zM727 187c10 59 13 148 15 238c0 90 -3 198 -15 257c-22 111 -55 147 -233 152v-805c169 6 216 56 233 158z" />
    <glyph glyph-name="uni0425" unicode="&#x425;" horiz-adv-x="671" 
d="M581 25h85v-25h-274v25h99l-182 369l-189 -369h96v-25h-211v25h73l211 410l-198 400h-79v25h291v-25h-122l159 -323l165 323h-80v25h203v-25h-82l-186 -363z" />
    <glyph glyph-name="uni0427" unicode="&#x427;" horiz-adv-x="649" 
d="M598 835h-78v-810h78v-25h-269v25h108v384c-21 -16 -84 -47 -161 -47c-106 0 -192 42 -192 201l-1 272h-78v25h236v-25h-75l1 -287c0 -113 35 -159 113 -159c88 0 127 29 157 58v388h-100v25h261v-25z" />
    <glyph glyph-name="uni0426" unicode="&#x426;" horiz-adv-x="762" 
d="M711 25v-226l-58 -1l-6 202h-596v25h78v810h-78v25h240v-25h-79v-810h307v810h-78v25h240v-25h-79v-810h109z" />
    <glyph glyph-name="uni0428" unicode="&#x428;" horiz-adv-x="1040" 
d="M910 835v-810h79v-25h-938v25h78v810h-78v25h240v-25h-79v-810h266v810h-78v25h240v-25h-79v-810h266v810h-78v25h240v-25h-79z" />
    <glyph glyph-name="uni0429" unicode="&#x429;" horiz-adv-x="1067" 
d="M1018 25v-226l-58 -1l-6 202h-903v25h78v810h-78v25h240v-25h-79v-810h266v810h-78v25h240v-25h-79v-810h266v810h-78v25h240v-25h-79v-810h108z" />
    <glyph glyph-name="uni040F" unicode="&#x40f;" horiz-adv-x="772" 
d="M720 25v-25h-303v-202h-71v202h-295v25h78v810h-78v25h240v-25h-79v-810h317v810h-78v25h240v-25h-79v-810h108z" />
    <glyph glyph-name="uni042C" unicode="&#x42c;" horiz-adv-x="645" 
d="M212 511h131c204 1 217 -71 217 -286c0 -234 -98 -225 -264 -225h-245v25h78v810h-78v25h253v-25h-92v-324zM212 25h108c132 0 153 44 153 212c0 187 -12 249 -140 249h-121v-461z" />
    <glyph glyph-name="uni042A" unicode="&#x42a;" horiz-adv-x="739" 
d="M306 511h131c204 1 217 -71 217 -286c0 -234 -98 -225 -264 -225h-245v25h78v810h-144l1 -190l-65 -1v216h384v-25h-93v-324zM306 25h108c132 0 153 54 153 212c0 187 -12 249 -140 249h-121v-461z" />
    <glyph glyph-name="uni042B" unicode="&#x42b;" horiz-adv-x="856" 
d="M212 511h131c204 1 217 -71 217 -286c0 -234 -98 -225 -264 -225h-245v25h78v810h-78v25h253v-25h-92v-324zM814 835h-79v-810h79v-25h-240v25h78v810h-78v25h240v-25zM212 25h108c132 0 153 44 153 212c0 187 -12 249 -140 249h-121v-461z" />
    <glyph glyph-name="uni0409" unicode="&#x409;" horiz-adv-x="996" 
d="M556 510h138c204 1 217 -71 217 -286c0 -234 -98 -225 -264 -225l-243 1v25h76v769l-4 2l-373 -771h87v-25h-185v25h56l406 835h180v-25h-91v-325zM557 25l114 -1c132 -1 153 54 153 212c0 187 -12 249 -140 249h-128z" />
    <glyph glyph-name="uni040A" unicode="&#x40a;" horiz-adv-x="1038" 
d="M605 510h131c204 1 217 -71 217 -286c0 -234 -98 -224 -264 -224h-238v25h78v406h-317v-406h78v-25h-239v25h78v810h-78v25h239v-25h-78v-370h317v370h-78v25h247v-25h-93v-325zM605 25h108c132 0 153 43 153 211c0 187 -12 249 -140 249h-121v-460z" />
    <glyph glyph-name="uni042D" unicode="&#x42d;" horiz-adv-x="652" 
d="M543 697c15 -67 24 -172 24 -276c0 -96 -8 -192 -25 -258c-44 -168 -132 -173 -253 -173c-186 0 -204 122 -204 210v40h65v-43c0 -100 13 -176 139 -180c95 -3 150 16 176 141c12 56 15 147 15 238v33c-11 10 -26 21 -50 21c-60 0 -83 -55 -147 -55c-62 0 -86 28 -114 68
l15 13c17 -21 39 -29 54 -29c55 0 100 48 165 48c43 0 63 -16 76 -32c-1 97 -7 188 -14 235c-18 115 -48 144 -148 144c-119 0 -151 -56 -156 -200h-65v223h56l6 -103c11 66 54 107 158 107c134 0 196 -34 227 -172z" />
    <glyph glyph-name="uni0408" unicode="&#x408;" horiz-adv-x="486" 
d="M173 860h292v-25h-79v-692c0 -113 -89 -152 -186 -152c-67 0 -179 16 -179 123l-1 54l71 1l1 -59c1 -74 60 -89 107 -89c35 0 104 10 104 104v710h-130v25z" />
    <glyph glyph-name="uni040B" unicode="&#x40b;" horiz-adv-x="864" 
d="M773 25h28v-25h-88c-37 0 -67 2 -67 59v273c0 67 -5 146 -117 146c-64 0 -160 -49 -160 -150v-303l117 -1v-25l-342 1v25h142v810h-174v-175h-65v200h561v-200h-65v175h-174v-431c28 66 115 103 190 103c145 0 170 -56 170 -138l1 -296c0 -28 11 -48 43 -48z" />
    <glyph glyph-name="uni042E" unicode="&#x42e;" horiz-adv-x="967" 
d="M859 697c15 -68 23 -170 23 -271c0 -100 -8 -199 -24 -263c-46 -167 -136 -174 -236 -174s-190 7 -236 174c-17 65 -24 158 -24 276h-151v-414h79v-25h-239v25h78v810h-78v25h239v-25h-79v-371h151c2 89 10 174 23 233c34 137 103 173 237 173s203 -36 237 -173zM779 170
c9 68 15 165 15 269c0 94 -5 182 -15 251c-20 133 -64 153 -157 153s-137 -20 -157 -153c-10 -69 -15 -157 -15 -251c0 -104 6 -201 15 -269c19 -135 66 -154 157 -154s138 19 157 154z" />
    <glyph glyph-name="uni042F" unicode="&#x42f;" horiz-adv-x="674" 
d="M623 835h-78v-810h78v-25h-269v25h108l-1 414h-86c-38 0 -142 -9 -151 -130l-12 -169c-11 -150 -36 -140 -146 -140h-61v25h35c69 0 78 36 84 111l13 153c11 140 111 158 153 160v1c-159 19 -189 80 -189 216c0 99 10 194 203 194h319v-25zM354 464h107v371h-121
c-140 0 -153 -29 -153 -185c0 -143 50 -186 167 -186z" />
    <glyph glyph-name="uni0402" unicode="&#x402;" horiz-adv-x="822" 
d="M559 507c136 0 170 -67 170 -165l-2 -376c0 -160 -94 -236 -221 -236c-20 0 -40 2 -55 4l2 20c17 -5 42 -6 52 -6c109 3 136 84 137 218l2 379c0 52 -7 134 -115 134c-64 0 -160 -59 -160 -152v-302h98v-25h-293v25h112v810h-174v-173h-65v198h561v-198h-65v173h-174
v-434c32 70 119 106 190 106z" />
    <glyph glyph-name="uni04EE" unicode="&#x4ee;" horiz-adv-x="640" 
d="M474 982v-23h-278v23h278zM385 860h164l-1 -646c0 -162 -75 -221 -230 -221c-171 0 -204 90 -205 171v29h68v-27c0 -98 26 -146 138 -146c164 0 150 129 151 239l1 171h-1c-24 -82 -71 -115 -172 -115c-139 0 -186 78 -186 168v352h-77v25h160v-346
c0 -58 7 -171 116 -171c117 0 155 78 155 204v288h-81v25z" />
    <glyph glyph-name="uni040C.bg" horiz-adv-x="678" 
d="M466 1160c24 -2 37 -17 37 -37c0 -27 -28 -43 -86 -76c-51 -29 -103 -59 -153 -94l-12 13c58 52 111 109 165 166c19 20 37 29 49 28zM638 25h35v-25h-61c-109 0 -135 -10 -146 141l-12 170c-6 81 -45 122 -164 122h-78v-408h108v-25h-269v25h78v810h-78v25h255v-25h-94
v-372h76c123 0 138 58 158 231l16 141h-68v25h230v-25h-86l-19 -149c-20 -174 -51 -222 -146 -237c65 -5 158 -29 168 -158l13 -154c7 -84 15 -112 84 -112z" />
    <glyph glyph-name="uni0430" unicode="&#x430;" horiz-adv-x="509" 
d="M456 25h30v-25h-74c-62 0 -72 10 -71 65c-19 -47 -62 -71 -135 -71c-138 0 -154 72 -154 141c0 87 29 122 147 139c31 5 61 6 91 6c16 0 33 0 49 -1v104c0 71 -34 102 -90 102c-98 0 -100 -64 -99 -93l1 -28h-72l-1 23c-4 100 73 121 168 121c97 0 166 -22 166 -132v-304
c0 -34 11 -47 44 -47zM339 154v101c-18 2 -36 3 -54 3s-36 -1 -54 -4c-97 -16 -104 -66 -104 -123c0 -44 6 -112 102 -112c71 0 110 54 110 135z" />
    <glyph glyph-name="uni0431" unicode="&#x431;" horiz-adv-x="545" 
d="M478 358c6 -34 8 -72 8 -110c0 -39 -2 -77 -8 -111c-14 -88 -60 -143 -199 -143s-183 55 -197 143c-6 38 -8 73 -8 107c0 66 -4 164 -3 227c5 206 77 270 245 311c77 19 109 30 112 78h26c-1 -114 -74 -140 -178 -167c-140 -36 -168 -101 -176 -219c-4 -57 0 -76 1 -125
c19 91 65 152 178 152c135 0 184 -54 199 -143zM405 136c5 40 7 77 7 112c0 34 -2 71 -7 111c-7 59 -21 119 -126 119c-89 0 -117 -60 -124 -119c-4 -40 -7 -77 -7 -111c0 -35 3 -72 7 -112c7 -59 21 -119 124 -119c105 0 119 60 126 119z" />
    <glyph glyph-name="uni0432" unicode="&#x432;" horiz-adv-x="529" 
d="M255 860c155 0 191 -62 191 -188c0 -130 -22 -203 -142 -217c161 0 166 -107 166 -226c0 -180 -37 -234 -204 -234c-93 0 -183 2 -192 133c-2 31 -3 460 -3 553c0 138 75 179 184 179zM144 680l1 -218h86c124 0 140 81 140 205c0 121 -22 170 -117 170
c-101 0 -110 -66 -110 -157zM145 437l2 -279c1 -117 43 -140 119 -140c121 0 128 60 128 208c0 143 -15 211 -163 211h-86z" />
    <glyph glyph-name="uni0433" unicode="&#x433;" horiz-adv-x="476" 
d="M428 158v-24c0 -72 -27 -140 -185 -140c-127 0 -181 44 -181 132c0 87 73 115 160 138c101 26 111 72 111 123c0 38 -8 96 -77 96c-80 0 -114 -43 -116 -123h-62v140h47l4 -96c17 85 77 102 129 102c105 0 147 -45 147 -113c0 -67 -15 -114 -150 -149
c-98 -26 -117 -60 -118 -120s25 -108 109 -107s114 27 114 115v26h68z" />
    <glyph glyph-name="uni0453" unicode="&#x453;" horiz-adv-x="476" 
d="M269 771c7 15 16 30 34 27c13 -2 20 -13 20 -24c0 -15 -14 -31 -41 -60c-40 -42 -55 -68 -79 -100l-17 11c42 64 51 80 83 146zM428 158v-24c0 -72 -27 -140 -185 -140c-127 0 -181 44 -181 132c0 87 73 115 160 138c101 26 111 72 111 123c0 38 -8 96 -77 96
c-80 0 -114 -43 -116 -123h-62v140h47l4 -96c17 85 77 102 129 102c105 0 147 -45 147 -113c0 -67 -15 -114 -150 -149c-98 -26 -117 -60 -118 -120s25 -108 109 -107s114 27 114 115v26h68z" />
    <glyph glyph-name="uni0491" unicode="&#x491;" horiz-adv-x="417" 
d="M358 635h54v-160h-241v-450h59v-25h-202v25h70v450h-70v25h330v135z" />
    <glyph glyph-name="uni0434" unicode="&#x434;" horiz-adv-x="549" 
d="M467 500v-544c0 -156 -52 -205 -197 -205c-162 0 -187 68 -187 141v25h67v-28c1 -87 36 -115 117 -115c108 0 125 53 128 157l1 148h-1c-30 -73 -101 -79 -142 -79c-144 0 -168 74 -183 140c-7 31 -10 68 -10 105c0 40 4 82 11 119c17 91 64 141 179 141
c54 0 133 -14 149 -111l9 106h59zM389 156c4 40 5 60 5 95s0 55 -6 106c-9 72 -48 125 -138 125c-84 0 -97 -49 -107 -117c-6 -40 -7 -78 -7 -112c0 -36 0 -74 6 -114c11 -78 33 -116 116 -116c97 0 124 64 131 133z" />
    <glyph glyph-name="uni0435" unicode="&#x435;" horiz-adv-x="493" 
d="M370 157h64c0 -111 -44 -164 -169 -164c-109 0 -194 29 -203 163c-2 31 -3 61 -3 94s1 63 3 94c9 134 92 163 193 163c90 0 172 -29 180 -163c2 -31 0 -67 0 -98h-301c0 -34 1 -60 3 -96c6 -90 36 -134 128 -134c88 0 105 45 105 141zM137 350c-2 -27 -3 -50 -3 -79h236
c0 32 0 50 -1 76c-2 49 -7 137 -114 137c-83 0 -112 -44 -118 -134z" />
    <glyph glyph-name="uni0450" unicode="&#x450;" horiz-adv-x="493" 
d="M197 798c18 3 26 -12 34 -27c33 -66 39 -78 81 -148l-13 -7c-24 32 -41 56 -81 98c-27 29 -41 45 -41 60c0 11 7 22 20 24zM370 157h64c0 -111 -44 -164 -169 -164c-109 0 -194 29 -203 163c-2 31 -3 61 -3 94s1 63 3 94c9 134 92 163 193 163c90 0 172 -29 180 -163
c2 -31 0 -67 0 -98h-301c0 -34 1 -60 3 -96c6 -90 36 -134 128 -134c88 0 105 45 105 141zM137 350c-2 -27 -3 -50 -3 -79h236c0 32 0 50 -1 76c-2 49 -7 137 -114 137c-83 0 -112 -44 -118 -134z" />
    <glyph glyph-name="uni0451" unicode="&#x451;" horiz-adv-x="497" 
d="M174 586c-29 0 -43 14 -43 43s14 43 43 43s43 -14 43 -43s-14 -43 -43 -43zM323 586c-29 0 -43 14 -43 43s14 43 43 43s43 -14 43 -43s-14 -43 -43 -43zM370 157h64c0 -111 -44 -164 -169 -164c-109 0 -194 29 -203 163c-2 31 -3 61 -3 94s1 63 3 94
c9 134 92 163 193 163c90 0 172 -29 180 -163c2 -31 0 -67 0 -98h-301c0 -34 1 -60 3 -96c6 -90 36 -134 128 -134c88 0 105 45 105 141zM137 350c-2 -27 -3 -50 -3 -79h236c0 32 0 50 -1 76c-2 49 -7 137 -114 137c-83 0 -112 -44 -118 -134z" />
    <glyph glyph-name="uni0436" unicode="&#x436;" horiz-adv-x="748" 
d="M704 26h21v-26h-54c-69 0 -84 -6 -90 83l-7 99c-4 55 -20 63 -118 64h-49v-221h70v-25h-207v25h70v221h-48c-98 -1 -114 -9 -118 -64l-7 -99c-6 -89 -21 -83 -90 -83h-54v26h21c40 0 46 17 49 55l7 89c6 75 74 90 112 93h-1c-64 8 -78 37 -92 138l-12 74h-55v25h158v-25
h-42l9 -69c15 -103 19 -135 117 -135h46v564h-70v25c48 0 89 1 137 7v-596h47c98 0 102 32 117 135l9 69h-44v25h158v-25h-53l-12 -74c-14 -101 -28 -130 -92 -138h-1c38 -3 106 -18 112 -93l7 -89c3 -38 9 -55 49 -55z" />
    <glyph glyph-name="uni0437" unicode="&#x437;" horiz-adv-x="428" 
d="M389 -47c0 -144 -50 -200 -191 -200c-151 0 -180 68 -180 141v33h70v-36c0 -87 34 -114 110 -115c94 -1 115 40 115 172c0 125 -20 173 -154 173h-52v25h52c119 0 137 29 135 180c-2 125 -20 158 -84 158c-82 0 -110 -44 -114 -135h-62v151h47l5 -96c6 46 31 103 124 103
c118 0 155 -36 159 -181c3 -118 -27 -181 -117 -191c116 -4 137 -84 137 -182z" />
    <glyph glyph-name="uni0438" unicode="&#x438;" horiz-adv-x="575" 
d="M509 25h26v-25h-77c-63 0 -66 13 -64 86c-21 -58 -69 -92 -158 -92c-98 0 -143 42 -143 147v334h-70v25c48 0 95 1 143 7v-369c0 -51 8 -120 102 -120c69 0 124 63 124 167v290h-70v25c48 0 95 1 143 7v-436c0 -39 8 -46 44 -46z" />
    <glyph glyph-name="uni0439" unicode="&#x439;" horiz-adv-x="558" 
d="M267 588c-51 -1 -107 29 -107 73c0 31 23 50 47 50c27 0 47 -17 47 -44c0 -26 -18 -43 -40 -46c14 -10 33 -16 54 -16c62 0 107 43 109 94h18c-2 -53 -47 -109 -128 -111zM509 25h26v-25h-77c-63 0 -66 13 -64 86c-21 -58 -69 -92 -158 -92c-98 0 -143 42 -143 147v334
h-70v25c48 0 95 1 143 7v-369c0 -51 8 -120 102 -120c69 0 124 63 124 167v290h-70v25c48 0 95 1 143 7v-436c0 -39 8 -46 44 -46z" />
    <glyph glyph-name="uni045D" unicode="&#x45d;" horiz-adv-x="575" 
d="M342 623l-13 -7c-24 32 -41 56 -81 98c-27 29 -41 45 -41 60c0 11 7 22 20 24c18 3 26 -12 34 -27c33 -66 39 -78 81 -148zM509 25h26v-25h-77c-63 0 -66 13 -64 86c-21 -58 -69 -92 -158 -92c-98 0 -143 42 -143 147v334h-70v25c48 0 95 1 143 7v-369
c0 -51 8 -120 102 -120c69 0 124 63 124 167v290h-70v25c48 0 95 1 143 7v-436c0 -39 8 -46 44 -46z" />
    <glyph glyph-name="uni043A" unicode="&#x43a;" horiz-adv-x="535" 
d="M479 25h21v-25h-54c-70 0 -84 -7 -91 82l-7 94c-4 55 -20 69 -125 69h-55v-220h79v-25h-222v25h70v810h-64v25c48 0 89 1 137 7v-597h53c110 0 115 32 128 135l9 70h-55v25h185v-25h-70l-11 -75c-15 -102 -28 -130 -95 -138l-1 -1c38 -3 105 -17 112 -92l7 -80
c4 -49 9 -64 49 -64z" />
    <glyph glyph-name="uni043B" unicode="&#x43b;" horiz-adv-x="503" 
d="M432 25h61v-25h-211v25h74l-129 428l-126 -428h72v-25h-163v25h61l142 475h73z" />
    <glyph glyph-name="uni043C" unicode="&#x43c;" horiz-adv-x="688" 
d="M594 25h69v-25h-205v25h63v438h-2l-161 -463h-63l-161 464h-3v-439h76v-25h-179v25h70v450h-70v25h166l151 -430h2l150 430h155v-25h-58v-450z" />
    <glyph glyph-name="uni043D" unicode="&#x43d;" horiz-adv-x="566" 
d="M468 25h70v-25h-201v25h58v229h-224v-229h59v-25h-202v25h70v450h-70v25c48 0 95 1 143 7v-228h224v196h-70v25c48 0 95 1 143 7v-482z" />
    <glyph glyph-name="uni043E" unicode="&#x43e;" horiz-adv-x="534" 
d="M466 363c6 -34 8 -73 8 -113c0 -39 -2 -79 -8 -113c-14 -88 -56 -143 -199 -143s-185 55 -199 143c-5 34 -8 74 -8 113c0 40 3 79 8 113c14 88 58 143 199 143c139 0 184 -54 199 -143zM392 135c5 40 7 79 7 115s-2 75 -7 115c-7 61 -23 118 -125 118s-118 -57 -125 -118
c-4 -40 -7 -79 -7 -115s3 -75 7 -115c7 -61 23 -118 125 -118s118 57 125 118z" />
    <glyph glyph-name="uni043F" unicode="&#x43f;" horiz-adv-x="571" 
d="M518 25h30v-25h-92c-31 0 -55 4 -55 44v319c0 51 -3 119 -104 119c-67 0 -126 -52 -126 -153v-304h79v-25h-222v25h70v450h-70v25c48 0 89 1 137 7l1 -76v-19c23 60 83 94 158 94c114 0 150 -56 150 -137v-288c0 -32 8 -56 44 -56z" />
    <glyph glyph-name="uni0440" unicode="&#x440;" horiz-adv-x="563" 
d="M492 364c7 -34 11 -76 11 -110c0 -47 -5 -92 -10 -118c-17 -89 -63 -143 -176 -143c-66 0 -124 15 -150 88l1 -321h-73v713h-70v25c48 0 89 1 137 7l2 -111c21 107 114 111 148 111c125 0 163 -54 180 -141zM173 155c9 -63 28 -139 137 -139c76 0 98 33 110 117
c7 48 7 101 7 121c0 29 -2 81 -8 121c-12 78 -39 107 -109 107c-99 0 -126 -64 -135 -129c-2 -14 -6 -54 -6 -99s2 -85 4 -99z" />
    <glyph glyph-name="uni0441" unicode="&#x441;" horiz-adv-x="477" 
d="M358 158h64v-23c0 -69 -22 -141 -171 -141c-145 0 -170 55 -184 143c-5 34 -8 74 -8 113c0 40 3 79 8 113c14 87 41 143 176 143c93 0 116 -44 126 -86l4 80h45v-151h-60c0 72 -17 134 -115 134c-99 0 -96 -55 -103 -118c-5 -41 -6 -81 -6 -118c0 -35 1 -73 6 -112
c7 -58 6 -118 111 -118c84 0 107 30 107 115v26z" />
    <glyph glyph-name="uni0442" unicode="&#x442;" horiz-adv-x="862" 
d="M809 25h30v-25h-92c-31 0 -55 4 -55 44v319c0 51 -1 119 -86 119c-64 0 -138 -52 -138 -153v-304h90v-25h-233v25h70v338c0 51 -3 119 -95 119c-55 0 -129 -52 -129 -153v-304h70v-25h-213v25h70v450h-70v25c48 0 88 1 136 7l1 -76l1 -20c23 65 99 95 161 95
c87 0 127 -40 138 -95c26 64 101 95 160 95c116 0 140 -56 140 -137v-289c0 -32 8 -55 44 -55z" />
    <glyph glyph-name="uni0443" unicode="&#x443;" horiz-adv-x="543" 
d="M323 475v25c48 0 90 1 138 7v-76l-1 -471c0 -155 -47 -210 -199 -210c-162 0 -185 68 -185 141v23h67v-16c0 -97 33 -125 117 -125c120 0 132 68 132 184v147c-24 -92 -112 -104 -156 -104c-121 0 -148 69 -148 145v330h-65v25c48 0 90 1 138 7v-365
c0 -52 10 -118 90 -118c98 0 136 78 136 206v245h-64z" />
    <glyph glyph-name="uni0444" unicode="&#x444;" horiz-adv-x="682" 
d="M622 262c2 -180 -38 -262 -247 -262v-215h78v-25h-225v25h78v215c-201 0 -249 70 -246 256c3 164 47 244 246 244v261h-70v25c48 0 91 1 139 7v-293c200 0 246 -80 247 -238zM547 268c0 138 -34 210 -172 209v-454c150 0 172 89 172 245zM306 23v454
c-142 0 -170 -72 -170 -219c0 -159 26 -234 170 -235z" />
    <glyph glyph-name="uni0445" unicode="&#x445;" horiz-adv-x="515" 
d="M445 25h65v-25h-194v25h45l-130 209l-131 -209h74v-25h-169v25h62l147 236l-135 217h-66v22h217v-22h-65l105 -170l107 170h-54v22h170v-22h-83l-123 -197z" />
    <glyph glyph-name="uni0447" unicode="&#x447;" horiz-adv-x="498" 
d="M405 25h70v-25h-217v25h78l-2 205c-28 -26 -57 -56 -128 -56c-117 0 -141 67 -141 145v156h-65v25c48 0 90 1 138 7v-194c0 -55 9 -115 82 -115c64 0 92 36 111 61v216h-64v25c48 0 90 1 138 7v-482z" />
    <glyph glyph-name="uni0446" unicode="&#x446;" horiz-adv-x="561" 
d="M460 25h96v-161h-50l-6 136h-104v101c-19 -67 -69 -107 -165 -107c-98 0 -143 42 -143 147v334h-65v25c48 0 90 1 138 7v-362c0 -51 8 -127 102 -127c69 0 124 60 124 164v293h-64v25c48 0 89 1 137 7v-482z" />
    <glyph glyph-name="uni0448" unicode="&#x448;" horiz-adv-x="858" 
d="M800 16h35v-16h-92c-59 0 -55 17 -55 101h-2c-17 -73 -93 -107 -159 -107c-92 0 -131 44 -139 104c-24 -70 -97 -105 -159 -105c-116 0 -141 57 -141 138v344h-65v25c48 0 90 1 138 7v-35l1 -335c0 -41 1 -120 86 -120c64 0 138 58 138 149v309h-65v25c48 0 90 1 138 7
v-371c0 -41 3 -119 95 -119c55 0 129 57 129 148v310h-65v25c48 0 90 1 138 7v-436c0 -31 8 -55 44 -55z" />
    <glyph glyph-name="uni0449" unicode="&#x449;" horiz-adv-x="874" 
d="M756 25h103v-159h-49l-7 134h-114l-1 101h-2c-17 -73 -93 -107 -159 -108c-92 1 -131 45 -139 105c-24 -70 -97 -105 -159 -105c-116 0 -141 57 -141 138v344h-65v25c48 0 90 1 138 7v-35l1 -336c0 -41 1 -120 86 -120c64 0 138 58 138 149v310h-65v25c48 0 90 1 138 7
v-371c0 -41 3 -119 95 -120c55 1 129 58 129 149v310h-65v25c48 0 90 1 138 7v-482z" />
    <glyph glyph-name="uni045F" unicode="&#x45f;" horiz-adv-x="563" 
d="M540 475h-70v-450h70v-25h-225v-158h-54v158h-233v25h70v450h-70v25h202v-25h-59v-450h226v450h-58v25h201v-25z" />
    <glyph glyph-name="uni044C" unicode="&#x44c;" horiz-adv-x="507" 
d="M452 149c1 -102 -29 -148 -189 -149l-226 -1v26h45v450h-54v25h182v-25h-54v-173l113 -1c138 -1 182 -26 183 -152zM377 150c1 100 -52 124 -114 125l-107 1v-251l121 1c79 1 99 42 100 124z" />
    <glyph glyph-name="uni044A" unicode="&#x44a;" horiz-adv-x="583" 
d="M528 149c1 -102 -29 -148 -189 -149l-246 -1v26h65v450l-103 -1l-7 -93h-36l-2 119h276v-26h-54v-172l113 -1c138 -1 182 -26 183 -152zM453 150c1 101 -52 125 -114 126l-107 1v-252l121 1c79 1 99 52 100 124z" />
    <glyph glyph-name="uni044B" unicode="&#x44b;" horiz-adv-x="739" 
d="M289 379c149 0 180 -57 180 -190c0 -137 -35 -195 -187 -196c-149 -1 -184 51 -185 191l1 291h-70v26h200v-26h-56l-1 -174c14 38 47 78 118 78zM716 475h-72v-450h72v-25h-215v25h70v450h-70v25h215v-25zM282 19c90 0 116 42 116 169c0 124 -21 166 -109 165
c-72 0 -118 -34 -118 -165c0 -134 31 -169 111 -169z" />
    <glyph glyph-name="uni0459" unicode="&#x459;" horiz-adv-x="766" 
d="M415 301h98c143 0 198 -49 198 -141c0 -107 -60 -160 -206 -160h-233v25h77l1 447l-242 -447h60v-25h-163v25h72l243 450h-55v25h213v-25h-63v-174zM415 25h79c121 0 142 43 142 136c0 81 -35 115 -144 115h-77v-251z" />
    <glyph glyph-name="uni045A" unicode="&#x45a;" horiz-adv-x="792" 
d="M441 301h98c143 0 198 -49 198 -141c0 -107 -60 -160 -206 -160h-157v254h-215v-229h59v-25h-190v25h58v450h-58v25h190v-25h-59v-196h215v196h-58v25h184v-25h-59v-174zM441 26h79c121 0 142 42 142 135c0 81 -35 112 -144 115h-77v-250z" />
    <glyph glyph-name="uni044D" unicode="&#x44d;" horiz-adv-x="484" 
d="M416 363c6 -34 8 -73 8 -113c0 -39 -2 -79 -8 -113c-14 -88 -34 -143 -179 -143c-154 0 -178 69 -178 141v23h59v-25c0 -92 28 -116 119 -116c105 0 99 60 106 119c4 37 6 72 7 105c-11 10 -26 22 -47 22c-49 0 -69 -45 -117 -45c-38 0 -58 22 -81 55l5 14
c15 -14 38 -23 58 -23c35 0 55 31 108 31c37 0 59 -17 74 -33c0 32 -3 65 -7 100c-7 59 -4 121 -103 121c-88 0 -108 -26 -116 -133l-56 -1v151h41l5 -96c6 45 15 102 126 102c135 0 162 -56 176 -143z" />
    <glyph glyph-name="uni0458" unicode="&#x458;" horiz-adv-x="267" 
d="M134 754c39 0 54 -27 54 -55c0 -38 -17 -54 -54 -54c-38 0 -55 15 -55 53s17 56 55 56zM173 510v-52l1 -585c0 -97 -37 -122 -137 -122c-24 0 -43 2 -56 4l1 25c13 -2 26 -4 43 -4c83 0 76 47 76 109l-1 563v27h-70v25c48 0 95 4 143 10z" />
    <glyph glyph-name="uni045B" unicode="&#x45b;" horiz-adv-x="568" 
d="M515 25h30v-25h-92c-31 0 -55 4 -55 44v318c0 51 -3 119 -104 119c-67 0 -126 -52 -126 -153v-303h79v-25h-222v25h70v579h-70v25h70v206h-65v25c48 0 89 1 138 7v-238h165v-25h-165v-191c22 59 79 93 153 93c114 0 150 -56 150 -137v-288c0 -32 8 -56 44 -56z" />
    <glyph glyph-name="uni044E" unicode="&#x44e;" horiz-adv-x="755" 
d="M687 363c6 -34 8 -73 8 -113c0 -39 -2 -79 -8 -113c-14 -88 -56 -143 -199 -143s-185 55 -199 143c-5 30 -8 64 -8 99h-113v-211h49v-25h-192v25h70v814h-65v25c48 0 90 1 138 7v-610h113c0 36 3 71 8 102c14 88 58 143 199 143c139 0 184 -54 199 -143zM613 135
c5 40 6 79 6 115s-1 74 -6 114c-7 62 -23 119 -125 119s-118 -57 -125 -119c-5 -40 -7 -78 -7 -114s2 -75 7 -115c7 -61 23 -118 125 -118s118 57 125 118z" />
    <glyph glyph-name="uni044F" unicode="&#x44f;" horiz-adv-x="523" 
d="M430 475v-450h70v-25h-231v25h88v221h-99c-70 0 -84 -13 -88 -69l-7 -94c-7 -89 -21 -83 -91 -83h-53v25h21c40 0 45 6 49 56l7 90c5 67 60 85 103 86c-88 5 -119 42 -119 121c0 100 48 122 169 122h251v-25h-70zM357 475h-80c-96 0 -122 -10 -122 -99s46 -105 131 -105
h71v204z" />
    <glyph glyph-name="uni0452" unicode="&#x452;" horiz-adv-x="552" 
d="M465 361l1 -321c-4 -139 -54 -183 -210 -183c-16 0 -33 2 -41 3l2 24c9 -2 26 -4 42 -4c100 0 134 41 134 169v305c0 48 0 126 -92 126c-64 0 -130 -61 -130 -152v-303h99v-25h-242v25h70v584h-70v25h70v201h-70v25c48 0 95 1 143 7v-233h165v-25h-165v-205l1 -1
c20 65 84 103 159 103c110 0 135 -59 134 -145z" />
    <glyph glyph-name="uni04EF" unicode="&#x4ef;" horiz-adv-x="543" 
d="M408 646v-23h-278v23h278zM323 475v25c48 0 90 1 138 7v-76l-1 -471c0 -155 -47 -210 -199 -210c-162 0 -185 68 -185 141v23h67v-16c0 -97 33 -125 117 -125c120 0 132 68 132 184v147c-24 -92 -112 -104 -156 -104c-121 0 -148 69 -148 145v330h-65v25c48 0 90 1 138 7
v-365c0 -52 10 -118 90 -118c98 0 136 78 136 206v245h-64z" />
    <glyph glyph-name="uni045D.bg" horiz-adv-x="575" 
d="M342 623l-13 -7c-24 32 -41 56 -81 98c-27 29 -41 45 -41 60c0 11 7 22 20 24c18 3 26 -12 34 -27c33 -66 39 -78 81 -148zM509 25h26v-25h-77c-63 0 -66 13 -64 86c-21 -58 -69 -92 -158 -92c-98 0 -143 42 -143 147v334h-70v25c48 0 95 1 143 7v-369
c0 -51 8 -120 102 -120c69 0 124 63 124 167v290h-70v25c48 0 95 1 143 7v-436c0 -39 8 -46 44 -46z" />
    <glyph glyph-name="uni045C.bg" horiz-adv-x="521" 
d="M309 771c7 15 16 30 34 27c13 -2 20 -13 20 -24c0 -15 -14 -31 -41 -60c-40 -42 -55 -68 -79 -100l-17 11c42 64 51 80 83 146zM477 15h21v-15h-54c-70 0 -85 -7 -91 82l-7 99c-4 55 -20 69 -125 69h-55v-225h79v-25h-222v25h70v450h-60v25h133v-235h53
c110 0 115 37 128 140l11 80h-45v15h156v-15h-51l-13 -85c-12 -102 -28 -130 -95 -138l-1 -1c38 -3 106 -17 112 -92l7 -90c4 -49 9 -64 49 -64z" />
    <glyph glyph-name="uni03BC" unicode="&#x3bc;" horiz-adv-x="563" 
d="M509 15h26v-15h-77c-61 0 -57 11 -57 113h-2c-16 -74 -61 -119 -163 -119c-27 0 -50 3 -69 10l1 -244h-74l-1 715h-70v25h143l1 -371c0 -49 19 -110 101 -110c69 0 124 63 124 167v289h-70v25h143v-430c0 -32 8 -55 44 -55z" />
    <glyph glyph-name="pi" unicode="&#x3c0;" horiz-adv-x="700" 
d="M626 76h13c0 -51 -32 -79 -84 -79c-73 0 -97 35 -97 113v333h-140v-118c0 -284 -23 -328 -125 -328c-38 0 -61 25 -61 63h17c0 -21 16 -31 45 -31c78 0 86 68 86 314v100h-36c-24 0 -63 4 -63 -43h-15c0 63 7 100 83 100h360c0 -41 -10 -57 -44 -57h-45v-330
c0 -53 14 -76 56 -76c28 0 50 10 50 39z" />
    <glyph glyph-name="zero" unicode="0" horiz-adv-x="614" 
d="M514 703c15 -91 21 -158 21 -272s-6 -181 -21 -272c-30 -159 -137 -173 -207 -173s-177 14 -207 173c-15 91 -21 158 -21 272s6 181 21 272c30 159 137 173 207 173s177 -14 207 -173zM440 171c15 85 14 168 14 260s1 175 -14 260c-19 124 -55 158 -133 158
s-114 -34 -133 -158c-15 -85 -14 -168 -14 -260s-1 -175 14 -260c19 -124 55 -158 133 -158s114 34 133 158z" />
    <glyph glyph-name="one" unicode="1" horiz-adv-x="399" 
d="M348 25v-25h-297v25h116v817l-106 -21l-2 25l135 32h56v-853h98z" />
    <glyph glyph-name="two" unicode="2" horiz-adv-x="594" 
d="M378 378c-199 -131 -242 -139 -242 -276v-28h359v-74l-410 1v98c0 168 129 210 218 266c98 62 119 151 119 274c0 130 -22 210 -125 210c-95 0 -118 -69 -122 -184l-1 -30l-82 -1v20c0 167 98 223 210 223c159 0 207 -85 207 -232c0 -167 -63 -222 -131 -267z" />
    <glyph glyph-name="three" unicode="3" horiz-adv-x="593" 
d="M498 657c0 -116 -34 -186 -135 -201c117 -20 145 -111 145 -224c0 -186 -38 -247 -221 -247c-89 0 -202 11 -202 175v89h74v-77c0 -129 53 -160 128 -160c136 0 139 89 139 228c0 68 -1 206 -116 206h-79v25h79c88 0 108 61 108 164c0 125 -10 215 -119 215
c-68 0 -127 -35 -127 -163v-53h-74v64c0 153 117 179 203 179c149 0 197 -83 197 -220z" />
    <glyph glyph-name="four" unicode="4" horiz-adv-x="575" 
d="M524 222h-100v-197h98v-25h-283v25h103v197h-280l1 25l310 613h52l-1 -613h100v-25zM341 247v473l-242 -473h242z" />
    <glyph glyph-name="five" unicode="5" horiz-adv-x="575" 
d="M135 787l-1 -318c22 80 88 101 146 101c207 0 210 -95 210 -299c0 -187 -23 -284 -203 -284c-89 0 -202 10 -202 174v69h74v-57c0 -129 52 -159 128 -159c119 0 128 98 128 257c0 176 0 272 -135 272c-77 0 -129 -35 -133 -122h-46l1 439h347v-73h-314z" />
    <glyph glyph-name="six" unicode="6" horiz-adv-x="568" 
d="M310 849c-142 0 -139 -150 -144 -349c23 55 78 70 130 70c204 0 207 -98 207 -299c0 -177 -20 -284 -207 -284c-191 0 -211 89 -211 284c0 68 1 140 3 208c5 222 3 397 220 397c121 0 187 -53 187 -193l-72 1c0 116 -33 164 -113 165zM296 543
c-139 -1 -137 -103 -137 -272c0 -190 5 -257 137 -257c124 0 132 89 132 257c0 173 1 271 -132 272z" />
    <glyph glyph-name="seven" unicode="7" horiz-adv-x="477" 
d="M228 15h-83c13 390 75 509 261 785h-381v70h415l2 -67c-201 -309 -210 -489 -214 -788z" />
    <glyph glyph-name="eight" unicode="8" horiz-adv-x="626" 
d="M397 455c102 -32 144 -73 144 -235c0 -203 -66 -234 -226 -234c-167 0 -230 34 -230 233c0 161 41 204 144 236c-102 17 -134 90 -134 203c0 138 48 219 218 219c168 0 218 -78 218 -219c0 -115 -33 -187 -134 -203zM176 640c0 -95 13 -169 137 -169s137 74 137 164
s14 215 -137 215c-149 0 -137 -123 -137 -210zM313 13c143 0 147 85 147 208c0 110 -3 222 -147 222c-141 0 -147 -106 -147 -225c0 -124 7 -205 147 -205z" />
    <glyph glyph-name="nine" unicode="9" horiz-adv-x="614" 
d="M88 231l69 1l-2 -56c0 -130 74 -164 146 -164c143 0 147 176 147 388c-37 -75 -90 -89 -162 -89c-188 0 -211 94 -211 280s43 285 211 285c214 0 243 -128 243 -445c0 -255 -10 -445 -228 -445c-65 0 -214 5 -214 183zM149 591c0 -157 11 -253 141 -253
c124 0 154 83 154 253c0 165 -18 258 -154 258c-118 0 -141 -104 -141 -258z" />
    <glyph glyph-name="asterisk" unicode="*" horiz-adv-x="610" 
d="M540 497c28 -15 27 -39 19 -53c-9 -15 -28 -27 -56 -11c-39 22 -76 56 -184 142c21 -137 30 -186 30 -231c0 -31 -20 -43 -37 -43s-37 12 -37 43c0 45 10 95 33 233c-110 -87 -148 -121 -187 -144c-27 -16 -47 -4 -55 11c-9 14 -9 38 18 53c39 23 87 39 219 88
c-132 52 -180 67 -219 90c-27 16 -27 39 -18 54c8 14 28 26 55 10c39 -23 78 -56 188 -147c-24 140 -34 191 -34 236c0 32 20 43 37 43s37 -11 37 -43c0 -45 -10 -95 -31 -234c108 89 146 122 185 145c28 16 47 4 56 -10c8 -15 9 -38 -19 -54c-39 -23 -87 -38 -219 -90
c133 -49 180 -65 219 -88z" />
    <glyph glyph-name="backslash" unicode="\" horiz-adv-x="346" 
d="M272 -97l-252 1032h28l253 -1032h-29z" />
    <glyph glyph-name="colon" unicode=":" horiz-adv-x="220" 
d="M110 406c-37 0 -55 18 -55 55s18 55 55 55s55 -18 55 -55s-18 -55 -55 -55zM110 -19c-37 0 -55 18 -55 55s18 55 55 55s55 -18 55 -55s-18 -55 -55 -55z" />
    <glyph glyph-name="comma" unicode="," horiz-adv-x="238" 
d="M155 4c-7 -24 -18 -32 -47 -32c-27 0 -53 7 -53 50c0 45 24 59 61 59c55 0 67 -38 67 -81c0 -60 -28 -119 -122 -131l-5 17c95 4 107 69 99 118z" />
    <glyph glyph-name="ellipsis" unicode="&#x2026;" horiz-adv-x="627" 
d="M110 -20c-37 0 -55 18 -55 55s18 55 55 55s55 -18 55 -55s-18 -55 -55 -55zM317 -20c-37 0 -55 18 -55 55s18 55 55 55s55 -18 55 -55s-18 -55 -55 -55zM518 -20c-37 0 -55 18 -55 55s18 55 55 55s55 -18 55 -55s-18 -55 -55 -55z" />
    <glyph glyph-name="exclam" unicode="!" horiz-adv-x="220" 
d="M153 860l-26 -672h-33l-28 672h87zM110 -20c-37 0 -55 18 -55 55s18 55 55 55s55 -18 55 -55s-18 -55 -55 -55z" />
    <glyph glyph-name="numbersign" unicode="#" horiz-adv-x="766" 
d="M701 566h-127l-78 -295h131l-8 -23h-129l-66 -248h-33l65 248h-232l-65 -248h-33l65 248h-139l9 23h137l77 295h-140l9 23h137l72 271h33l-72 -271h232l72 271h34l-72 -271h131zM463 271l77 295h-232l-77 -295h232z" />
    <glyph glyph-name="period" unicode="." horiz-adv-x="220" 
d="M110 -20c-37 0 -55 18 -55 55s18 55 55 55s55 -18 55 -55s-18 -55 -55 -55z" />
    <glyph glyph-name="question" unicode="?" horiz-adv-x="421" 
d="M208 870c178 0 188 -58 188 -225c0 -222 -179 -95 -179 -330v-113h-47v113c0 197 154 120 154 330c0 141 3 205 -116 205c-84 0 -103 -39 -109 -122l-1 -112h-73l1 109c9 128 82 145 182 145zM195 -9c-37 0 -55 18 -55 55s18 55 55 55s55 -18 55 -55s-18 -55 -55 -55z
" />
    <glyph glyph-name="questiondown" unicode="&#xbf;" horiz-adv-x="421" 
d="M226 605c37 0 55 -18 55 -55s-18 -55 -55 -55s-55 18 -55 55s18 55 55 55zM213 -274c-178 0 -188 58 -188 225c0 222 179 95 179 330v113h47v-113c0 -197 -154 -120 -154 -330c0 -141 -3 -205 116 -205c84 0 103 39 109 122l1 112h73l-1 -109c-9 -128 -82 -145 -182 -145
z" />
    <glyph glyph-name="quotedbl" unicode="&#x22;" horiz-adv-x="361" 
d="M104 869c19 0 37 -10 37 -38c0 -52 -11 -148 -21 -215h-31c-10 67 -22 164 -22 215c0 28 18 38 37 38zM257 869c19 0 37 -10 37 -38c0 -52 -11 -148 -21 -215h-31c-10 67 -22 164 -22 215c0 28 18 38 37 38z" />
    <glyph glyph-name="quotesingle" unicode="'" horiz-adv-x="244" 
d="M122 869c19 0 37 -10 37 -38c0 -52 -11 -148 -21 -215h-31c-10 67 -22 164 -22 215c0 28 18 38 37 38z" />
    <glyph glyph-name="semicolon" unicode=";" horiz-adv-x="238" 
d="M110 403c-37 0 -55 18 -55 55s18 55 55 55s55 -18 55 -55s-18 -55 -55 -55zM155 13c-7 -24 -18 -32 -47 -32c-27 0 -53 7 -53 50c0 45 24 59 61 59c55 0 67 -38 67 -81c0 -60 -28 -119 -122 -131l-3 14c92 15 105 72 97 121z" />
    <glyph glyph-name="slash" unicode="/" horiz-adv-x="346" 
d="M74 -97h-29l253 1032h28z" />
    <glyph glyph-name="underscore" unicode="_" horiz-adv-x="569" 
d="M514 41v-41h-459v41h459z" />
    <glyph glyph-name="comma.case" horiz-adv-x="660" 
d="M323 -26c-159 0 -251 104 -251 243c0 148 89 249 253 249c199 0 280 -137 280 -360c0 -287 -119 -539 -501 -540l-4 32c308 1 491 184 466 544c-33 -92 -98 -168 -243 -168z" />
    <glyph glyph-name="questiondown.case" horiz-adv-x="421" 
d="M226 868c37 0 55 -18 55 -55s-18 -55 -55 -55s-55 18 -55 55s18 55 55 55zM213 -11c-178 0 -188 58 -188 225c0 222 179 95 179 330v113h47v-113c0 -197 -154 -120 -154 -330c0 -141 -3 -205 116 -205c84 0 103 39 109 122l1 112h73l-1 -109c-9 -128 -82 -145 -182 -145z
" />
    <glyph glyph-name="braceleft" unicode="{" horiz-adv-x="356" 
d="M199 734v-351c0 -64 -31 -91 -85 -94c54 -3 85 -30 85 -94v-329c0 -76 30 -111 77 -111h25v-25h-27c-112 0 -146 51 -146 135v338c0 60 -13 73 -60 73h-13v26h13c47 0 60 13 60 73v350c0 84 34 135 146 135h27v-25h-25c-47 0 -77 -35 -77 -101z" />
    <glyph glyph-name="braceright" unicode="}" horiz-adv-x="356" 
d="M157 383v351c0 66 -30 101 -77 101h-25v25h27c112 0 146 -51 146 -135v-350c0 -60 13 -73 60 -73h13v-26h-13c-47 0 -60 -13 -60 -73v-338c0 -84 -34 -135 -146 -135h-27v25h25c47 0 77 35 77 111v329c0 64 31 91 85 94c-54 3 -85 30 -85 94z" />
    <glyph glyph-name="bracketleft" unicode="[" horiz-adv-x="314" 
d="M259 885h-103v-1008h103v-25h-174v1058h174v-25z" />
    <glyph glyph-name="bracketright" unicode="]" horiz-adv-x="314" 
d="M55 885v25h174v-1058h-174v25h103v1008h-103z" />
    <glyph glyph-name="parenleft" unicode="(" horiz-adv-x="386" 
d="M326 -119l-11 -12c-166 128 -230 335 -230 511s64 383 230 512l11 -12c-106 -106 -163 -289 -162 -500c-1 -214 58 -395 162 -499z" />
    <glyph glyph-name="parenright" unicode=")" horiz-adv-x="371" 
d="M207 380c1 211 -56 394 -162 500l11 12c166 -129 230 -336 230 -512s-64 -383 -230 -511l-11 12c104 104 163 285 162 499z" />
    <glyph glyph-name="braceleft.case" horiz-adv-x="356" 
d="M199 879v-351c0 -64 -31 -91 -85 -94c54 -3 85 -30 85 -94v-329c0 -76 30 -111 77 -111h25v-25h-27c-112 0 -146 51 -146 135v338c0 60 -13 73 -60 73h-13v26h13c47 0 60 13 60 73v350c0 84 34 135 146 135h27v-25h-25c-47 0 -77 -35 -77 -101z" />
    <glyph glyph-name="braceright.case" horiz-adv-x="339" 
d="M157 528v351c0 66 -30 101 -77 101h-25v25h27c112 0 146 -51 146 -135v-350c0 -60 13 -73 60 -73h13v-26h-13c-47 0 -60 -13 -60 -73v-338c0 -84 -34 -135 -146 -135h-27v25h25c47 0 77 35 77 111v329c0 64 31 91 85 94c-54 3 -85 30 -85 94z" />
    <glyph glyph-name="emdash" unicode="&#x2014;" horiz-adv-x="920" 
d="M827 356v-40h-734v40h734z" />
    <glyph glyph-name="endash" unicode="&#x2013;" horiz-adv-x="623" 
d="M530 356v-40h-437v40h437z" />
    <glyph glyph-name="hyphen" unicode="-" horiz-adv-x="569" 
d="M514 358v-40h-459v40h459z" />
    <glyph glyph-name="emdash.case" horiz-adv-x="924" 
d="M829 364v-40h-734v40h734z" />
    <glyph glyph-name="endash.case" horiz-adv-x="627" 
d="M532 364v-40h-437v40h437z" />
    <glyph glyph-name="hyphen.case" horiz-adv-x="516" 
d="M421 364v-40h-326v40h326z" />
    <glyph glyph-name="guillemotleft" unicode="&#xab;" horiz-adv-x="449" 
d="M207 500h17c-24 -112 -46 -158 -99 -237c53 -80 75 -126 99 -238h-17c-27 98 -57 142 -151 238c78 79 120 125 151 237zM377 500h17c-24 -112 -46 -158 -99 -237c53 -80 75 -126 99 -238h-17c-31 112 -73 158 -151 238c78 79 120 125 151 237z" />
    <glyph glyph-name="guillemotright" unicode="&#xbb;" horiz-adv-x="449" 
d="M56 500h17c31 -112 73 -158 151 -237c-78 -80 -120 -126 -151 -238h-17c24 112 46 158 99 238c-53 79 -75 125 -99 237zM226 500h17c31 -112 73 -158 151 -237c-94 -96 -124 -140 -151 -238h-17c24 112 46 158 99 238c-53 79 -75 125 -99 237z" />
    <glyph glyph-name="guilsinglleft" unicode="&#x2039;" horiz-adv-x="279" 
d="M207 500h17c-24 -112 -46 -158 -99 -237c53 -80 75 -126 99 -238h-17c-31 112 -73 158 -152 238c93 97 122 129 152 237z" />
    <glyph glyph-name="guilsinglright" unicode="&#x203a;" horiz-adv-x="279" 
d="M55 500h17c30 -108 59 -140 152 -237c-79 -80 -121 -126 -152 -238h-17c24 112 46 158 99 238c-53 79 -75 125 -99 237z" />
    <glyph glyph-name="quotedblbase" unicode="&#x201e;" horiz-adv-x="391" 
d="M155 4c-7 -24 -18 -32 -47 -32c-27 0 -53 7 -53 50c0 45 24 59 61 59c55 0 67 -38 67 -81c0 -60 -28 -119 -122 -131l-5 17c95 4 107 69 99 118zM308 4c-7 -24 -18 -32 -47 -32c-27 0 -53 7 -53 50c0 45 24 59 61 59c55 0 67 -38 67 -81c0 -60 -28 -119 -122 -131l-5 17
c95 4 107 69 99 118z" />
    <glyph glyph-name="quotedblleft" unicode="&#x201c;" horiz-adv-x="391" 
d="M83 795c7 24 18 32 47 32c27 0 53 -7 53 -50c0 -45 -24 -59 -61 -59c-55 0 -67 38 -67 81c0 60 28 119 122 131l5 -17c-95 -4 -107 -69 -99 -118zM236 795c7 24 18 32 47 32c27 0 53 -7 53 -50c0 -45 -24 -59 -61 -59c-55 0 -67 38 -67 81c0 60 28 119 122 131l5 -17
c-95 -4 -107 -69 -99 -118z" />
    <glyph glyph-name="quotedblright" unicode="&#x201d;" horiz-adv-x="391" 
d="M155 813c-7 -24 -18 -32 -47 -32c-27 0 -53 7 -53 50c0 45 24 59 61 59c55 0 67 -38 67 -81c0 -60 -28 -119 -122 -131l-5 17c95 4 107 69 99 118zM308 813c-7 -24 -18 -32 -47 -32c-27 0 -53 7 -53 50c0 45 24 59 61 59c55 0 67 -38 67 -81c0 -60 -28 -119 -122 -131
l-5 17c95 4 107 69 99 118z" />
    <glyph glyph-name="quoteleft" unicode="&#x2018;" horiz-adv-x="238" 
d="M83 795c7 24 18 32 47 32c27 0 53 -7 53 -50c0 -45 -24 -59 -61 -59c-55 0 -67 38 -67 81c0 60 28 119 122 131l5 -17c-95 -4 -107 -69 -99 -118z" />
    <glyph glyph-name="quoteright" unicode="&#x2019;" horiz-adv-x="238" 
d="M125 813c-7 -24 -18 -32 -47 -32c-27 0 -53 7 -53 50c0 45 24 59 61 59c55 0 67 -38 67 -81c0 -60 -28 -119 -122 -131l-5 17c95 4 107 69 99 118z" />
    <glyph glyph-name="quotesinglbase" unicode="&#x201a;" horiz-adv-x="238" 
d="M155 4c-7 -24 -18 -32 -47 -32c-27 0 -53 7 -53 50c0 45 24 59 61 59c55 0 67 -38 67 -81c0 -60 -28 -119 -122 -131l-5 17c95 4 107 69 99 118z" />
    <glyph glyph-name="guillemotleft.case" horiz-adv-x="469" 
d="M209 585h17c-24 -112 -46 -158 -99 -237c53 -80 75 -126 99 -238h-17c-27 98 -57 142 -151 238c78 79 120 125 151 237zM379 585h17c-24 -112 -46 -158 -99 -237c53 -80 75 -126 99 -238h-17c-31 112 -73 158 -151 238c78 79 120 125 151 237z" />
    <glyph glyph-name="guillemotright.case" horiz-adv-x="449" 
d="M56 616h17c31 -112 73 -158 151 -237c-78 -80 -120 -126 -151 -238h-17c24 112 46 158 99 238c-53 79 -75 125 -99 237zM226 616h17c31 -112 73 -158 151 -237c-94 -96 -124 -140 -151 -238h-17c24 112 46 158 99 238c-53 79 -75 125 -99 237z" />
    <glyph glyph-name="guilsinglleft.case" horiz-adv-x="279" 
d="M207 616h17c-24 -112 -46 -158 -99 -237c53 -80 75 -126 99 -238h-17c-31 112 -73 158 -152 238c93 97 122 129 152 237z" />
    <glyph glyph-name="guilsinglright.case" horiz-adv-x="279" 
d="M55 616h17c30 -108 59 -140 152 -237c-79 -80 -121 -126 -152 -238h-17c24 112 46 158 99 238c-53 79 -75 125 -99 237z" />
    <glyph glyph-name="quotedblbase.case" horiz-adv-x="1353" 
d="M323 382c-159 0 -251 104 -251 243c0 148 89 249 253 249c199 0 280 -137 280 -360c0 -287 -119 -539 -501 -540l-4 32c308 1 491 184 466 544c-33 -92 -98 -168 -243 -168zM1016 382c-159 0 -251 104 -251 243c0 148 89 249 253 249c199 0 280 -137 280 -360
c0 -287 -119 -539 -501 -540l-4 32c308 1 491 184 466 544c-33 -92 -98 -168 -243 -168z" />
    <glyph glyph-name="quotedblleft.case" horiz-adv-x="1257" 
d="M337 492c159 0 251 -104 251 -243c0 -148 -89 -249 -253 -249c-199 0 -280 137 -280 360c0 287 119 539 501 540l4 -32c-308 -1 -491 -184 -466 -544c33 92 98 168 243 168zM958 492c159 0 251 -104 251 -243c0 -148 -89 -249 -253 -249c-199 0 -280 137 -280 360
c0 287 119 539 501 540l4 -32c-308 -1 -491 -184 -466 -544c33 92 98 168 243 168z" />
    <glyph glyph-name="space" unicode=" " horiz-adv-x="310" 
 />
    <glyph glyph-name="CR" unicode="&#xd;" horiz-adv-x="358" 
 />
    <glyph glyph-name="A" unicode="A" horiz-adv-x="635" 
d="M567 25h63v-25h-255v25h105l-61 267h-247l-67 -267h90v-25h-190v25h62l209 838h91zM180 322h232l-110 479h-3z" />
    <glyph glyph-name=".null" horiz-adv-x="40" 
 />
    <glyph glyph-name=".null" horiz-adv-x="40" 
 />
    <glyph glyph-name="currency" unicode="&#xa4;" horiz-adv-x="755" 
d="M655 389c-1 -85 -17 -156 -57 -208l107 -99l-24 -26l-107 99c-44 -40 -110 -63 -202 -63c-99 0 -170 22 -218 62l-105 -98l-24 26l105 97c-42 50 -59 121 -58 209s17 159 59 210l-106 97l24 25l105 -98c46 40 115 62 214 62c91 0 159 -22 206 -63l107 99l24 -25l-107 -99
c40 -50 58 -120 57 -207zM371 118c181 0 243 112 245 271c2 165 -73 270 -248 270c-194 0 -255 -108 -257 -271s66 -270 260 -270z" />
    <glyph glyph-name="dollar" unicode="$" horiz-adv-x="610" 
d="M533 214c0 -147 -63 -213 -218 -224v-85h-33v84h-14c-191 0 -209 122 -209 210v40h65v-40c0 -103 13 -179 144 -183h14v399l-18 10c-77 45 -198 78 -198 242c0 150 91 198 216 202v76h33v-76c93 -4 131 -43 142 -108l6 104h56v-223h-65c-7 125 -34 193 -139 200v-361
c74 -42 217 -81 218 -267zM140 685c0 -119 66 -146 142 -186v343c-90 -3 -142 -31 -142 -157zM315 397v-379c106 12 132 82 132 181c0 120 -47 151 -132 198z" />
    <glyph glyph-name="Euro" unicode="&#x20ac;" horiz-adv-x="705" 
d="M585 240h65v-40c0 -88 -20 -210 -196 -210c-121 0 -197 5 -241 173c-14 55 -22 129 -24 208h-119l5 25h113v25c0 18 0 36 1 54h-134l5 25h130c3 76 11 147 22 197c31 138 81 172 215 172c94 0 138 -39 150 -107l6 103h56v-223h-65l-4 42c-11 114 -49 159 -144 159
c-100 0 -118 -29 -136 -155c-6 -40 -11 -110 -13 -188h266l-4 -25h-263c-1 -24 -1 -49 -1 -73v-6h225l-5 -25h-220c1 -78 5 -153 15 -203c26 -136 69 -155 164 -152c116 4 131 80 131 191v33z" />
    <glyph glyph-name="sterling" unicode="&#xa3;" horiz-adv-x="734" 
d="M637 276h21c10 -251 -98 -289 -209 -289c-72 0 -117 39 -158 78c-35 -47 -82 -77 -139 -77c-56 0 -107 26 -107 91c0 78 74 95 107 95c56 0 94 -23 131 -48c6 23 9 48 8 76c-3 97 -41 184 -70 274h-109v24h101c-15 49 -26 100 -26 153c0 153 44 217 218 217
c172 0 192 -44 190 -254h-74c0 159 11 228 -116 227c-102 -1 -134 -44 -134 -153c0 -63 19 -125 40 -190h175v-24h-168c19 -62 37 -126 37 -195c0 -62 -14 -124 -40 -175c36 -22 76 -41 134 -41c86 0 188 37 188 211zM152 15c49 0 91 25 116 72c-34 32 -68 60 -116 60
c-30 0 -77 -17 -77 -68c0 -46 35 -64 77 -64z" />
    <glyph glyph-name="yen" unicode="&#xa5;" horiz-adv-x="700" 
d="M695 835h-77l-153 -349h122v-25h-133l-49 -111v-11h182v-25h-182v-289h142v-25h-367v25h142v289h-195v25h195v11l-48 111h-147v25h136l-152 349h-106v25h309v-25h-115l192 -435l191 435h-105v25h218v-25z" />
    <glyph glyph-name="plus" unicode="+" horiz-adv-x="632" 
d="M577 389v-21h-248v-250h-25v250h-248v21h248v250h25v-250h248z" />
    <glyph glyph-name="minus" unicode="&#x2212;" horiz-adv-x="488" 
d="M433 391v-21h-378v21h378z" />
    <glyph glyph-name="multiply" unicode="&#xd7;" horiz-adv-x="453" 
d="M398 532l-157 -157l153 -153l-15 -14l-152 153l-153 -153l-14 13l153 153l-158 158l15 15l157 -158l157 157z" />
    <glyph glyph-name="divide" unicode="&#xf7;" horiz-adv-x="572" 
d="M286 474c-37 0 -55 18 -55 55s18 55 55 55s55 -18 55 -55s-18 -55 -55 -55zM517 386v-21h-462v21h462zM286 167c-37 0 -55 18 -55 55s18 55 55 55s55 -18 55 -55s-18 -55 -55 -55z" />
    <glyph glyph-name="equal" unicode="=" horiz-adv-x="586" 
d="M531 490v-21h-476v21h476zM531 295v-21h-476v21h476z" />
    <glyph glyph-name="greater" unicode="&#x3e;" horiz-adv-x="638" 
d="M95 615l488 -248l-488 -248l-10 26l456 222l-456 222z" />
    <glyph glyph-name="less" unicode="&#x3c;" horiz-adv-x="638" 
d="M563 589l-456 -222l456 -222l-10 -26l-488 248l488 248z" />
    <glyph glyph-name="plusminus" unicode="&#xb1;" horiz-adv-x="571" 
d="M273 268v200h-218v21h218v200h25v-200h218v-21h-218v-200h-25zM55 153h462v-21h-462v21z" />
    <glyph glyph-name="percent" unicode="%" horiz-adv-x="853" 
d="M348 660c0 -158 -41 -219 -147 -219c-105 0 -146 61 -146 219c0 157 41 218 146 218c106 0 147 -61 147 -218zM289 660c-1 145 -26 202 -88 202c-63 0 -88 -57 -88 -202s25 -203 88 -203c65 0 89 58 88 203zM208 0h-22l416 860h22zM758 213c0 -158 -41 -219 -147 -219
c-105 0 -146 61 -146 219c0 157 41 218 146 218c106 0 147 -61 147 -218zM699 213c-1 145 -26 202 -88 202c-63 0 -88 -57 -88 -202s25 -203 88 -203c65 0 89 58 88 203z" />
    <glyph glyph-name="perthousand" unicode="&#x2030;" horiz-adv-x="1201" 
d="M348 660c0 -158 -41 -219 -147 -219c-105 0 -146 61 -146 219c0 157 41 218 146 218c106 0 147 -61 147 -218zM289 660c-1 145 -26 202 -88 202c-63 0 -88 -57 -88 -202s25 -203 88 -203c65 0 89 58 88 203zM208 0h-21l416 860h21zM758 213c0 -158 -41 -219 -147 -219
c-105 0 -146 61 -146 219c0 157 41 218 146 218c106 0 147 -61 147 -218zM1146 213c0 -158 -41 -219 -147 -219c-105 0 -146 61 -146 219c0 157 41 218 146 218c106 0 147 -61 147 -218zM699 213c-1 145 -26 202 -88 202c-63 0 -88 -57 -88 -202s25 -203 88 -203
c65 0 89 58 88 203zM1087 213c-1 145 -26 202 -88 202c-63 0 -88 -57 -88 -202s25 -203 88 -203c65 0 89 58 88 203z" />
    <glyph glyph-name="at" unicode="@" horiz-adv-x="1063" 
d="M692 -13c-80 0 -102 42 -93 82l7 30c-49 -83 -83 -107 -156 -107c-114 0 -166 59 -166 188c0 194 119 324 270 324c72 0 117 -29 122 -110l25 104h71l-91 -415c-12 -55 0 -68 36 -68c116 0 212 155 212 326c0 160 -91 307 -339 311c-270 4 -450 -163 -450 -448
c0 -336 249 -361 373 -361c162 0 269 35 357 84l9 -23c-100 -57 -234 -84 -363 -84c-173 0 -415 48 -431 357c-16 308 211 503 502 498c271 -4 391 -177 391 -354c0 -191 -139 -334 -286 -334zM465 15c78 0 117 69 147 156c19 56 27 108 33 135c10 47 28 174 -83 174
c-126 0 -193 -162 -193 -314c0 -113 38 -151 96 -151z" />
    <glyph glyph-name="ampersand" unicode="&#x26;" horiz-adv-x="810" 
d="M775 0l-69 -45c-40 26 -88 69 -139 119c-44 -55 -113 -83 -215 -83c-205 0 -267 114 -267 233c0 141 98 199 182 238c-33 62 -62 135 -62 205c0 112 59 176 170 176c104 0 158 -59 158 -137c0 -106 -67 -167 -190 -237c28 -50 63 -95 95 -138c49 -65 99 -122 148 -171
c21 52 30 117 30 190l-1 30h-69v25h164v-25h-73l-1 -50c-2 -75 -11 -138 -31 -189c65 -63 125 -110 170 -141zM383 821c-87 -4 -99 -83 -99 -135c0 -75 19 -138 47 -194c115 55 146 132 146 222c0 65 -27 110 -94 107zM375 18c79 0 135 27 173 75c-67 69 -135 150 -184 221
c-15 21 -49 65 -82 121c-63 -38 -117 -88 -117 -194c0 -157 97 -223 210 -223z" />
    <glyph glyph-name="paragraph" unicode="&#xb6;" horiz-adv-x="742" 
d="M637 860v-22h-109v-971h-30l1 971h-111v-971h-30v391h-40c-143 0 -203 58 -229 143c-12 38 -17 111 -16 180c2 55 7 106 16 136c26 85 88 143 229 143h319zM163 409c15 -65 53 -128 155 -128h40l2 556h-42c-102 0 -140 -63 -155 -128c-8 -34 -12 -81 -13 -129
c-2 -65 3 -125 13 -171z" />
    <glyph glyph-name="section" unicode="&#xa7;" horiz-adv-x="674" 
d="M471 112c64 -52 106 -107 106 -195c0 -111 -67 -195 -234 -195c-218 0 -258 98 -258 196v70h75v-58c0 -145 60 -182 183 -182c113 0 169 37 169 160c0 88 -53 118 -198 212c-119 77 -223 147 -223 259c0 58 32 134 121 179c-51 36 -83 74 -83 152c0 61 29 160 218 160
c131 0 155 -81 163 -141h1l7 132h48v-205h-71c-2 28 -2 11 -4 39c-5 73 -35 148 -143 148c-106 0 -155 -44 -155 -120c0 -92 101 -127 190 -185c120 -78 206 -138 206 -244c0 -83 -43 -150 -118 -182zM158 413c0 -88 82 -136 213 -228c29 -21 57 -40 82 -59
c45 23 86 62 86 128c0 74 -65 121 -205 223c-34 24 -65 43 -93 61c-53 -33 -83 -79 -83 -125z" />
    <glyph glyph-name="copyright" unicode="&#xa9;" horiz-adv-x="1015" 
d="M507 -12c-249 0 -452 163 -452 443s203 442 452 442c250 0 453 -162 453 -442s-203 -443 -453 -443zM507 11c236 0 422 147 422 419s-186 420 -422 420c-235 0 -421 -148 -421 -420s186 -419 421 -419zM712 334v-18c0 -78 -44 -162 -199 -162c-198 0 -237 90 -237 272
c0 190 49 281 237 281c124 0 141 -58 155 -99l4 95h37v-170h-53l-2 23c-6 72 -30 132 -141 132c-147 0 -167 -112 -167 -277c0 -135 20 -239 167 -239c107 0 148 64 148 150v12h51z" />
    <glyph glyph-name="registered" unicode="&#xae;" horiz-adv-x="1075" 
d="M537 873c250 0 453 -162 453 -442s-203 -443 -453 -443c-249 0 -452 163 -452 443s203 442 452 442zM537 7c236 0 427 152 427 424s-191 424 -427 424c-235 0 -426 -152 -426 -424s191 -424 426 -424zM691 343l8 -99c5 -54 10 -77 54 -77h23v-10h-39c-71 0 -87 -6 -94 90
l-8 108c-6 77 -92 84 -137 84h-55l-1 -265h70v-17h-173v17h50v518h-50v17h205c144 0 150 -61 150 -125c0 -86 -31 -125 -109 -138v-1c20 1 98 -3 106 -102zM443 455h69c115 0 127 27 127 119c0 100 -8 118 -118 118h-78v-237z" />
    <glyph glyph-name="trademark" unicode="&#x2122;" horiz-adv-x="883" 
d="M331 731v113h-97v-446h79v-17l-204 1v16h79v446h-97v-113h-36v129h312v-129h-36zM785 398h43v-16h-133v16h44v443h-3l-122 -459h-39l-119 459h-3v-443h49v-16h-111v16h44v446h-44v16h106l112 -432h1l114 432h104v-16h-43v-446z" />
    <glyph glyph-name="asciicircum" unicode="^" horiz-adv-x="585" 
d="M459 527l-21 -10l-148 308l-148 -308l-21 10l169 331z" />
    <glyph glyph-name="uni0308" unicode="&#x308;" 
d="M-265 601c-34 0 -51 16 -51 54s17 55 51 55c33 0 50 -17 50 -55s-17 -54 -50 -54zM-105 601c-34 0 -51 16 -51 54s17 55 51 55c33 0 50 -17 50 -55s-17 -54 -50 -54z" />
    <glyph glyph-name="uni0307" unicode="&#x307;" 
d="M-109 601c-38 0 -55 16 -55 54s17 55 55 55c37 0 54 -17 54 -55s-17 -54 -54 -54z" />
    <glyph glyph-name="gravecomb" unicode="&#x300;" 
d="M-277 798c18 3 26 -12 34 -27c33 -66 39 -78 81 -148l-13 -7c-24 32 -41 56 -81 98c-27 29 -41 45 -41 60c0 11 7 22 20 24z" />
    <glyph glyph-name="acutecomb" unicode="&#x301;" 
d="M-120 771c7 15 16 30 34 27c13 -2 20 -13 20 -24c0 -15 -14 -31 -41 -60c-40 -42 -55 -68 -79 -100l-17 11c42 64 51 80 83 146z" />
    <glyph glyph-name="uni030B" unicode="&#x30b;" 
d="M-251 771c8 15 16 30 34 27c13 -2 20 -13 20 -24c0 -15 -14 -31 -41 -60c-40 -42 -57 -66 -81 -98l-13 7c42 70 46 83 81 148zM-112 771c8 15 16 30 34 27c13 -2 20 -13 20 -24c0 -15 -14 -31 -41 -60c-40 -42 -57 -66 -81 -98l-13 7c42 70 46 83 81 148z" />
    <glyph glyph-name="uni0302" unicode="&#x302;" 
d="M-171 762c32 -51 48 -74 101 -139l-13 -9c-25 27 -94 94 -118 109c-23 -15 -92 -82 -118 -109l-13 9c53 65 69 88 101 139c6 10 15 22 30 22c17 0 25 -15 30 -22z" />
    <glyph glyph-name="uni030C" unicode="&#x30c;" 
d="M-67 788l12 -9c-47 -56 -73 -88 -111 -146c-10 -15 -23 -27 -37 -27s-27 12 -37 27c-39 58 -64 90 -111 146l12 9c53 -56 76 -79 136 -127c60 48 84 71 136 127z" />
    <glyph glyph-name="uni0306" unicode="&#x306;" 
d="M-80 737l15 -3c-10 -73 -25 -130 -138 -130s-129 59 -139 130l17 3c10 -68 67 -88 122 -88c54 0 113 18 123 88z" />
    <glyph glyph-name="uni030A" unicode="&#x30a;" 
d="M-168 610c-73 0 -104 35 -104 88c-1 56 33 89 105 89s103 -36 103 -89c-1 -54 -34 -88 -104 -88zM-166 627c50 0 67 29 68 72c0 44 -21 70 -69 70c-54 0 -71 -27 -71 -71c-1 -44 18 -71 72 -71z" />
    <glyph glyph-name="tildecomb" unicode="&#x303;" 
d="M-398 701c54 1 80 -46 124 -46c35 0 48 25 52 41h15c0 -31 -25 -80 -91 -79c-61 0 -76 41 -121 42c-22 1 -43 -15 -45 -38h-16c1 60 44 80 82 80z" />
    <glyph glyph-name="uni0304" unicode="&#x304;" 
d="M-334 646h278v-23h-278v23z" />
    <glyph glyph-name="uni0312" unicode="&#x312;" 
d="M-61 665c1 -38 -22 -53 -56 -53c-49 0 -61 34 -61 73c0 55 26 108 112 120l4 -13c-75 -10 -90 -59 -87 -102c7 14 18 21 38 21c22 0 49 -7 50 -46z" />
    <glyph glyph-name="uni0326" unicode="&#x326;" 
d="M-122 -97c49 0 61 -34 61 -73c0 -55 -26 -108 -112 -120l-4 13c75 10 90 59 87 102c-7 -14 -18 -21 -38 -21c-22 0 -49 7 -50 46c-1 38 22 53 56 53z" />
    <glyph glyph-name="uni0327" unicode="&#x327;" 
d="M-386 -188c-33 0 -58 9 -82 18l15 19c24 -11 41 -15 67 -15c17 0 59 12 59 55c0 37 -48 44 -99 37l44 86h31l-30 -60c14 1 26 2 41 2c26 0 58 -20 58 -61c0 -67 -74 -81 -104 -81z" />
    <glyph glyph-name="uni0328" unicode="&#x328;" 
d="M-131 9l22 4c-57 -36 -78 -80 -78 -116c0 -41 26 -58 64 -58c35 0 52 14 69 28l7 -9c-34 -30 -62 -48 -102 -48c-57 0 -87 28 -87 74c0 63 55 102 105 125z" />
    <glyph glyph-name="uni0335" unicode="&#x335;" 
 />
    <glyph glyph-name="uni0337" unicode="&#x337;" 
 />
    <glyph glyph-name="uni0338" unicode="&#x338;" 
 />
    <glyph glyph-name="uni0308.case" 
d="M-247 586c-29 0 -43 14 -43 43s14 43 43 43s43 -14 43 -43s-14 -43 -43 -43zM-98 586c-29 0 -43 14 -43 43s14 43 43 43s43 -14 43 -43s-14 -43 -43 -43z" />
    <glyph glyph-name="uni0307.case" 
d="M-148 586c-29 0 -43 14 -43 43s14 43 43 43s43 -14 43 -43s-14 -43 -43 -43z" />
    <glyph glyph-name="gravecomb.case" 
d="M-277 800c12 1 30 -8 49 -28c53 -58 107 -114 165 -166l-12 -13c-50 35 -102 64 -153 93c-58 33 -86 50 -86 77c0 20 13 37 37 37z" />
    <glyph glyph-name="acutecomb.case" 
d="M-94 800c24 -2 37 -17 37 -37c0 -27 -28 -43 -86 -76c-51 -29 -103 -59 -153 -94l-12 13c58 52 111 109 165 166c19 20 37 29 49 28z" />
    <glyph glyph-name="uni030B.case" 
d="M-319 800c24 -2 37 -17 37 -37c0 -27 -28 -44 -86 -77c-51 -29 -103 -58 -153 -93l-12 13c58 52 111 109 165 166c19 20 37 29 49 28zM-103 800c24 -2 37 -17 37 -37c0 -27 -28 -44 -86 -77c-51 -29 -103 -58 -153 -93l-12 13c58 52 111 109 165 166c19 20 37 29 49 28z
" />
    <glyph glyph-name="uni0302.case" 
d="M-179 732c45 -53 78 -90 123 -135l-14 -13c-50 38 -99 70 -149 101c-50 -31 -99 -63 -149 -101l-14 13c45 45 78 82 123 135c11 13 20 21 40 21s29 -8 40 -21z" />
    <glyph glyph-name="uni030C.case" 
d="M-180 604c-11 -13 -20 -21 -40 -21c-18 0 -29 9 -40 21c-47 51 -76 92 -122 135l14 13c48 -39 97 -77 148 -106c51 29 100 67 149 106l12 -13c-45 -45 -76 -82 -121 -135z" />
    <glyph glyph-name="uni0306.case" 
d="M-81 754h26c0 -66 -15 -170 -154 -170s-154 104 -154 170h27c0 -77 65 -107 127 -107c63 0 128 30 128 107z" />
    <glyph glyph-name="uni030A.case" 
d="M-186 588c-81 0 -114 38 -115 96c0 61 36 97 115 97s113 -39 113 -97c-1 -59 -37 -96 -113 -96zM-185 607c55 0 74 31 74 78c1 48 -22 77 -75 77c-59 0 -77 -29 -78 -78c0 -48 20 -77 79 -77z" />
    <glyph glyph-name="tildecomb.case" 
d="M-103 695h21c-1 -65 -37 -102 -103 -102c-80 0 -108 65 -170 65c-39 0 -55 -27 -55 -59h-21c1 65 37 102 103 102c80 0 108 -65 170 -65c39 0 55 27 55 59z" />
    <glyph glyph-name="uni0304.case" 
d="M-334 622h278v-23h-278v23z" />
    <glyph glyph-name="uni0327.case" 
d="M-161 4h26l-25 -51c9 1 24 2 32 2c40 0 73 -17 73 -63c0 -71 -77 -81 -114 -81c-29 0 -52 6 -80 18l10 30c22 -11 44 -17 66 -17c29 0 50 16 50 43c0 35 -39 39 -80 37z" />
    <glyph glyph-name="uni0328.case" 
d="M-146 13h23c-57 -36 -78 -80 -78 -116c0 -41 26 -58 64 -58c35 0 52 14 69 28l7 -9c-34 -30 -62 -48 -102 -48c-57 0 -87 28 -87 74c0 63 54 106 104 129z" />
    <glyph glyph-name="acute" unicode="&#xb4;" horiz-adv-x="256" 
d="M144 771c8 15 16 30 34 27c13 -2 20 -13 20 -24c0 -15 -14 -31 -41 -60c-40 -42 -57 -66 -81 -98l-13 7c42 70 46 83 81 148z" />
    <glyph glyph-name="acute.case" horiz-adv-x="382" 
d="M290 816c24 1 36 -20 37 -33c1 -24 -18 -38 -79 -80c-72 -51 -129 -90 -158 -110h-35c31 31 66 65 127 127c58 59 80 95 108 96z" />
    <glyph glyph-name="ohungarumlautcomb" horiz-adv-x="610" 
 />
    </font>
</defs>
</svg>
